<svg xmlns="http://www.w3.org/2000/svg" width="985" height="460" viewBox="0 0 985 460">
  <g id="Grupo_100266" data-name="Grupo 100266" transform="translate(7377 12269)">
    <path id="Trazado_107304" data-name="Trazado 107304" d="M0,0H254V67H0Z" transform="translate(-7033 -12269)" fill="#ffca28"/>
    <path id="Trazado_107305" data-name="Trazado 107305" d="M7.532-2.391H3.445L2.312,0H-1L5.774-12.8H8.6L10.969,0H7.84ZM4.57-4.772H7.225L6.662-9.185ZM16.269-2.1a1.24,1.24,0,0,0,.976-.347,1.733,1.733,0,0,0,.448-.945L20.4-3.4a3.559,3.559,0,0,1-.62,1.872A3.745,3.745,0,0,1,18.25-.25a4.521,4.521,0,0,1-2.061.426,3.57,3.57,0,0,1-2.927-1.367,4.726,4.726,0,0,1-.835-3.441l.026-.211A6.371,6.371,0,0,1,13.263-7.4a4.626,4.626,0,0,1,1.709-1.718,4.433,4.433,0,0,1,2.369-.571,3.536,3.536,0,0,1,2.624,1.059,3.755,3.755,0,0,1,.927,2.764l-2.707-.009q.044-1.512-1.081-1.538-1.529-.053-1.758,2.575l-.079.9-.009.334Q15.258-2.127,16.269-2.1Zm10.178-9.773L26.033-9.51h1.521l-.36,2.057H25.673l-.738,4.368a1.164,1.164,0,0,0,.057.677q.119.229.593.246a6.873,6.873,0,0,0,.756-.044L26.13-.062a4.673,4.673,0,0,1-1.556.22,2.563,2.563,0,0,1-2.013-.791,2.7,2.7,0,0,1-.545-2.1l.773-4.72H21.612l.352-2.057h1.178l.413-2.364ZM30.155,0h-2.9l1.652-9.51h2.9Zm-.993-11.909a1.341,1.341,0,0,1,.453-1.072,1.625,1.625,0,0,1,1.138-.431,1.678,1.678,0,0,1,1.129.387,1.318,1.318,0,0,1,.47,1.011,1.344,1.344,0,0,1-.448,1.077,1.63,1.63,0,0,1-1.143.426,1.7,1.7,0,0,1-1.121-.382A1.3,1.3,0,0,1,29.162-11.909ZM36.29-3.56l2.382-5.95h3.12L37.292,0H34.348L32.827-9.51H35.8ZM44.147,0h-2.9L42.9-9.51h2.9Zm-.993-11.909a1.341,1.341,0,0,1,.453-1.072,1.625,1.625,0,0,1,1.138-.431,1.678,1.678,0,0,1,1.129.387,1.318,1.318,0,0,1,.47,1.011,1.344,1.344,0,0,1-.448,1.077,1.63,1.63,0,0,1-1.143.426,1.7,1.7,0,0,1-1.121-.382A1.3,1.3,0,0,1,43.154-11.909Zm8.253.035L50.994-9.51h1.521l-.36,2.057H50.634L49.9-3.085a1.164,1.164,0,0,0,.057.677q.119.229.593.246a6.873,6.873,0,0,0,.756-.044L51.091-.062a4.673,4.673,0,0,1-1.556.22,2.563,2.563,0,0,1-2.013-.791,2.7,2.7,0,0,1-.545-2.1l.773-4.72H46.573l.352-2.057H48.1l.413-2.364Zm5.027,7.69L58.9-9.51h3.19L56.514,1.424a4.765,4.765,0,0,1-1.437,1.868,3.266,3.266,0,0,1-1.938.576,5.473,5.473,0,0,1-1.274-.193l.22-2.118h.334a2.394,2.394,0,0,0,.94-.171,1.432,1.432,0,0,0,.677-.664l.413-.791L52.928-9.51h2.988Z" transform="translate(-6937 -12230)" fill="#12263f"/>
    <path id="Trazado_106995" data-name="Trazado 106995" d="M-6933-10745.391v42.164" transform="translate(27.5 -1456.609)" fill="none" stroke="#343434" stroke-width="2"/>
    <path id="Trazado_107306" data-name="Trazado 107306" d="M8,0l8,14H0Z" transform="translate(-6898 -12153) rotate(180)" fill="#12263f"/>
    <path id="Trazado_107307" data-name="Trazado 107307" d="M0,0H254V67H0Z" transform="translate(-6905 -12139)" fill="#a9ebf4"/>
    <path id="Trazado_107308" data-name="Trazado 107308" d="M5.44-3.516,9.36-12.8h3.445L6.618,0H3.331L1.187-12.8H4.438ZM14.555,0h-2.9l1.652-9.51h2.9Zm-.993-11.909a1.341,1.341,0,0,1,.453-1.072,1.625,1.625,0,0,1,1.138-.431,1.678,1.678,0,0,1,1.129.387,1.318,1.318,0,0,1,.47,1.011,1.344,1.344,0,0,1-.448,1.077,1.63,1.63,0,0,1-1.143.426,1.7,1.7,0,0,1-1.121-.382A1.3,1.3,0,0,1,13.562-11.909ZM21.12.176a4.421,4.421,0,0,1-2.272-.6,3.793,3.793,0,0,1-1.507-1.652,4.44,4.44,0,0,1-.4-2.333l.026-.246a5.829,5.829,0,0,1,1.63-3.713,4.51,4.51,0,0,1,3.415-1.314,3.682,3.682,0,0,1,2.092.62A3.463,3.463,0,0,1,25.374-7.4a5.08,5.08,0,0,1,.264,2.377l-.167,1.2h-5.66a1.854,1.854,0,0,0,.422,1.213,1.549,1.549,0,0,0,1.178.492,2.993,2.993,0,0,0,2.259-.967l1.213,1.608a3.58,3.58,0,0,1-1.5,1.2,5.25,5.25,0,0,1-2.1.453Zm.7-7.585a1.483,1.483,0,0,0-1.068.387,3.248,3.248,0,0,0-.787,1.354H22.86l.053-.255a1.949,1.949,0,0,0,.018-.58A1.019,1.019,0,0,0,21.823-7.409ZM34.6-3.911l1.907-5.6h2.83L35.517,0H33.082l-.545-5.607L30.032,0H27.58l-.527-9.51h2.716l-.088,5.66,2.435-5.66h2.013ZM49.491-1.573a4.607,4.607,0,0,1-2.1,1.305,9.143,9.143,0,0,1-3.059.435,4.642,4.642,0,0,1-2.716-.809,4.3,4.3,0,0,1-1.582-2.206,7.18,7.18,0,0,1-.255-3.19l.07-.527a8.122,8.122,0,0,1,2.1-4.72,5.412,5.412,0,0,1,4.144-1.7,4.66,4.66,0,0,1,3.3,1.151A4.722,4.722,0,0,1,50.669-8.6l-2.883-.009a2.365,2.365,0,0,0-.505-1.5,1.723,1.723,0,0,0-1.261-.5,2.335,2.335,0,0,0-2,.954,6.059,6.059,0,0,0-1.081,2.852,11.251,11.251,0,0,0-.176,2.461q.132,2.118,1.907,2.145a3.225,3.225,0,0,0,1.881-.519l.4-2H44.859l.369-2.118h5.089ZM57.6-6.829a8.273,8.273,0,0,0-.9-.088,2.233,2.233,0,0,0-1.986.9L53.648,0H50.757l1.652-9.51,2.7-.009-.22,1.248a2.64,2.64,0,0,1,2.2-1.441,4.144,4.144,0,0,1,.9.123Zm5.071-2.856a3.994,3.994,0,0,1,2.206.637,3.59,3.59,0,0,1,1.367,1.727A5.33,5.33,0,0,1,66.56-4.86l-.018.193a5.636,5.636,0,0,1-1.626,3.533,4.575,4.575,0,0,1-3.41,1.31,3.977,3.977,0,0,1-2.188-.628,3.612,3.612,0,0,1-1.367-1.709,5.179,5.179,0,0,1-.321-2.443,5.863,5.863,0,0,1,1.6-3.727A4.547,4.547,0,0,1,62.675-9.686Zm-2.153,5.08-.026.519q-.123,1.96,1.2,2,1.705.053,1.978-2.769l.035-.8a2.161,2.161,0,0,0-.294-1.261,1.072,1.072,0,0,0-.918-.488,1.511,1.511,0,0,0-1.314.655A4.29,4.29,0,0,0,60.521-4.605ZM72.905-1.037A3.148,3.148,0,0,1,70.339.185a2.492,2.492,0,0,1-2.1-.976,3.6,3.6,0,0,1-.549-2.566L68.713-9.51H71.6L70.559-3.322a2.059,2.059,0,0,0,0,.466.765.765,0,0,0,.853.747,1.869,1.869,0,0,0,1.556-.721l1.178-6.68h2.909L75.4,0H72.712ZM86.353-4.746a7.9,7.9,0,0,1-.782,2.659A4.348,4.348,0,0,1,84.089-.356a3.417,3.417,0,0,1-1.973.541A2.584,2.584,0,0,1,80.095-.8l-.861,4.456H76.342L78.627-9.51,81.3-9.519l-.149.905a2.8,2.8,0,0,1,2.259-1.072,2.662,2.662,0,0,1,2.167.993,4.388,4.388,0,0,1,.831,2.663A10.274,10.274,0,0,1,86.353-4.746ZM83.54-5.924Q83.5-7.374,82.556-7.4a1.7,1.7,0,0,0-1.521.747l-.677,3.771a1.173,1.173,0,0,0,1.213.782q1.538.026,1.89-2.646Q83.54-5.59,83.54-5.924Z" transform="translate(-6822 -12100)" fill="#12263f"/>
    <path id="Trazado_106996" data-name="Trazado 106996" d="M-7054-10432.474v-161.94h520.127v27.068" transform="translate(21 -1448)" fill="none" stroke="#000" stroke-width="2"/>
    <path id="Trazado_106997" data-name="Trazado 106997" d="M-6798.5-10631v66.67" transform="translate(21 -1441)" fill="none" stroke="#21214b" stroke-width="2"/>
    <path id="Trazado_107309" data-name="Trazado 107309" d="M0,0H254V67H0Z" transform="translate(-7171 -12015)" fill="#a9ebf4"/>
    <path id="Trazado_107310" data-name="Trazado 107310" d="M5.44-3.516,9.36-12.8h3.445L6.618,0H3.331L1.187-12.8H4.438ZM14.555,0h-2.9l1.652-9.51h2.9Zm-.993-11.909a1.341,1.341,0,0,1,.453-1.072,1.625,1.625,0,0,1,1.138-.431,1.678,1.678,0,0,1,1.129.387,1.318,1.318,0,0,1,.47,1.011,1.344,1.344,0,0,1-.448,1.077,1.63,1.63,0,0,1-1.143.426,1.7,1.7,0,0,1-1.121-.382A1.3,1.3,0,0,1,13.562-11.909ZM21.12.176a4.421,4.421,0,0,1-2.272-.6,3.793,3.793,0,0,1-1.507-1.652,4.44,4.44,0,0,1-.4-2.333l.026-.246a5.829,5.829,0,0,1,1.63-3.713,4.51,4.51,0,0,1,3.415-1.314,3.682,3.682,0,0,1,2.092.62A3.463,3.463,0,0,1,25.374-7.4a5.08,5.08,0,0,1,.264,2.377l-.167,1.2h-5.66a1.854,1.854,0,0,0,.422,1.213,1.549,1.549,0,0,0,1.178.492,2.993,2.993,0,0,0,2.259-.967l1.213,1.608a3.58,3.58,0,0,1-1.5,1.2,5.25,5.25,0,0,1-2.1.453Zm.7-7.585a1.483,1.483,0,0,0-1.068.387,3.248,3.248,0,0,0-.787,1.354H22.86l.053-.255a1.949,1.949,0,0,0,.018-.58A1.019,1.019,0,0,0,21.823-7.409ZM34.6-3.911l1.907-5.6h2.83L35.517,0H33.082l-.545-5.607L30.032,0H27.58l-.527-9.51h2.716l-.088,5.66,2.435-5.66h2.013ZM49.491-1.573a4.607,4.607,0,0,1-2.1,1.305,9.143,9.143,0,0,1-3.059.435,4.642,4.642,0,0,1-2.716-.809,4.3,4.3,0,0,1-1.582-2.206,7.18,7.18,0,0,1-.255-3.19l.07-.527a8.122,8.122,0,0,1,2.1-4.72,5.412,5.412,0,0,1,4.144-1.7,4.66,4.66,0,0,1,3.3,1.151A4.722,4.722,0,0,1,50.669-8.6l-2.883-.009a2.365,2.365,0,0,0-.505-1.5,1.723,1.723,0,0,0-1.261-.5,2.335,2.335,0,0,0-2,.954,6.059,6.059,0,0,0-1.081,2.852,11.251,11.251,0,0,0-.176,2.461q.132,2.118,1.907,2.145a3.225,3.225,0,0,0,1.881-.519l.4-2H44.859l.369-2.118h5.089ZM57.6-6.829a8.273,8.273,0,0,0-.9-.088,2.233,2.233,0,0,0-1.986.9L53.648,0H50.757l1.652-9.51,2.7-.009-.22,1.248a2.64,2.64,0,0,1,2.2-1.441,4.144,4.144,0,0,1,.9.123Zm5.071-2.856a3.994,3.994,0,0,1,2.206.637,3.59,3.59,0,0,1,1.367,1.727A5.33,5.33,0,0,1,66.56-4.86l-.018.193a5.636,5.636,0,0,1-1.626,3.533,4.575,4.575,0,0,1-3.41,1.31,3.977,3.977,0,0,1-2.188-.628,3.612,3.612,0,0,1-1.367-1.709,5.179,5.179,0,0,1-.321-2.443,5.863,5.863,0,0,1,1.6-3.727A4.547,4.547,0,0,1,62.675-9.686Zm-2.153,5.08-.026.519q-.123,1.96,1.2,2,1.705.053,1.978-2.769l.035-.8a2.161,2.161,0,0,0-.294-1.261,1.072,1.072,0,0,0-.918-.488,1.511,1.511,0,0,0-1.314.655A4.29,4.29,0,0,0,60.521-4.605ZM72.905-1.037A3.148,3.148,0,0,1,70.339.185a2.492,2.492,0,0,1-2.1-.976,3.6,3.6,0,0,1-.549-2.566L68.713-9.51H71.6L70.559-3.322a2.059,2.059,0,0,0,0,.466.765.765,0,0,0,.853.747,1.869,1.869,0,0,0,1.556-.721l1.178-6.68h2.909L75.4,0H72.712ZM86.353-4.746a7.9,7.9,0,0,1-.782,2.659A4.348,4.348,0,0,1,84.089-.356a3.417,3.417,0,0,1-1.973.541A2.584,2.584,0,0,1,80.095-.8l-.861,4.456H76.342L78.627-9.51,81.3-9.519l-.149.905a2.8,2.8,0,0,1,2.259-1.072,2.662,2.662,0,0,1,2.167.993,4.388,4.388,0,0,1,.831,2.663A10.274,10.274,0,0,1,86.353-4.746ZM83.54-5.924Q83.5-7.374,82.556-7.4a1.7,1.7,0,0,0-1.521.747l-.677,3.771a1.173,1.173,0,0,0,1.213.782q1.538.026,1.89-2.646Q83.54-5.59,83.54-5.924Z" transform="translate(-7088 -11976)" fill="#12263f"/>
    <path id="Trazado_107311" data-name="Trazado 107311" d="M0,0H254V67H0Z" transform="translate(-6906 -12015)" fill="#dee4f0"/>
    <path id="Trazado_107312" data-name="Trazado 107312" d="M5.44-3.516,9.36-12.8h3.445L6.618,0H3.331L1.187-12.8H4.438ZM14.555,0h-2.9l1.652-9.51h2.9Zm-.993-11.909a1.341,1.341,0,0,1,.453-1.072,1.625,1.625,0,0,1,1.138-.431,1.678,1.678,0,0,1,1.129.387,1.318,1.318,0,0,1,.47,1.011,1.344,1.344,0,0,1-.448,1.077,1.63,1.63,0,0,1-1.143.426,1.7,1.7,0,0,1-1.121-.382A1.3,1.3,0,0,1,13.562-11.909ZM21.12.176a4.421,4.421,0,0,1-2.272-.6,3.793,3.793,0,0,1-1.507-1.652,4.44,4.44,0,0,1-.4-2.333l.026-.246a5.829,5.829,0,0,1,1.63-3.713,4.51,4.51,0,0,1,3.415-1.314,3.682,3.682,0,0,1,2.092.62A3.463,3.463,0,0,1,25.374-7.4a5.08,5.08,0,0,1,.264,2.377l-.167,1.2h-5.66a1.854,1.854,0,0,0,.422,1.213,1.549,1.549,0,0,0,1.178.492,2.993,2.993,0,0,0,2.259-.967l1.213,1.608a3.58,3.58,0,0,1-1.5,1.2,5.25,5.25,0,0,1-2.1.453Zm.7-7.585a1.483,1.483,0,0,0-1.068.387,3.248,3.248,0,0,0-.787,1.354H22.86l.053-.255a1.949,1.949,0,0,0,.018-.58A1.019,1.019,0,0,0,21.823-7.409ZM34.6-3.911l1.907-5.6h2.83L35.517,0H33.082l-.545-5.607L30.032,0H27.58l-.527-9.51h2.716l-.088,5.66,2.435-5.66h2.013Z" transform="translate(-6799 -11976)" fill="#12263f"/>
    <path id="Trazado_107313" data-name="Trazado 107313" d="M0,0H254V67H0Z" transform="translate(-6646 -12015)" fill="#dee4f0"/>
    <path id="Trazado_106998" data-name="Trazado 106998" d="M-7304.615-10435.354v-30.33h503.576v30.33" transform="translate(21 -1441)" fill="none" stroke="#21214b" stroke-width="2"/>
    <path id="Trazado_107315" data-name="Trazado 107315" d="M0,0H186V67H0Z" transform="translate(-7377 -11876)" fill="#dee4f0"/>
    <path id="Trazado_107318" data-name="Trazado 107318" d="M5.44-3.516,9.36-12.8h3.445L6.618,0H3.331L1.187-12.8H4.438ZM14.555,0h-2.9l1.652-9.51h2.9Zm-.993-11.909a1.341,1.341,0,0,1,.453-1.072,1.625,1.625,0,0,1,1.138-.431,1.678,1.678,0,0,1,1.129.387,1.318,1.318,0,0,1,.47,1.011,1.344,1.344,0,0,1-.448,1.077,1.63,1.63,0,0,1-1.143.426,1.7,1.7,0,0,1-1.121-.382A1.3,1.3,0,0,1,13.562-11.909ZM21.12.176a4.421,4.421,0,0,1-2.272-.6,3.793,3.793,0,0,1-1.507-1.652,4.44,4.44,0,0,1-.4-2.333l.026-.246a5.829,5.829,0,0,1,1.63-3.713,4.51,4.51,0,0,1,3.415-1.314,3.682,3.682,0,0,1,2.092.62A3.463,3.463,0,0,1,25.374-7.4a5.08,5.08,0,0,1,.264,2.377l-.167,1.2h-5.66a1.854,1.854,0,0,0,.422,1.213,1.549,1.549,0,0,0,1.178.492,2.993,2.993,0,0,0,2.259-.967l1.213,1.608a3.58,3.58,0,0,1-1.5,1.2,5.25,5.25,0,0,1-2.1.453Zm.7-7.585a1.483,1.483,0,0,0-1.068.387,3.248,3.248,0,0,0-.787,1.354H22.86l.053-.255a1.949,1.949,0,0,0,.018-.58A1.019,1.019,0,0,0,21.823-7.409ZM34.6-3.911l1.907-5.6h2.83L35.517,0H33.082l-.545-5.607L30.032,0H27.58l-.527-9.51h2.716l-.088,5.66,2.435-5.66h2.013Z" transform="translate(-7304 -11837)" fill="#12263f"/>
    <path id="Trazado_107316" data-name="Trazado 107316" d="M0,0H186V67H0Z" transform="translate(-7125 -11876)" fill="#dee4f0"/>
    <path id="Trazado_107319" data-name="Trazado 107319" d="M5.44-3.516,9.36-12.8h3.445L6.618,0H3.331L1.187-12.8H4.438ZM14.555,0h-2.9l1.652-9.51h2.9Zm-.993-11.909a1.341,1.341,0,0,1,.453-1.072,1.625,1.625,0,0,1,1.138-.431,1.678,1.678,0,0,1,1.129.387,1.318,1.318,0,0,1,.47,1.011,1.344,1.344,0,0,1-.448,1.077,1.63,1.63,0,0,1-1.143.426,1.7,1.7,0,0,1-1.121-.382A1.3,1.3,0,0,1,13.562-11.909ZM21.12.176a4.421,4.421,0,0,1-2.272-.6,3.793,3.793,0,0,1-1.507-1.652,4.44,4.44,0,0,1-.4-2.333l.026-.246a5.829,5.829,0,0,1,1.63-3.713,4.51,4.51,0,0,1,3.415-1.314,3.682,3.682,0,0,1,2.092.62A3.463,3.463,0,0,1,25.374-7.4a5.08,5.08,0,0,1,.264,2.377l-.167,1.2h-5.66a1.854,1.854,0,0,0,.422,1.213,1.549,1.549,0,0,0,1.178.492,2.993,2.993,0,0,0,2.259-.967l1.213,1.608a3.58,3.58,0,0,1-1.5,1.2,5.25,5.25,0,0,1-2.1.453Zm.7-7.585a1.483,1.483,0,0,0-1.068.387,3.248,3.248,0,0,0-.787,1.354H22.86l.053-.255a1.949,1.949,0,0,0,.018-.58A1.019,1.019,0,0,0,21.823-7.409ZM34.6-3.911l1.907-5.6h2.83L35.517,0H33.082l-.545-5.607L30.032,0H27.58l-.527-9.51h2.716l-.088,5.66,2.435-5.66h2.013Z" transform="translate(-7052 -11837)" fill="#12263f"/>
    <path id="Trazado_107317" data-name="Trazado 107317" d="M0,0H186V67H0Z" transform="translate(-6873 -11876)" fill="#dee4f0"/>
    <path id="Trazado_107320" data-name="Trazado 107320" d="M5.44-3.516,9.36-12.8h3.445L6.618,0H3.331L1.187-12.8H4.438ZM14.555,0h-2.9l1.652-9.51h2.9Zm-.993-11.909a1.341,1.341,0,0,1,.453-1.072,1.625,1.625,0,0,1,1.138-.431,1.678,1.678,0,0,1,1.129.387,1.318,1.318,0,0,1,.47,1.011,1.344,1.344,0,0,1-.448,1.077,1.63,1.63,0,0,1-1.143.426,1.7,1.7,0,0,1-1.121-.382A1.3,1.3,0,0,1,13.562-11.909ZM21.12.176a4.421,4.421,0,0,1-2.272-.6,3.793,3.793,0,0,1-1.507-1.652,4.44,4.44,0,0,1-.4-2.333l.026-.246a5.829,5.829,0,0,1,1.63-3.713,4.51,4.51,0,0,1,3.415-1.314,3.682,3.682,0,0,1,2.092.62A3.463,3.463,0,0,1,25.374-7.4a5.08,5.08,0,0,1,.264,2.377l-.167,1.2h-5.66a1.854,1.854,0,0,0,.422,1.213,1.549,1.549,0,0,0,1.178.492,2.993,2.993,0,0,0,2.259-.967l1.213,1.608a3.58,3.58,0,0,1-1.5,1.2,5.25,5.25,0,0,1-2.1.453Zm.7-7.585a1.483,1.483,0,0,0-1.068.387,3.248,3.248,0,0,0-.787,1.354H22.86l.053-.255a1.949,1.949,0,0,0,.018-.58A1.019,1.019,0,0,0,21.823-7.409ZM34.6-3.911l1.907-5.6h2.83L35.517,0H33.082l-.545-5.607L30.032,0H27.58l-.527-9.51h2.716l-.088,5.66,2.435-5.66h2.013Z" transform="translate(-6800 -11837)" fill="#12263f"/>
    <path id="Trazado_107314" data-name="Trazado 107314" d="M5.44-3.516,9.36-12.8h3.445L6.618,0H3.331L1.187-12.8H4.438ZM14.555,0h-2.9l1.652-9.51h2.9Zm-.993-11.909a1.341,1.341,0,0,1,.453-1.072,1.625,1.625,0,0,1,1.138-.431,1.678,1.678,0,0,1,1.129.387,1.318,1.318,0,0,1,.47,1.011,1.344,1.344,0,0,1-.448,1.077,1.63,1.63,0,0,1-1.143.426,1.7,1.7,0,0,1-1.121-.382A1.3,1.3,0,0,1,13.562-11.909ZM21.12.176a4.421,4.421,0,0,1-2.272-.6,3.793,3.793,0,0,1-1.507-1.652,4.44,4.44,0,0,1-.4-2.333l.026-.246a5.829,5.829,0,0,1,1.63-3.713,4.51,4.51,0,0,1,3.415-1.314,3.682,3.682,0,0,1,2.092.62A3.463,3.463,0,0,1,25.374-7.4a5.08,5.08,0,0,1,.264,2.377l-.167,1.2h-5.66a1.854,1.854,0,0,0,.422,1.213,1.549,1.549,0,0,0,1.178.492,2.993,2.993,0,0,0,2.259-.967l1.213,1.608a3.58,3.58,0,0,1-1.5,1.2,5.25,5.25,0,0,1-2.1.453Zm.7-7.585a1.483,1.483,0,0,0-1.068.387,3.248,3.248,0,0,0-.787,1.354H22.86l.053-.255a1.949,1.949,0,0,0,.018-.58A1.019,1.019,0,0,0,21.823-7.409ZM34.6-3.911l1.907-5.6h2.83L35.517,0H33.082l-.545-5.607L30.032,0H27.58l-.527-9.51h2.716l-.088,5.66,2.435-5.66h2.013Z" transform="translate(-6533 -11976)" fill="#12263f"/>
  </g>
</svg>
