<svg xmlns="http://www.w3.org/2000/svg" width="1306.667" height="734.191" viewBox="0 0 1306.667 734.191">
  <g id="Grupo_1" data-name="Grupo 1" transform="translate(-158.333 -374.01)">
    <path id="Trazado_819832" data-name="Trazado 819832" d="M10,0H245a10,10,0,0,1,10,10V42a10,10,0,0,1-10,10H10A10,10,0,0,1,0,42V10A10,10,0,0,1,10,0Z" transform="translate(158.333 421.86)" fill="#ffca27"/>
    <path id="Trazado_819833" data-name="Trazado 819833" d="M-67.48-2.344H-71.59L-72.371,0h-2.492l4.234-11.375h2.172L-64.2,0h-2.492Zm-3.477-1.9h2.844L-69.543-8.5Zm12.422-2.094a6.134,6.134,0,0,0-.812-.062,1.654,1.654,0,0,0-1.68.867V0h-2.258V-8.453h2.133l.063,1.008a2.092,2.092,0,0,1,1.883-1.164,2.366,2.366,0,0,1,.7.1Zm.586,2.031a5.053,5.053,0,0,1,.887-3.148,2.9,2.9,0,0,1,2.434-1.156A2.6,2.6,0,0,1-52.465-7.57l.148-.883h1.984V3.25H-52.6V-.727a2.6,2.6,0,0,1-2.047.883,2.878,2.878,0,0,1-2.406-1.172A5.3,5.3,0,0,1-57.949-4.3Zm2.258.16A3.314,3.314,0,0,0-55.266-2.3a1.363,1.363,0,0,0,1.2.634A1.518,1.518,0,0,0-52.6-2.493v-3.5a1.506,1.506,0,0,0-1.453-.8,1.38,1.38,0,0,0-1.211.634A3.661,3.661,0,0,0-55.691-4.144ZM-43.5-.859A2.831,2.831,0,0,1-45.809.156a2.67,2.67,0,0,1-2.074-.781,3.335,3.335,0,0,1-.73-2.289V-8.453h2.258v5.467q0,1.322,1.2,1.322a1.63,1.63,0,0,0,1.578-.8V-8.453h2.266V0h-2.125ZM-37.223,0h-2.266V-8.453h2.266Zm-2.4-10.641a1.112,1.112,0,0,1,.34-.836,1.277,1.277,0,0,1,.926-.328,1.28,1.28,0,0,1,.922.328,1.105,1.105,0,0,1,.344.836,1.108,1.108,0,0,1-.348.844,1.283,1.283,0,0,1-.918.328,1.283,1.283,0,0,1-.918-.328A1.108,1.108,0,0,1-39.621-10.641Zm6.961.109v2.078h1.445V-6.8H-32.66v4.219a1.007,1.007,0,0,0,.18.672.9.9,0,0,0,.688.2,3.6,3.6,0,0,0,.664-.055V-.047a4.648,4.648,0,0,1-1.367.2,2.156,2.156,0,0,1-2.422-2.4V-6.8h-1.234V-8.453h1.234v-2.078ZM-26.066.156A4.15,4.15,0,0,1-29.094-.984a4.054,4.054,0,0,1-1.168-3.039v-.219A5.106,5.106,0,0,1-29.77-6.52a3.612,3.612,0,0,1,1.395-1.547,3.914,3.914,0,0,1,2.059-.543,3.508,3.508,0,0,1,2.73,1.094,4.444,4.444,0,0,1,1,3.1v.922h-5.383a2.1,2.1,0,0,0,.66,1.328,2,2,0,0,0,1.395.5,2.437,2.437,0,0,0,2.039-.945l1.109,1.242A3.389,3.389,0,0,1-24.145-.246,4.511,4.511,0,0,1-26.066.156Zm-.258-6.945a1.411,1.411,0,0,0-1.09.455,2.357,2.357,0,0,0-.535,1.3h3.141v-.181a1.681,1.681,0,0,0-.406-1.165A1.456,1.456,0,0,0-26.324-6.789Zm8.531,5.125a1.481,1.481,0,0,0,1.016-.344,1.2,1.2,0,0,0,.406-.914h2.117a2.9,2.9,0,0,1-.469,1.574A3.093,3.093,0,0,1-15.984-.238a3.949,3.949,0,0,1-1.77.395A3.67,3.67,0,0,1-20.613-1,4.56,4.56,0,0,1-21.66-4.18v-.148a4.508,4.508,0,0,1,1.039-3.117A3.627,3.627,0,0,1-17.77-8.609a3.555,3.555,0,0,1,2.543.9,3.2,3.2,0,0,1,.973,2.4h-2.117a1.551,1.551,0,0,0-.406-1.072,1.354,1.354,0,0,0-1.031-.412A1.36,1.36,0,0,0-19-6.214a3.333,3.333,0,0,0-.4,1.866v.235A3.375,3.375,0,0,0-19-2.235,1.377,1.377,0,0,0-17.793-1.664Zm7.531-8.867v2.078h1.445V-6.8h-1.445v4.219a1.007,1.007,0,0,0,.18.672.9.9,0,0,0,.688.2,3.6,3.6,0,0,0,.664-.055V-.047a4.648,4.648,0,0,1-1.367.2,2.156,2.156,0,0,1-2.422-2.4V-6.8h-1.234V-8.453h1.234v-2.078ZM-2.5-.859A2.831,2.831,0,0,1-4.809.156,2.67,2.67,0,0,1-6.883-.625a3.335,3.335,0,0,1-.73-2.289V-8.453h2.258v5.467q0,1.322,1.2,1.322a1.63,1.63,0,0,0,1.578-.8V-8.453H-.309V0H-2.434ZM6.145-6.336A6.134,6.134,0,0,0,5.332-6.4a1.654,1.654,0,0,0-1.68.867V0H1.395V-8.453H3.527L3.59-7.445A2.092,2.092,0,0,1,5.473-8.609a2.366,2.366,0,0,1,.7.1ZM11.895,0a2.507,2.507,0,0,1-.227-.758A2.732,2.732,0,0,1,9.535.156,3,3,0,0,1,7.477-.562,2.312,2.312,0,0,1,6.66-2.375a2.389,2.389,0,0,1,1-2.062,4.915,4.915,0,0,1,2.879-.727h1.039v-.484a1.393,1.393,0,0,0-.3-.937,1.183,1.183,0,0,0-.949-.352,1.345,1.345,0,0,0-.895.273.929.929,0,0,0-.324.75H6.848A2.268,2.268,0,0,1,7.3-7.273a3,3,0,0,1,1.281-.98,4.669,4.669,0,0,1,1.859-.355,3.689,3.689,0,0,1,2.48.785,2.747,2.747,0,0,1,.918,2.207v3.664a4.041,4.041,0,0,0,.336,1.82V0ZM10.027-1.57a1.945,1.945,0,0,0,.922-.223,1.462,1.462,0,0,0,.625-.6V-3.844H10.73q-1.7,0-1.8,1.172l-.008.133a.9.9,0,0,0,.3.7A1.153,1.153,0,0,0,10.027-1.57Zm16.1-.773H22.02L21.238,0H18.746L22.98-11.375h2.172L29.41,0H26.918Zm-3.477-1.9H25.5L24.066-8.5Zm9.375-4.211.07.977a2.951,2.951,0,0,1,2.43-1.133,2.453,2.453,0,0,1,2,.789A3.682,3.682,0,0,1,37.2-5.461V0H34.941V-5.419a1.47,1.47,0,0,0-.312-1.045,1.4,1.4,0,0,0-1.039-.325,1.553,1.553,0,0,0-1.43.814V0H29.9V-8.453Zm6.531,4.164a5.094,5.094,0,0,1,.887-3.148,2.877,2.877,0,0,1,2.426-1.172,2.589,2.589,0,0,1,2.039.922V-12h2.266V0H44.137l-.109-.9A2.657,2.657,0,0,1,41.855.156,2.869,2.869,0,0,1,39.461-1.02,5.258,5.258,0,0,1,38.559-4.289Zm2.258.161A3.355,3.355,0,0,0,41.23-2.3a1.348,1.348,0,0,0,1.2.636,1.51,1.51,0,0,0,1.477-.887V-5.9a1.489,1.489,0,0,0-1.461-.887Q40.816-6.789,40.816-4.128ZM52.676-6.336a6.134,6.134,0,0,0-.812-.062,1.654,1.654,0,0,0-1.68.867V0H47.926V-8.453h2.133l.063,1.008A2.092,2.092,0,0,1,52-8.609a2.366,2.366,0,0,1,.7.1ZM53.129-4.3a5.013,5.013,0,0,1,.484-2.242A3.546,3.546,0,0,1,55.008-8.07a4.069,4.069,0,0,1,2.113-.539,3.849,3.849,0,0,1,2.793,1.047,4.2,4.2,0,0,1,1.207,2.844l.016.578A4.418,4.418,0,0,1,60.051-1.02,3.775,3.775,0,0,1,57.137.156a3.793,3.793,0,0,1-2.918-1.172A4.5,4.5,0,0,1,53.129-4.2Zm2.258.16A3.16,3.16,0,0,0,55.84-2.3a1.5,1.5,0,0,0,1.3.638,1.5,1.5,0,0,0,1.281-.63,3.457,3.457,0,0,0,.461-2.015,3.128,3.128,0,0,0-.461-1.831,1.5,1.5,0,0,0-1.3-.649,1.474,1.474,0,0,0-1.281.646A3.516,3.516,0,0,0,55.387-4.144ZM64.91,0H62.645V-8.453H64.91Zm-2.4-10.641a1.112,1.112,0,0,1,.34-.836,1.277,1.277,0,0,1,.926-.328,1.28,1.28,0,0,1,.922.328,1.105,1.105,0,0,1,.344.836A1.108,1.108,0,0,1,64.7-9.8a1.283,1.283,0,0,1-.918.328,1.283,1.283,0,0,1-.918-.328A1.108,1.108,0,0,1,62.512-10.641Zm3.906,6.352A5.094,5.094,0,0,1,67.3-7.437,2.877,2.877,0,0,1,69.73-8.609a2.589,2.589,0,0,1,2.039.922V-12h2.266V0H72l-.109-.9A2.657,2.657,0,0,1,69.715.156,2.869,2.869,0,0,1,67.32-1.02,5.258,5.258,0,0,1,66.418-4.289Zm2.258.161A3.355,3.355,0,0,0,69.09-2.3a1.348,1.348,0,0,0,1.2.636,1.51,1.51,0,0,0,1.477-.887V-5.9a1.489,1.489,0,0,0-1.461-.887Q68.676-6.789,68.676-4.128Z" transform="translate(285.333 453.36)"/>
    <path id="Trazado_819823" data-name="Trazado 819823" d="M10,0H245a10,10,0,0,1,10,10V48a10,10,0,0,1-10,10H10A10,10,0,0,1,0,48V10A10,10,0,0,1,10,0Z" transform="translate(158.333 536.062)" fill="#99e5ef"/>
    <path id="Trazado_819824" data-name="Trazado 819824" d="M-75.547-4.945h-4.5v3.063h5.281V0h-7.625V-11.375h7.609v1.9h-5.266v2.711h4.5Zm6.586,2.609a.727.727,0,0,0-.41-.652,4.659,4.659,0,0,0-1.316-.426Q-73.7-4.047-73.7-5.977a2.323,2.323,0,0,1,.934-1.879,3.766,3.766,0,0,1,2.441-.754,4.053,4.053,0,0,1,2.574.758,2.388,2.388,0,0,1,.965,1.969h-2.258a1.092,1.092,0,0,0-.312-.8A1.322,1.322,0,0,0-70.336-7a1.351,1.351,0,0,0-.883.258.814.814,0,0,0-.312.656.7.7,0,0,0,.355.605,3.657,3.657,0,0,0,1.2.4,9.8,9.8,0,0,1,1.422.379A2.336,2.336,0,0,1-66.766-2.43a2.2,2.2,0,0,1-.992,1.871A4.28,4.28,0,0,1-70.32.156a4.47,4.47,0,0,1-1.887-.379A3.166,3.166,0,0,1-73.5-1.262a2.414,2.414,0,0,1-.469-1.426h2.141a1.179,1.179,0,0,0,.445.922,1.766,1.766,0,0,0,1.109.32,1.635,1.635,0,0,0,.98-.246A.766.766,0,0,0-68.961-2.336Zm6.352-8.2v2.078h1.445V-6.8h-1.445v4.219a1.007,1.007,0,0,0,.18.672.9.9,0,0,0,.688.2,3.6,3.6,0,0,0,.664-.055V-.047a4.648,4.648,0,0,1-1.367.2,2.156,2.156,0,0,1-2.422-2.4V-6.8H-66.1V-8.453h1.234v-2.078Zm7.453,4.2a6.134,6.134,0,0,0-.812-.062,1.654,1.654,0,0,0-1.68.867V0h-2.258V-8.453h2.133l.063,1.008a2.092,2.092,0,0,1,1.883-1.164,2.366,2.366,0,0,1,.7.1Zm6.148,5.477A2.831,2.831,0,0,1-51.32.156a2.67,2.67,0,0,1-2.074-.781,3.335,3.335,0,0,1-.73-2.289V-8.453h2.258v5.467q0,1.322,1.2,1.322a1.63,1.63,0,0,0,1.578-.8V-8.453h2.266V0h-2.125Zm7.406-.8a1.481,1.481,0,0,0,1.016-.344,1.2,1.2,0,0,0,.406-.914h2.117a2.9,2.9,0,0,1-.469,1.574A3.093,3.093,0,0,1-39.793-.238a3.949,3.949,0,0,1-1.77.395A3.67,3.67,0,0,1-44.422-1,4.56,4.56,0,0,1-45.469-4.18v-.148A4.508,4.508,0,0,1-44.43-7.445a3.627,3.627,0,0,1,2.852-1.164,3.555,3.555,0,0,1,2.543.9,3.2,3.2,0,0,1,.973,2.4H-40.18a1.551,1.551,0,0,0-.406-1.072,1.354,1.354,0,0,0-1.031-.412,1.36,1.36,0,0,0-1.191.575,3.333,3.333,0,0,0-.4,1.866v.235a3.375,3.375,0,0,0,.4,1.878A1.377,1.377,0,0,0-41.6-1.664Zm7.531-8.867v2.078h1.445V-6.8H-34.07v4.219a1.007,1.007,0,0,0,.18.672.9.9,0,0,0,.688.2,3.6,3.6,0,0,0,.664-.055V-.047a4.648,4.648,0,0,1-1.367.2,2.156,2.156,0,0,1-2.422-2.4V-6.8h-1.234V-8.453h1.234v-2.078ZM-26.3-.859A2.831,2.831,0,0,1-28.617.156a2.67,2.67,0,0,1-2.074-.781,3.335,3.335,0,0,1-.73-2.289V-8.453h2.258v5.467q0,1.322,1.2,1.322a1.63,1.63,0,0,0,1.578-.8V-8.453h2.266V0h-2.125Zm8.641-5.477a6.134,6.134,0,0,0-.812-.062,1.654,1.654,0,0,0-1.68.867V0h-2.258V-8.453h2.133l.063,1.008a2.092,2.092,0,0,1,1.883-1.164,2.366,2.366,0,0,1,.7.1ZM-11.914,0a2.507,2.507,0,0,1-.227-.758,2.732,2.732,0,0,1-2.133.914,3,3,0,0,1-2.059-.719,2.312,2.312,0,0,1-.816-1.812,2.389,2.389,0,0,1,1-2.062,4.915,4.915,0,0,1,2.879-.727h1.039v-.484a1.393,1.393,0,0,0-.3-.937,1.183,1.183,0,0,0-.949-.352,1.345,1.345,0,0,0-.895.273.929.929,0,0,0-.324.75h-2.258a2.268,2.268,0,0,1,.453-1.359,3,3,0,0,1,1.281-.98,4.669,4.669,0,0,1,1.859-.355,3.689,3.689,0,0,1,2.48.785,2.747,2.747,0,0,1,.918,2.207v3.664a4.041,4.041,0,0,0,.336,1.82V0Zm-1.867-1.57a1.945,1.945,0,0,0,.922-.223,1.462,1.462,0,0,0,.625-.6V-3.844h-.844q-1.7,0-1.8,1.172l-.008.133a.9.9,0,0,0,.3.7A1.153,1.153,0,0,0-13.781-1.57ZM-4.6-4.289a5.094,5.094,0,0,1,.887-3.148A2.877,2.877,0,0,1-1.289-8.609,2.589,2.589,0,0,1,.75-7.687V-12H3.016V0H.977L.867-.9A2.657,2.657,0,0,1-1.3.156,2.869,2.869,0,0,1-3.7-1.02,5.258,5.258,0,0,1-4.6-4.289Zm2.258.161A3.355,3.355,0,0,0-1.93-2.3a1.348,1.348,0,0,0,1.2.636A1.51,1.51,0,0,0,.75-2.551V-5.9A1.489,1.489,0,0,0-.711-6.789Q-2.344-6.789-2.344-4.128Zm11,4.285A4.15,4.15,0,0,1,5.629-.984,4.054,4.054,0,0,1,4.461-4.023v-.219A5.106,5.106,0,0,1,4.953-6.52,3.612,3.612,0,0,1,6.348-8.066a3.914,3.914,0,0,1,2.059-.543,3.508,3.508,0,0,1,2.73,1.094,4.444,4.444,0,0,1,1,3.1v.922H6.75a2.1,2.1,0,0,0,.66,1.328,2,2,0,0,0,1.395.5,2.437,2.437,0,0,0,2.039-.945l1.109,1.242A3.389,3.389,0,0,1,10.578-.246,4.511,4.511,0,0,1,8.656.156ZM8.4-6.789a1.411,1.411,0,0,0-1.09.455,2.357,2.357,0,0,0-.535,1.3H9.914v-.181a1.681,1.681,0,0,0-.406-1.165A1.456,1.456,0,0,0,8.4-6.789ZM15.8,0H13.531V-12H15.8ZM29.25-4.148a5.07,5.07,0,0,1-.887,3.129A2.843,2.843,0,0,1,25.969.156,2.633,2.633,0,0,1,23.9-.734V3.25H21.641v-11.7h2.094l.078.828a2.654,2.654,0,0,1,2.141-.984,2.862,2.862,0,0,1,2.43,1.156,5.207,5.207,0,0,1,.867,3.188Zm-2.258-.172a3.345,3.345,0,0,0-.418-1.826,1.36,1.36,0,0,0-1.215-.643,1.478,1.478,0,0,0-1.461.815V-2.5a1.5,1.5,0,0,0,1.477.839Q26.992-1.664,26.992-4.321ZM35.4-6.336a6.134,6.134,0,0,0-.812-.062,1.654,1.654,0,0,0-1.68.867V0H30.648V-8.453h2.133l.063,1.008a2.092,2.092,0,0,1,1.883-1.164,2.366,2.366,0,0,1,.7.1ZM35.852-4.3a5.013,5.013,0,0,1,.484-2.242A3.546,3.546,0,0,1,37.73-8.07a4.069,4.069,0,0,1,2.113-.539,3.849,3.849,0,0,1,2.793,1.047,4.2,4.2,0,0,1,1.207,2.844l.016.578A4.418,4.418,0,0,1,42.773-1.02,3.775,3.775,0,0,1,39.859.156a3.793,3.793,0,0,1-2.918-1.172A4.5,4.5,0,0,1,35.852-4.2Zm2.258.16A3.16,3.16,0,0,0,38.563-2.3a1.5,1.5,0,0,0,1.3.638,1.5,1.5,0,0,0,1.281-.63A3.457,3.457,0,0,0,41.6-4.309a3.128,3.128,0,0,0-.461-1.831,1.5,1.5,0,0,0-1.3-.649,1.474,1.474,0,0,0-1.281.646A3.516,3.516,0,0,0,38.109-4.144Zm10.18.949,1.563-5.258h2.422l-3.4,9.766-.187.445a2.577,2.577,0,0,1-2.5,1.656,3.552,3.552,0,0,1-1-.148V1.555l.344.008a1.857,1.857,0,0,0,.957-.2,1.283,1.283,0,0,0,.5-.648l.266-.7L44.289-8.453h2.43ZM56.953.156A4.15,4.15,0,0,1,53.926-.984a4.054,4.054,0,0,1-1.168-3.039v-.219A5.106,5.106,0,0,1,53.25-6.52a3.612,3.612,0,0,1,1.395-1.547A3.914,3.914,0,0,1,56.7-8.609a3.508,3.508,0,0,1,2.73,1.094,4.444,4.444,0,0,1,1,3.1v.922H55.047a2.1,2.1,0,0,0,.66,1.328,2,2,0,0,0,1.395.5,2.437,2.437,0,0,0,2.039-.945L60.25-1.367A3.389,3.389,0,0,1,58.875-.246,4.511,4.511,0,0,1,56.953.156ZM56.7-6.789a1.411,1.411,0,0,0-1.09.455,2.357,2.357,0,0,0-.535,1.3h3.141v-.181A1.681,1.681,0,0,0,57.8-6.377,1.456,1.456,0,0,0,56.7-6.789Zm8.531,5.125a1.481,1.481,0,0,0,1.016-.344,1.2,1.2,0,0,0,.406-.914h2.117A2.9,2.9,0,0,1,68.3-1.348,3.093,3.093,0,0,1,67.035-.238a3.949,3.949,0,0,1-1.77.395A3.67,3.67,0,0,1,62.406-1,4.56,4.56,0,0,1,61.359-4.18v-.148A4.508,4.508,0,0,1,62.4-7.445,3.627,3.627,0,0,1,65.25-8.609a3.555,3.555,0,0,1,2.543.9,3.2,3.2,0,0,1,.973,2.4H66.648a1.551,1.551,0,0,0-.406-1.072,1.354,1.354,0,0,0-1.031-.412,1.36,1.36,0,0,0-1.191.575,3.333,3.333,0,0,0-.4,1.866v.235a3.375,3.375,0,0,0,.4,1.878A1.377,1.377,0,0,0,65.227-1.664Zm7.531-8.867v2.078H74.2V-6.8H72.758v4.219a1.007,1.007,0,0,0,.18.672.9.9,0,0,0,.688.2,3.6,3.6,0,0,0,.664-.055V-.047a4.648,4.648,0,0,1-1.367.2,2.156,2.156,0,0,1-2.422-2.4V-6.8H69.266V-8.453H70.5v-2.078ZM74.875-4.3a5.013,5.013,0,0,1,.484-2.242A3.546,3.546,0,0,1,76.754-8.07a4.069,4.069,0,0,1,2.113-.539A3.849,3.849,0,0,1,81.66-7.562a4.2,4.2,0,0,1,1.207,2.844l.016.578A4.418,4.418,0,0,1,81.8-1.02,3.775,3.775,0,0,1,78.883.156a3.793,3.793,0,0,1-2.918-1.172A4.5,4.5,0,0,1,74.875-4.2Zm2.258.16A3.16,3.16,0,0,0,77.586-2.3a1.5,1.5,0,0,0,1.3.638,1.5,1.5,0,0,0,1.281-.63,3.457,3.457,0,0,0,.461-2.015,3.128,3.128,0,0,0-.461-1.831,1.5,1.5,0,0,0-1.3-.649,1.474,1.474,0,0,0-1.281.646A3.516,3.516,0,0,0,77.133-4.144Z" transform="translate(285.333 572.062)" fill="#12263f"/>
    <path id="Trazado_819838" data-name="Trazado 819838" d="M7.5,0,15,13H0Z" transform="translate(292.833 421.86) rotate(180)"/>
    <path id="Trazado_819800" data-name="Trazado 819800" d="M10,0H245a10,10,0,0,1,10,10V48a10,10,0,0,1-10,10H10A10,10,0,0,1,0,48V10A10,10,0,0,1,10,0Z" transform="translate(158.333 609.062)" fill="#99e5ef"/>
    <path id="Trazado_819801" data-name="Trazado 819801" d="M-64.289,0h-2.344V-11.375h2.344Zm4.1-8.453.07.977a2.951,2.951,0,0,1,2.43-1.133,2.453,2.453,0,0,1,2,.789,3.682,3.682,0,0,1,.672,2.359V0h-2.258V-5.419a1.47,1.47,0,0,0-.312-1.045,1.4,1.4,0,0,0-1.039-.325,1.553,1.553,0,0,0-1.43.814V0h-2.258V-8.453Zm9.586-2.078v2.078h1.445V-6.8H-50.6v4.219a1.007,1.007,0,0,0,.18.672.9.9,0,0,0,.688.2,3.6,3.6,0,0,0,.664-.055V-.047a4.648,4.648,0,0,1-1.367.2,2.156,2.156,0,0,1-2.422-2.4V-6.8h-1.234V-8.453h1.234v-2.078ZM-44.008.156A4.15,4.15,0,0,1-47.035-.984,4.054,4.054,0,0,1-48.2-4.023v-.219a5.106,5.106,0,0,1,.492-2.277,3.612,3.612,0,0,1,1.395-1.547,3.914,3.914,0,0,1,2.059-.543,3.508,3.508,0,0,1,2.73,1.094,4.444,4.444,0,0,1,1,3.1v.922h-5.383a2.1,2.1,0,0,0,.66,1.328,2,2,0,0,0,1.395.5,2.437,2.437,0,0,0,2.039-.945l1.109,1.242A3.389,3.389,0,0,1-42.086-.246,4.511,4.511,0,0,1-44.008.156Zm-.258-6.945a1.411,1.411,0,0,0-1.09.455,2.357,2.357,0,0,0-.535,1.3h3.141v-.181a1.681,1.681,0,0,0-.406-1.165A1.456,1.456,0,0,0-44.266-6.789Zm9.766.453a6.134,6.134,0,0,0-.812-.062,1.654,1.654,0,0,0-1.68.867V0H-39.25V-8.453h2.133l.063,1.008a2.092,2.092,0,0,1,1.883-1.164,2.366,2.366,0,0,1,.7.1ZM-32.641,0V-6.8H-33.9V-8.453h1.258v-.719a2.918,2.918,0,0,1,.816-2.207,3.162,3.162,0,0,1,2.285-.785,5.321,5.321,0,0,1,1.148.155l-.023,1.736a2.878,2.878,0,0,0-.687-.07q-1.273,0-1.273,1.205v.685h1.68V-6.8h-1.68V0Zm10.016,0a2.507,2.507,0,0,1-.227-.758,2.732,2.732,0,0,1-2.133.914,3,3,0,0,1-2.059-.719,2.312,2.312,0,0,1-.816-1.812,2.389,2.389,0,0,1,1-2.062,4.915,4.915,0,0,1,2.879-.727h1.039v-.484a1.393,1.393,0,0,0-.3-.937,1.183,1.183,0,0,0-.949-.352,1.345,1.345,0,0,0-.895.273.929.929,0,0,0-.324.75h-2.258a2.268,2.268,0,0,1,.453-1.359,3,3,0,0,1,1.281-.98,4.669,4.669,0,0,1,1.859-.355,3.689,3.689,0,0,1,2.48.785,2.747,2.747,0,0,1,.918,2.207v3.664a4.041,4.041,0,0,0,.336,1.82V0Zm-1.867-1.57a1.945,1.945,0,0,0,.922-.223,1.462,1.462,0,0,0,.625-.6V-3.844h-.844q-1.7,0-1.8,1.172l-.008.133a.9.9,0,0,0,.3.7A1.153,1.153,0,0,0-24.492-1.57Zm8.141-.25h4.133V0h-7.016V-1.375l3.977-5.258h-3.859v-1.82h6.773v1.33Zm9.18-2.469a5.094,5.094,0,0,1,.887-3.148A2.877,2.877,0,0,1-3.859-8.609a2.589,2.589,0,0,1,2.039.922V-12H.445V0H-1.594L-1.7-.9A2.657,2.657,0,0,1-3.875.156,2.869,2.869,0,0,1-6.27-1.02,5.258,5.258,0,0,1-7.172-4.289Zm2.258.161A3.355,3.355,0,0,0-4.5-2.3a1.348,1.348,0,0,0,1.2.636A1.51,1.51,0,0,0-1.82-2.551V-5.9a1.489,1.489,0,0,0-1.461-.887Q-4.914-6.789-4.914-4.128Zm11,4.285A4.15,4.15,0,0,1,3.059-.984,4.054,4.054,0,0,1,1.891-4.023v-.219A5.106,5.106,0,0,1,2.383-6.52,3.612,3.612,0,0,1,3.777-8.066a3.914,3.914,0,0,1,2.059-.543,3.508,3.508,0,0,1,2.73,1.094,4.444,4.444,0,0,1,1,3.1v.922H4.18a2.1,2.1,0,0,0,.66,1.328,2,2,0,0,0,1.395.5,2.437,2.437,0,0,0,2.039-.945L9.383-1.367A3.389,3.389,0,0,1,8.008-.246,4.511,4.511,0,0,1,6.086.156ZM5.828-6.789a1.411,1.411,0,0,0-1.09.455,2.357,2.357,0,0,0-.535,1.3H7.344v-.181a1.681,1.681,0,0,0-.406-1.165A1.456,1.456,0,0,0,5.828-6.789ZM19.891-.859A2.831,2.831,0,0,1,17.578.156,2.67,2.67,0,0,1,15.5-.625a3.335,3.335,0,0,1-.73-2.289V-8.453h2.258v5.467q0,1.322,1.2,1.322a1.63,1.63,0,0,0,1.578-.8V-8.453h2.266V0H19.953Zm8.469-1.477a.727.727,0,0,0-.41-.652,4.659,4.659,0,0,0-1.316-.426q-3.016-.633-3.016-2.562a2.323,2.323,0,0,1,.934-1.879,3.766,3.766,0,0,1,2.441-.754,4.053,4.053,0,0,1,2.574.758,2.388,2.388,0,0,1,.965,1.969H28.273a1.092,1.092,0,0,0-.312-.8A1.322,1.322,0,0,0,26.984-7a1.351,1.351,0,0,0-.883.258.814.814,0,0,0-.312.656.7.7,0,0,0,.355.605,3.657,3.657,0,0,0,1.2.4,9.8,9.8,0,0,1,1.422.379A2.336,2.336,0,0,1,30.555-2.43a2.2,2.2,0,0,1-.992,1.871A4.28,4.28,0,0,1,27,.156a4.47,4.47,0,0,1-1.887-.379A3.166,3.166,0,0,1,23.82-1.262a2.414,2.414,0,0,1-.469-1.426h2.141a1.179,1.179,0,0,0,.445.922,1.766,1.766,0,0,0,1.109.32,1.635,1.635,0,0,0,.98-.246A.766.766,0,0,0,28.359-2.336ZM37.07-.859A2.831,2.831,0,0,1,34.758.156a2.67,2.67,0,0,1-2.074-.781,3.335,3.335,0,0,1-.73-2.289V-8.453h2.258v5.467q0,1.322,1.2,1.322a1.63,1.63,0,0,0,1.578-.8V-8.453h2.266V0H37.133ZM45.859,0a2.507,2.507,0,0,1-.227-.758A2.732,2.732,0,0,1,43.5.156a3,3,0,0,1-2.059-.719,2.312,2.312,0,0,1-.816-1.812,2.389,2.389,0,0,1,1-2.062A4.915,4.915,0,0,1,44.5-5.164h1.039v-.484a1.393,1.393,0,0,0-.3-.937,1.183,1.183,0,0,0-.949-.352,1.345,1.345,0,0,0-.895.273.929.929,0,0,0-.324.75H40.813a2.268,2.268,0,0,1,.453-1.359,3,3,0,0,1,1.281-.98,4.669,4.669,0,0,1,1.859-.355,3.689,3.689,0,0,1,2.48.785A2.747,2.747,0,0,1,47.8-5.617v3.664a4.041,4.041,0,0,0,.336,1.82V0ZM43.992-1.57a1.945,1.945,0,0,0,.922-.223,1.462,1.462,0,0,0,.625-.6V-3.844H44.7q-1.7,0-1.8,1.172l-.008.133a.9.9,0,0,0,.3.7A1.153,1.153,0,0,0,43.992-1.57Zm10.3-4.766a6.134,6.134,0,0,0-.812-.062,1.654,1.654,0,0,0-1.68.867V0H49.539V-8.453h2.133l.063,1.008a2.092,2.092,0,0,1,1.883-1.164,2.366,2.366,0,0,1,.7.1ZM57.758,0H55.492V-8.453h2.266Zm-2.4-10.641a1.112,1.112,0,0,1,.34-.836,1.277,1.277,0,0,1,.926-.328,1.28,1.28,0,0,1,.922.328,1.105,1.105,0,0,1,.344.836,1.108,1.108,0,0,1-.348.844,1.283,1.283,0,0,1-.918.328,1.283,1.283,0,0,1-.918-.328A1.108,1.108,0,0,1,55.359-10.641ZM59.266-4.3a5.013,5.013,0,0,1,.484-2.242A3.546,3.546,0,0,1,61.145-8.07a4.069,4.069,0,0,1,2.113-.539,3.849,3.849,0,0,1,2.793,1.047,4.2,4.2,0,0,1,1.207,2.844l.016.578A4.418,4.418,0,0,1,66.188-1.02,3.775,3.775,0,0,1,63.273.156a3.793,3.793,0,0,1-2.918-1.172A4.5,4.5,0,0,1,59.266-4.2Zm2.258.16A3.16,3.16,0,0,0,61.977-2.3a1.5,1.5,0,0,0,1.3.638,1.5,1.5,0,0,0,1.281-.63,3.457,3.457,0,0,0,.461-2.015,3.128,3.128,0,0,0-.461-1.831,1.5,1.5,0,0,0-1.3-.649,1.474,1.474,0,0,0-1.281.646A3.516,3.516,0,0,0,61.523-4.144Z" transform="translate(285.333 645.062)" fill="#12263f"/>
    <path id="Trazado_819802" data-name="Trazado 819802" d="M10,0H245a10,10,0,0,1,10,10V48a10,10,0,0,1-10,10H10A10,10,0,0,1,0,48V10A10,10,0,0,1,10,0Z" transform="translate(158.333 682.062)" fill="#99e5ef"/>
    <path id="Trazado_819803" data-name="Trazado 819803" d="M-32.082,0h-2.344l-4.562-7.484V0h-2.344V-11.375h2.344l4.57,7.5v-7.5h2.336Zm6.8,0a2.507,2.507,0,0,1-.227-.758,2.732,2.732,0,0,1-2.133.914A3,3,0,0,1-29.7-.562a2.312,2.312,0,0,1-.816-1.812,2.389,2.389,0,0,1,1-2.062,4.915,4.915,0,0,1,2.879-.727h1.039v-.484a1.393,1.393,0,0,0-.3-.937,1.183,1.183,0,0,0-.949-.352,1.345,1.345,0,0,0-.895.273.929.929,0,0,0-.324.75h-2.258a2.268,2.268,0,0,1,.453-1.359,3,3,0,0,1,1.281-.98,4.669,4.669,0,0,1,1.859-.355,3.689,3.689,0,0,1,2.48.785,2.747,2.747,0,0,1,.918,2.207v3.664A4.041,4.041,0,0,0-23-.133V0Zm-1.867-1.57a1.945,1.945,0,0,0,.922-.223,1.462,1.462,0,0,0,.625-.6V-3.844h-.844q-1.7,0-1.8,1.172l-.008.133a.9.9,0,0,0,.3.7A1.153,1.153,0,0,0-27.152-1.57Zm8.594-1.187,1.57-5.7h2.359L-17.48,0h-2.156l-2.852-8.453h2.359ZM-9.848.156A4.15,4.15,0,0,1-12.875-.984a4.054,4.054,0,0,1-1.168-3.039v-.219a5.106,5.106,0,0,1,.492-2.277,3.612,3.612,0,0,1,1.395-1.547A3.914,3.914,0,0,1-10.1-8.609a3.508,3.508,0,0,1,2.73,1.094,4.444,4.444,0,0,1,1,3.1v.922h-5.383a2.1,2.1,0,0,0,.66,1.328,2,2,0,0,0,1.395.5A2.437,2.437,0,0,0-7.66-2.609l1.109,1.242A3.389,3.389,0,0,1-7.926-.246,4.511,4.511,0,0,1-9.848.156Zm-.258-6.945a1.411,1.411,0,0,0-1.09.455,2.357,2.357,0,0,0-.535,1.3H-8.59v-.181A1.681,1.681,0,0,0-9-6.377,1.456,1.456,0,0,0-10.105-6.789Zm4.688,2.5a4.954,4.954,0,0,1,.926-3.133A3,3,0,0,1-2-8.609a2.631,2.631,0,0,1,2.164.953l.094-.8H2.309V-.281a3.613,3.613,0,0,1-.5,1.93A3.236,3.236,0,0,1,.387,2.9a4.985,4.985,0,0,1-2.141.43,4.635,4.635,0,0,1-1.812-.371A3.217,3.217,0,0,1-4.9,2l1-1.375a2.645,2.645,0,0,0,2.047.945,1.936,1.936,0,0,0,1.4-.48,1.8,1.8,0,0,0,.5-1.363V-.727A2.612,2.612,0,0,1-2.012.156,2.992,2.992,0,0,1-4.477-1.035,4.953,4.953,0,0,1-5.418-4.2Zm2.258.161A3.1,3.1,0,0,0-2.7-2.319a1.465,1.465,0,0,0,1.266.655A1.567,1.567,0,0,0,.043-2.441V-6.012a1.563,1.563,0,0,0-1.461-.777A1.474,1.474,0,0,0-2.7-6.122,3.5,3.5,0,0,0-3.16-4.128ZM8.941,0a2.507,2.507,0,0,1-.227-.758A2.732,2.732,0,0,1,6.582.156,3,3,0,0,1,4.523-.562a2.312,2.312,0,0,1-.816-1.812,2.389,2.389,0,0,1,1-2.062,4.915,4.915,0,0,1,2.879-.727H8.621v-.484a1.393,1.393,0,0,0-.3-.937,1.183,1.183,0,0,0-.949-.352,1.345,1.345,0,0,0-.895.273.929.929,0,0,0-.324.75H3.895a2.268,2.268,0,0,1,.453-1.359,3,3,0,0,1,1.281-.98,4.669,4.669,0,0,1,1.859-.355,3.689,3.689,0,0,1,2.48.785,2.747,2.747,0,0,1,.918,2.207v3.664a4.041,4.041,0,0,0,.336,1.82V0ZM7.074-1.57A1.945,1.945,0,0,0,8-1.793a1.462,1.462,0,0,0,.625-.6V-3.844H7.777q-1.7,0-1.8,1.172l-.008.133a.9.9,0,0,0,.3.7A1.153,1.153,0,0,0,7.074-1.57Zm9.063-.094a1.481,1.481,0,0,0,1.016-.344,1.2,1.2,0,0,0,.406-.914h2.117a2.9,2.9,0,0,1-.469,1.574A3.093,3.093,0,0,1,17.945-.238a3.949,3.949,0,0,1-1.77.395A3.67,3.67,0,0,1,13.316-1,4.56,4.56,0,0,1,12.27-4.18v-.148a4.508,4.508,0,0,1,1.039-3.117A3.627,3.627,0,0,1,16.16-8.609a3.555,3.555,0,0,1,2.543.9,3.2,3.2,0,0,1,.973,2.4H17.559a1.551,1.551,0,0,0-.406-1.072,1.354,1.354,0,0,0-1.031-.412,1.36,1.36,0,0,0-1.191.575,3.333,3.333,0,0,0-.4,1.866v.235a3.375,3.375,0,0,0,.4,1.878A1.377,1.377,0,0,0,16.137-1.664ZM23.348,0H21.082V-8.453h2.266Zm-2.4-10.641a1.112,1.112,0,0,1,.34-.836,1.277,1.277,0,0,1,.926-.328,1.28,1.28,0,0,1,.922.328,1.105,1.105,0,0,1,.344.836,1.108,1.108,0,0,1-.348.844,1.283,1.283,0,0,1-.918.328A1.283,1.283,0,0,1,21.3-9.8,1.108,1.108,0,0,1,20.949-10.641ZM24.855-4.3a5.013,5.013,0,0,1,.484-2.242A3.546,3.546,0,0,1,26.734-8.07a4.069,4.069,0,0,1,2.113-.539,3.849,3.849,0,0,1,2.793,1.047,4.2,4.2,0,0,1,1.207,2.844l.016.578A4.418,4.418,0,0,1,31.777-1.02,3.775,3.775,0,0,1,28.863.156a3.793,3.793,0,0,1-2.918-1.172A4.5,4.5,0,0,1,24.855-4.2Zm2.258.16A3.16,3.16,0,0,0,27.566-2.3a1.5,1.5,0,0,0,1.3.638,1.5,1.5,0,0,0,1.281-.63,3.457,3.457,0,0,0,.461-2.015,3.128,3.128,0,0,0-.461-1.831,1.5,1.5,0,0,0-1.3-.649,1.474,1.474,0,0,0-1.281.646A3.516,3.516,0,0,0,27.113-4.144ZM29.293-12h2.461L29.59-9.578H27.754Zm7.039,3.547.07.977a2.951,2.951,0,0,1,2.43-1.133,2.453,2.453,0,0,1,2,.789A3.682,3.682,0,0,1,41.5-5.461V0H39.246V-5.419a1.47,1.47,0,0,0-.312-1.045,1.4,1.4,0,0,0-1.039-.325,1.553,1.553,0,0,0-1.43.814V0H34.207V-8.453Z" transform="translate(285.333 718.062)" fill="#12263f"/>
    <path id="Trazado_819804" data-name="Trazado 819804" d="M10,0H245a10,10,0,0,1,10,10V48a10,10,0,0,1-10,10H10A10,10,0,0,1,0,48V10A10,10,0,0,1,10,0Z" transform="translate(158.333 755.062)" fill="#99e5ef"/>
    <path id="Trazado_819805" data-name="Trazado 819805" d="M-53.766,0V-11.375h3.984a5.232,5.232,0,0,1,3.141.793,2.712,2.712,0,0,1,1.07,2.324A2.57,2.57,0,0,1-46-6.785a2.482,2.482,0,0,1-1.2.934,2.4,2.4,0,0,1,1.379.883,2.61,2.61,0,0,1,.5,1.625A3,3,0,0,1-46.359-.859,4.713,4.713,0,0,1-49.344,0Zm2.344-4.953v3.07h2.008a1.938,1.938,0,0,0,1.293-.395,1.353,1.353,0,0,0,.465-1.09,1.428,1.428,0,0,0-1.617-1.586Zm0-1.656h1.734q1.773-.031,1.773-1.414a1.307,1.307,0,0,0-.449-1.113,2.363,2.363,0,0,0-1.418-.34h-1.641ZM-38.8,0a2.507,2.507,0,0,1-.227-.758,2.732,2.732,0,0,1-2.133.914,3,3,0,0,1-2.059-.719,2.312,2.312,0,0,1-.816-1.812,2.389,2.389,0,0,1,1-2.062,4.915,4.915,0,0,1,2.879-.727h1.039v-.484a1.393,1.393,0,0,0-.3-.937,1.183,1.183,0,0,0-.949-.352,1.345,1.345,0,0,0-.895.273.929.929,0,0,0-.324.75h-2.258A2.268,2.268,0,0,1-43.4-7.273a3,3,0,0,1,1.281-.98,4.669,4.669,0,0,1,1.859-.355,3.689,3.689,0,0,1,2.48.785,2.747,2.747,0,0,1,.918,2.207v3.664a4.041,4.041,0,0,0,.336,1.82V0Zm-1.867-1.57a1.945,1.945,0,0,0,.922-.223,1.462,1.462,0,0,0,.625-.6V-3.844h-.844q-1.7,0-1.8,1.172l-.008.133a.9.9,0,0,0,.3.7A1.153,1.153,0,0,0-40.672-1.57Zm10.125-.766a.727.727,0,0,0-.41-.652,4.659,4.659,0,0,0-1.316-.426q-3.016-.633-3.016-2.562a2.323,2.323,0,0,1,.934-1.879,3.766,3.766,0,0,1,2.441-.754,4.053,4.053,0,0,1,2.574.758,2.388,2.388,0,0,1,.965,1.969h-2.258a1.092,1.092,0,0,0-.312-.8A1.322,1.322,0,0,0-31.922-7a1.351,1.351,0,0,0-.883.258.814.814,0,0,0-.312.656.7.7,0,0,0,.355.605,3.657,3.657,0,0,0,1.2.4,9.8,9.8,0,0,1,1.422.379A2.336,2.336,0,0,1-28.352-2.43a2.2,2.2,0,0,1-.992,1.871,4.28,4.28,0,0,1-2.562.715,4.47,4.47,0,0,1-1.887-.379,3.166,3.166,0,0,1-1.293-1.039,2.414,2.414,0,0,1-.469-1.426h2.141a1.179,1.179,0,0,0,.445.922,1.766,1.766,0,0,0,1.109.32,1.635,1.635,0,0,0,.98-.246A.766.766,0,0,0-30.547-2.336ZM-23.008.156A4.15,4.15,0,0,1-26.035-.984,4.054,4.054,0,0,1-27.2-4.023v-.219a5.106,5.106,0,0,1,.492-2.277,3.612,3.612,0,0,1,1.395-1.547,3.914,3.914,0,0,1,2.059-.543,3.508,3.508,0,0,1,2.73,1.094,4.444,4.444,0,0,1,1,3.1v.922h-5.383a2.1,2.1,0,0,0,.66,1.328,2,2,0,0,0,1.395.5,2.437,2.437,0,0,0,2.039-.945l1.109,1.242A3.389,3.389,0,0,1-21.086-.246,4.511,4.511,0,0,1-23.008.156Zm-.258-6.945a1.411,1.411,0,0,0-1.09.455,2.357,2.357,0,0,0-.535,1.3h3.141v-.181a1.681,1.681,0,0,0-.406-1.165A1.456,1.456,0,0,0-23.266-6.789Zm9.594,4.453a.727.727,0,0,0-.41-.652A4.659,4.659,0,0,0-15.4-3.414q-3.016-.633-3.016-2.562a2.323,2.323,0,0,1,.934-1.879,3.766,3.766,0,0,1,2.441-.754,4.053,4.053,0,0,1,2.574.758A2.388,2.388,0,0,1-11.5-5.883h-2.258a1.092,1.092,0,0,0-.312-.8A1.322,1.322,0,0,0-15.047-7a1.351,1.351,0,0,0-.883.258.814.814,0,0,0-.312.656.7.7,0,0,0,.355.605,3.657,3.657,0,0,0,1.2.4,9.8,9.8,0,0,1,1.422.379A2.336,2.336,0,0,1-11.477-2.43a2.2,2.2,0,0,1-.992,1.871,4.28,4.28,0,0,1-2.562.715,4.47,4.47,0,0,1-1.887-.379,3.166,3.166,0,0,1-1.293-1.039,2.414,2.414,0,0,1-.469-1.426h2.141a1.179,1.179,0,0,0,.445.922,1.766,1.766,0,0,0,1.109.32A1.635,1.635,0,0,0-14-1.691.766.766,0,0,0-13.672-2.336Zm7.281-1.953A5.094,5.094,0,0,1-5.5-7.437,2.877,2.877,0,0,1-3.078-8.609a2.589,2.589,0,0,1,2.039.922V-12H1.227V0H-.812L-.922-.9A2.657,2.657,0,0,1-3.094.156,2.869,2.869,0,0,1-5.488-1.02,5.258,5.258,0,0,1-6.391-4.289Zm2.258.161A3.355,3.355,0,0,0-3.719-2.3a1.348,1.348,0,0,0,1.2.636,1.51,1.51,0,0,0,1.477-.887V-5.9A1.489,1.489,0,0,0-2.5-6.789Q-4.133-6.789-4.133-4.128Zm11,4.285A4.15,4.15,0,0,1,3.84-.984,4.054,4.054,0,0,1,2.672-4.023v-.219A5.106,5.106,0,0,1,3.164-6.52,3.612,3.612,0,0,1,4.559-8.066a3.914,3.914,0,0,1,2.059-.543,3.508,3.508,0,0,1,2.73,1.094,4.444,4.444,0,0,1,1,3.1v.922H4.961a2.1,2.1,0,0,0,.66,1.328,2,2,0,0,0,1.395.5,2.437,2.437,0,0,0,2.039-.945l1.109,1.242A3.389,3.389,0,0,1,8.789-.246,4.511,4.511,0,0,1,6.867.156ZM6.609-6.789a1.411,1.411,0,0,0-1.09.455,2.357,2.357,0,0,0-.535,1.3H8.125v-.181a1.681,1.681,0,0,0-.406-1.165A1.456,1.456,0,0,0,6.609-6.789Zm8.648,2.5a5.094,5.094,0,0,1,.887-3.148A2.877,2.877,0,0,1,18.57-8.609a2.589,2.589,0,0,1,2.039.922V-12h2.266V0H20.836l-.109-.9A2.657,2.657,0,0,1,18.555.156,2.869,2.869,0,0,1,16.16-1.02,5.258,5.258,0,0,1,15.258-4.289Zm2.258.161A3.355,3.355,0,0,0,17.93-2.3a1.348,1.348,0,0,0,1.2.636,1.51,1.51,0,0,0,1.477-.887V-5.9a1.489,1.489,0,0,0-1.461-.887Q17.516-6.789,17.516-4.128ZM29.523,0A2.507,2.507,0,0,1,29.3-.758a2.732,2.732,0,0,1-2.133.914,3,3,0,0,1-2.059-.719,2.312,2.312,0,0,1-.816-1.812,2.389,2.389,0,0,1,1-2.062,4.915,4.915,0,0,1,2.879-.727H29.2v-.484a1.393,1.393,0,0,0-.3-.937,1.183,1.183,0,0,0-.949-.352,1.345,1.345,0,0,0-.895.273.929.929,0,0,0-.324.75H24.477a2.268,2.268,0,0,1,.453-1.359,3,3,0,0,1,1.281-.98,4.669,4.669,0,0,1,1.859-.355,3.689,3.689,0,0,1,2.48.785,2.747,2.747,0,0,1,.918,2.207v3.664A4.041,4.041,0,0,0,31.8-.133V0ZM27.656-1.57a1.945,1.945,0,0,0,.922-.223,1.462,1.462,0,0,0,.625-.6V-3.844h-.844q-1.7,0-1.8,1.172l-.008.133a.9.9,0,0,0,.3.7A1.153,1.153,0,0,0,27.656-1.57Zm8.25-8.961v2.078h1.445V-6.8H35.906v4.219a1.007,1.007,0,0,0,.18.672.9.9,0,0,0,.688.2,3.6,3.6,0,0,0,.664-.055V-.047a4.648,4.648,0,0,1-1.367.2,2.156,2.156,0,0,1-2.422-2.4V-6.8H32.414V-8.453h1.234v-2.078ZM38.023-4.3a5.013,5.013,0,0,1,.484-2.242A3.546,3.546,0,0,1,39.9-8.07a4.069,4.069,0,0,1,2.113-.539,3.849,3.849,0,0,1,2.793,1.047,4.2,4.2,0,0,1,1.207,2.844l.016.578A4.418,4.418,0,0,1,44.945-1.02,3.775,3.775,0,0,1,42.031.156a3.793,3.793,0,0,1-2.918-1.172A4.5,4.5,0,0,1,38.023-4.2Zm2.258.16A3.16,3.16,0,0,0,40.734-2.3a1.5,1.5,0,0,0,1.3.638,1.5,1.5,0,0,0,1.281-.63,3.457,3.457,0,0,0,.461-2.015,3.128,3.128,0,0,0-.461-1.831,1.5,1.5,0,0,0-1.3-.649,1.474,1.474,0,0,0-1.281.646A3.516,3.516,0,0,0,40.281-4.144ZM52-2.336a.727.727,0,0,0-.41-.652,4.659,4.659,0,0,0-1.316-.426q-3.016-.633-3.016-2.562a2.323,2.323,0,0,1,.934-1.879,3.766,3.766,0,0,1,2.441-.754,4.053,4.053,0,0,1,2.574.758,2.388,2.388,0,0,1,.965,1.969H51.914a1.092,1.092,0,0,0-.312-.8A1.322,1.322,0,0,0,50.625-7a1.351,1.351,0,0,0-.883.258.814.814,0,0,0-.312.656.7.7,0,0,0,.355.605,3.657,3.657,0,0,0,1.2.4,9.8,9.8,0,0,1,1.422.379A2.336,2.336,0,0,1,54.2-2.43,2.2,2.2,0,0,1,53.2-.559a4.28,4.28,0,0,1-2.562.715,4.47,4.47,0,0,1-1.887-.379,3.166,3.166,0,0,1-1.293-1.039,2.414,2.414,0,0,1-.469-1.426h2.141a1.179,1.179,0,0,0,.445.922,1.766,1.766,0,0,0,1.109.32,1.635,1.635,0,0,0,.98-.246A.766.766,0,0,0,52-2.336Z" transform="translate(285.333 791.062)" fill="#12263f"/>
    <path id="Trazado_819806" data-name="Trazado 819806" d="M10,0H245a10,10,0,0,1,10,10V48a10,10,0,0,1-10,10H10A10,10,0,0,1,0,48V10A10,10,0,0,1,10,0Z" transform="translate(158.333 828.062)" fill="#99e5ef"/>
    <path id="Trazado_819807" data-name="Trazado 819807" d="M-36.52-11.375l2.922,8.25,2.906-8.25h3.078V0h-2.352V-3.109l.234-5.367L-32.8,0H-34.41l-3.062-8.469.234,5.359V0h-2.344V-11.375ZM-20.652-.859A2.831,2.831,0,0,1-22.965.156a2.67,2.67,0,0,1-2.074-.781,3.335,3.335,0,0,1-.73-2.289V-8.453h2.258v5.467q0,1.322,1.2,1.322a1.63,1.63,0,0,0,1.578-.8V-8.453h2.266V0H-20.59ZM-14.379,0h-2.266V-12h2.266Zm4.563-10.531v2.078h1.445V-6.8H-9.816v4.219a1.007,1.007,0,0,0,.18.672.9.9,0,0,0,.688.2,3.6,3.6,0,0,0,.664-.055V-.047a4.648,4.648,0,0,1-1.367.2,2.156,2.156,0,0,1-2.422-2.4V-6.8h-1.234V-8.453h1.234v-2.078ZM-4.73,0H-7V-8.453H-4.73Zm-2.4-10.641a1.112,1.112,0,0,1,.34-.836,1.277,1.277,0,0,1,.926-.328,1.28,1.28,0,0,1,.922.328,1.105,1.105,0,0,1,.344.836,1.108,1.108,0,0,1-.348.844,1.283,1.283,0,0,1-.918.328A1.283,1.283,0,0,1-6.781-9.8,1.108,1.108,0,0,1-7.129-10.641ZM-.754-8.453l.07.945a2.971,2.971,0,0,1,2.43-1.1A2.255,2.255,0,0,1,3.988-7.32,2.9,2.9,0,0,1,6.527-8.609a2.521,2.521,0,0,1,2.047.8A3.681,3.681,0,0,1,9.246-5.4V0H6.98V-5.4A1.616,1.616,0,0,0,6.7-6.456a1.245,1.245,0,0,0-.992-.333A1.409,1.409,0,0,0,4.3-5.818L4.309,0H2.051V-5.4A1.6,1.6,0,0,0,1.762-6.46a1.257,1.257,0,0,0-.984-.329,1.463,1.463,0,0,0-1.391.8V0H-2.871V-8.453ZM14.871.156A4.15,4.15,0,0,1,11.844-.984a4.054,4.054,0,0,1-1.168-3.039v-.219a5.106,5.106,0,0,1,.492-2.277,3.612,3.612,0,0,1,1.395-1.547,3.914,3.914,0,0,1,2.059-.543,3.508,3.508,0,0,1,2.73,1.094,4.444,4.444,0,0,1,1,3.1v.922H12.965a2.1,2.1,0,0,0,.66,1.328,2,2,0,0,0,1.395.5,2.437,2.437,0,0,0,2.039-.945l1.109,1.242A3.389,3.389,0,0,1,16.793-.246,4.511,4.511,0,0,1,14.871.156Zm-.258-6.945a1.411,1.411,0,0,0-1.09.455,2.357,2.357,0,0,0-.535,1.3h3.141v-.181a1.681,1.681,0,0,0-.406-1.165A1.456,1.456,0,0,0,14.613-6.789Zm4.664,2.5a5.094,5.094,0,0,1,.887-3.148A2.877,2.877,0,0,1,22.59-8.609a2.589,2.589,0,0,1,2.039.922V-12h2.266V0H24.855l-.109-.9A2.657,2.657,0,0,1,22.574.156,2.869,2.869,0,0,1,20.18-1.02,5.258,5.258,0,0,1,19.277-4.289Zm2.258.161A3.355,3.355,0,0,0,21.949-2.3a1.348,1.348,0,0,0,1.2.636,1.51,1.51,0,0,0,1.477-.887V-5.9a1.489,1.489,0,0,0-1.461-.887Q21.535-6.789,21.535-4.128ZM31.027,0H28.762V-8.453h2.266Zm-2.4-10.641a1.112,1.112,0,0,1,.34-.836,1.277,1.277,0,0,1,.926-.328,1.28,1.28,0,0,1,.922.328,1.105,1.105,0,0,1,.344.836,1.108,1.108,0,0,1-.348.844,1.283,1.283,0,0,1-.918.328,1.283,1.283,0,0,1-.918-.328A1.108,1.108,0,0,1,28.629-10.641ZM37.785,0a2.507,2.507,0,0,1-.227-.758,2.732,2.732,0,0,1-2.133.914,3,3,0,0,1-2.059-.719,2.312,2.312,0,0,1-.816-1.812,2.389,2.389,0,0,1,1-2.062,4.915,4.915,0,0,1,2.879-.727h1.039v-.484a1.393,1.393,0,0,0-.3-.937,1.183,1.183,0,0,0-.949-.352,1.345,1.345,0,0,0-.895.273.929.929,0,0,0-.324.75H32.738a2.268,2.268,0,0,1,.453-1.359,3,3,0,0,1,1.281-.98,4.669,4.669,0,0,1,1.859-.355,3.689,3.689,0,0,1,2.48.785,2.747,2.747,0,0,1,.918,2.207v3.664a4.041,4.041,0,0,0,.336,1.82V0ZM35.918-1.57a1.945,1.945,0,0,0,.922-.223,1.462,1.462,0,0,0,.625-.6V-3.844h-.844q-1.7,0-1.8,1.172l-.008.133a.9.9,0,0,0,.3.7A1.153,1.153,0,0,0,35.918-1.57Z" transform="translate(285.333 864.062)" fill="#12263f"/>
    <path id="Trazado_819808" data-name="Trazado 819808" d="M10,0H245a10,10,0,0,1,10,10V85.188a10,10,0,0,1-10,10H10a10,10,0,0,1-10-10V10A10,10,0,0,1,10,0Z" transform="translate(607.333 638.413)" fill="#fff1c6"/>
    <path id="Trazado_819809" data-name="Trazado 819809" d="M-88.652-3.789A4.025,4.025,0,0,1-90.008-.9,4.76,4.76,0,0,1-93.23.156a4.28,4.28,0,0,1-3.441-1.473,6.038,6.038,0,0,1-1.254-4.043v-.7a6.819,6.819,0,0,1,.578-2.891A4.332,4.332,0,0,1-95.7-10.863a4.629,4.629,0,0,1,2.5-.668,4.637,4.637,0,0,1,3.172,1.055,4.326,4.326,0,0,1,1.391,2.961H-90.98a2.376,2.376,0,0,0-.613-1.6,2.271,2.271,0,0,0-1.605-.5,1.991,1.991,0,0,0-1.754.84,4.707,4.707,0,0,0-.6,2.605V-5.3a5.038,5.038,0,0,0,.559,2.7,1.954,1.954,0,0,0,1.762.852,2.314,2.314,0,0,0,1.621-.5A2.241,2.241,0,0,0-91-3.789Zm1.039-.516a5.013,5.013,0,0,1,.484-2.242A3.546,3.546,0,0,1-85.734-8.07a4.069,4.069,0,0,1,2.113-.539,3.849,3.849,0,0,1,2.793,1.047,4.2,4.2,0,0,1,1.207,2.844l.016.578A4.418,4.418,0,0,1-80.691-1.02,3.775,3.775,0,0,1-83.605.156a3.793,3.793,0,0,1-2.918-1.172A4.5,4.5,0,0,1-87.613-4.2Zm2.258.16A3.16,3.16,0,0,0-84.9-2.3a1.5,1.5,0,0,0,1.3.638,1.5,1.5,0,0,0,1.281-.63,3.457,3.457,0,0,0,.461-2.015,3.128,3.128,0,0,0-.461-1.831,1.5,1.5,0,0,0-1.3-.649,1.474,1.474,0,0,0-1.281.646A3.516,3.516,0,0,0-85.355-4.144ZM-76.1-8.453l.07.945a2.971,2.971,0,0,1,2.43-1.1A2.255,2.255,0,0,1-71.355-7.32a2.9,2.9,0,0,1,2.539-1.289,2.521,2.521,0,0,1,2.047.8A3.681,3.681,0,0,1-66.1-5.4V0h-2.266V-5.4a1.616,1.616,0,0,0-.281-1.053,1.245,1.245,0,0,0-.992-.333,1.409,1.409,0,0,0-1.406.971L-71.035,0h-2.258V-5.4a1.6,1.6,0,0,0-.289-1.065,1.257,1.257,0,0,0-.984-.329,1.463,1.463,0,0,0-1.391.8V0h-2.258V-8.453Zm19.344,4.3a5.07,5.07,0,0,1-.887,3.129A2.843,2.843,0,0,1-60.035.156a2.633,2.633,0,0,1-2.07-.891V3.25h-2.258v-11.7h2.094l.078.828a2.654,2.654,0,0,1,2.141-.984,2.862,2.862,0,0,1,2.43,1.156,5.207,5.207,0,0,1,.867,3.188Zm-2.258-.172a3.345,3.345,0,0,0-.418-1.826,1.36,1.36,0,0,0-1.215-.643,1.478,1.478,0,0,0-1.461.815V-2.5a1.5,1.5,0,0,0,1.477.839Q-59.012-1.664-59.012-4.321Zm3.3.016a5.013,5.013,0,0,1,.484-2.242A3.546,3.546,0,0,1-53.828-8.07a4.069,4.069,0,0,1,2.113-.539,3.849,3.849,0,0,1,2.793,1.047,4.2,4.2,0,0,1,1.207,2.844l.016.578A4.418,4.418,0,0,1-48.785-1.02,3.775,3.775,0,0,1-51.7.156a3.793,3.793,0,0,1-2.918-1.172A4.5,4.5,0,0,1-55.707-4.2Zm2.258.16A3.16,3.16,0,0,0-53-2.3a1.5,1.5,0,0,0,1.3.638,1.5,1.5,0,0,0,1.281-.63,3.457,3.457,0,0,0,.461-2.015,3.128,3.128,0,0,0-.461-1.831,1.5,1.5,0,0,0-1.3-.649A1.474,1.474,0,0,0-53-6.144,3.516,3.516,0,0,0-53.449-4.144Zm9.219-4.309.07.977a2.951,2.951,0,0,1,2.43-1.133,2.453,2.453,0,0,1,2,.789,3.682,3.682,0,0,1,.672,2.359V0h-2.258V-5.419a1.47,1.47,0,0,0-.312-1.045,1.4,1.4,0,0,0-1.039-.325,1.553,1.553,0,0,0-1.43.814V0h-2.258V-8.453ZM-33.457.156A4.15,4.15,0,0,1-36.484-.984a4.054,4.054,0,0,1-1.168-3.039v-.219A5.106,5.106,0,0,1-37.16-6.52a3.612,3.612,0,0,1,1.395-1.547,3.914,3.914,0,0,1,2.059-.543,3.508,3.508,0,0,1,2.73,1.094,4.444,4.444,0,0,1,1,3.1v.922h-5.383a2.1,2.1,0,0,0,.66,1.328,2,2,0,0,0,1.395.5,2.437,2.437,0,0,0,2.039-.945l1.109,1.242A3.389,3.389,0,0,1-31.535-.246,4.511,4.511,0,0,1-33.457.156Zm-.258-6.945a1.411,1.411,0,0,0-1.09.455,2.357,2.357,0,0,0-.535,1.3H-32.2v-.181a1.681,1.681,0,0,0-.406-1.165A1.456,1.456,0,0,0-33.715-6.789Zm7.094-1.664.07.977a2.951,2.951,0,0,1,2.43-1.133,2.453,2.453,0,0,1,2,.789,3.682,3.682,0,0,1,.672,2.359V0h-2.258V-5.419a1.47,1.47,0,0,0-.312-1.045,1.4,1.4,0,0,0-1.039-.325,1.553,1.553,0,0,0-1.43.814V0h-2.258V-8.453Zm9.586-2.078v2.078h1.445V-6.8h-1.445v4.219a1.007,1.007,0,0,0,.18.672.9.9,0,0,0,.688.2,3.6,3.6,0,0,0,.664-.055V-.047a4.648,4.648,0,0,1-1.367.2,2.156,2.156,0,0,1-2.422-2.4V-6.8h-1.234V-8.453h1.234v-2.078ZM-10.441.156A4.15,4.15,0,0,1-13.469-.984a4.054,4.054,0,0,1-1.168-3.039v-.219a5.106,5.106,0,0,1,.492-2.277A3.612,3.612,0,0,1-12.75-8.066a3.914,3.914,0,0,1,2.059-.543,3.508,3.508,0,0,1,2.73,1.094,4.444,4.444,0,0,1,1,3.1v.922h-5.383a2.1,2.1,0,0,0,.66,1.328,2,2,0,0,0,1.395.5,2.437,2.437,0,0,0,2.039-.945l1.109,1.242A3.389,3.389,0,0,1-8.52-.246,4.511,4.511,0,0,1-10.441.156ZM-10.7-6.789a1.411,1.411,0,0,0-1.09.455,2.357,2.357,0,0,0-.535,1.3h3.141v-.181A1.681,1.681,0,0,0-9.59-6.377,1.456,1.456,0,0,0-10.7-6.789Zm9.594,4.453a.727.727,0,0,0-.41-.652,4.659,4.659,0,0,0-1.316-.426q-3.016-.633-3.016-2.562a2.323,2.323,0,0,1,.934-1.879,3.766,3.766,0,0,1,2.441-.754A4.053,4.053,0,0,1,.1-7.852a2.388,2.388,0,0,1,.965,1.969H-1.191a1.092,1.092,0,0,0-.312-.8A1.322,1.322,0,0,0-2.48-7a1.351,1.351,0,0,0-.883.258.814.814,0,0,0-.312.656.7.7,0,0,0,.355.605,3.657,3.657,0,0,0,1.2.4A9.8,9.8,0,0,1-.7-4.7,2.336,2.336,0,0,1,1.09-2.43,2.2,2.2,0,0,1,.1-.559,4.28,4.28,0,0,1-2.465.156,4.47,4.47,0,0,1-4.352-.223,3.166,3.166,0,0,1-5.645-1.262a2.414,2.414,0,0,1-.469-1.426h2.141a1.179,1.179,0,0,0,.445.922,1.766,1.766,0,0,0,1.109.32,1.635,1.635,0,0,0,.98-.246A.766.766,0,0,0-1.105-2.336Zm15.25-1.812A5.119,5.119,0,0,1,13.277-.98,2.872,2.872,0,0,1,10.855.156,2.639,2.639,0,0,1,8.66-.9l-.1.9H6.527V-12H8.785v4.3a2.571,2.571,0,0,1,2.055-.914,2.9,2.9,0,0,1,2.426,1.137,5.126,5.126,0,0,1,.879,3.2Zm-2.258-.172A3.381,3.381,0,0,0,11.48-6.2a1.372,1.372,0,0,0-1.211-.592A1.489,1.489,0,0,0,8.785-5.9v3.346a1.509,1.509,0,0,0,1.5.893,1.4,1.4,0,0,0,1.438-1.081A5.6,5.6,0,0,0,11.887-4.321ZM20.434,0a2.507,2.507,0,0,1-.227-.758,2.732,2.732,0,0,1-2.133.914,3,3,0,0,1-2.059-.719A2.312,2.312,0,0,1,15.2-2.375a2.389,2.389,0,0,1,1-2.062,4.915,4.915,0,0,1,2.879-.727h1.039v-.484a1.393,1.393,0,0,0-.3-.937,1.183,1.183,0,0,0-.949-.352,1.345,1.345,0,0,0-.895.273.929.929,0,0,0-.324.75H15.387a2.268,2.268,0,0,1,.453-1.359,3,3,0,0,1,1.281-.98,4.669,4.669,0,0,1,1.859-.355,3.689,3.689,0,0,1,2.48.785,2.747,2.747,0,0,1,.918,2.207v3.664a4.041,4.041,0,0,0,.336,1.82V0ZM18.566-1.57a1.945,1.945,0,0,0,.922-.223,1.462,1.462,0,0,0,.625-.6V-3.844H19.27q-1.7,0-1.8,1.172l-.008.133a.9.9,0,0,0,.3.7A1.153,1.153,0,0,0,18.566-1.57Zm9.063-.094a1.481,1.481,0,0,0,1.016-.344,1.2,1.2,0,0,0,.406-.914h2.117A2.9,2.9,0,0,1,30.7-1.348,3.093,3.093,0,0,1,29.438-.238a3.949,3.949,0,0,1-1.77.395A3.67,3.67,0,0,1,24.809-1,4.56,4.56,0,0,1,23.762-4.18v-.148A4.508,4.508,0,0,1,24.8-7.445a3.627,3.627,0,0,1,2.852-1.164,3.555,3.555,0,0,1,2.543.9,3.2,3.2,0,0,1,.973,2.4H29.051a1.551,1.551,0,0,0-.406-1.072,1.354,1.354,0,0,0-1.031-.412,1.36,1.36,0,0,0-1.191.575,3.333,3.333,0,0,0-.4,1.866v.235a3.375,3.375,0,0,0,.4,1.878A1.377,1.377,0,0,0,27.629-1.664Zm7.9-1.727-.812.813V0H32.457V-12h2.258v6.648l.438-.562,2.164-2.539h2.711L36.973-4.93,40.293,0H37.7Zm9.867-.57H41v-1.82h4.4ZM51.1.156A4.15,4.15,0,0,1,48.07-.984,4.054,4.054,0,0,1,46.9-4.023v-.219a5.106,5.106,0,0,1,.492-2.277,3.612,3.612,0,0,1,1.395-1.547,3.914,3.914,0,0,1,2.059-.543,3.508,3.508,0,0,1,2.73,1.094,4.444,4.444,0,0,1,1,3.1v.922H49.191a2.1,2.1,0,0,0,.66,1.328,2,2,0,0,0,1.395.5,2.437,2.437,0,0,0,2.039-.945l1.109,1.242A3.389,3.389,0,0,1,53.02-.246,4.511,4.511,0,0,1,51.1.156ZM50.84-6.789a1.411,1.411,0,0,0-1.09.455,2.357,2.357,0,0,0-.535,1.3h3.141v-.181a1.681,1.681,0,0,0-.406-1.165A1.456,1.456,0,0,0,50.84-6.789Zm7.094-1.664.07.977a2.951,2.951,0,0,1,2.43-1.133,2.453,2.453,0,0,1,2,.789,3.682,3.682,0,0,1,.672,2.359V0H60.848V-5.419a1.47,1.47,0,0,0-.312-1.045A1.4,1.4,0,0,0,59.5-6.789a1.553,1.553,0,0,0-1.43.814V0H55.809V-8.453Zm6.531,4.164a5.094,5.094,0,0,1,.887-3.148,2.877,2.877,0,0,1,2.426-1.172,2.589,2.589,0,0,1,2.039.922V-12h2.266V0H70.043l-.109-.9A2.657,2.657,0,0,1,67.762.156,2.869,2.869,0,0,1,65.367-1.02,5.258,5.258,0,0,1,64.465-4.289Zm2.258.161A3.355,3.355,0,0,0,67.137-2.3a1.348,1.348,0,0,0,1.2.636,1.51,1.51,0,0,0,1.477-.887V-5.9a1.489,1.489,0,0,0-1.461-.887Q66.723-6.789,66.723-4.128Zm10.742-.161a5.094,5.094,0,0,1,.887-3.148,2.877,2.877,0,0,1,2.426-1.172,2.589,2.589,0,0,1,2.039.922V-12h2.266V0H83.043l-.109-.9A2.657,2.657,0,0,1,80.762.156,2.869,2.869,0,0,1,78.367-1.02,5.258,5.258,0,0,1,77.465-4.289Zm2.258.161A3.355,3.355,0,0,0,80.137-2.3a1.348,1.348,0,0,0,1.2.636,1.51,1.51,0,0,0,1.477-.887V-5.9a1.489,1.489,0,0,0-1.461-.887Q79.723-6.789,79.723-4.128Zm11,4.285A4.15,4.15,0,0,1,87.7-.984a4.054,4.054,0,0,1-1.168-3.039v-.219A5.106,5.106,0,0,1,87.02-6.52a3.612,3.612,0,0,1,1.395-1.547,3.914,3.914,0,0,1,2.059-.543A3.508,3.508,0,0,1,93.2-7.516a4.444,4.444,0,0,1,1,3.1v.922H88.816a2.1,2.1,0,0,0,.66,1.328,2,2,0,0,0,1.395.5,2.437,2.437,0,0,0,2.039-.945L94.02-1.367A3.389,3.389,0,0,1,92.645-.246,4.511,4.511,0,0,1,90.723.156Zm-.258-6.945a1.411,1.411,0,0,0-1.09.455,2.357,2.357,0,0,0-.535,1.3H91.98v-.181a1.681,1.681,0,0,0-.406-1.165A1.456,1.456,0,0,0,90.465-6.789ZM-65.605,24h-2.266V12h2.266Zm6.758,0a2.507,2.507,0,0,1-.227-.758,2.732,2.732,0,0,1-2.133.914,3,3,0,0,1-2.059-.719,2.312,2.312,0,0,1-.816-1.812,2.389,2.389,0,0,1,1-2.062,4.915,4.915,0,0,1,2.879-.727h1.039v-.484a1.393,1.393,0,0,0-.3-.937,1.183,1.183,0,0,0-.949-.352,1.345,1.345,0,0,0-.895.273.929.929,0,0,0-.324.75h-2.258a2.268,2.268,0,0,1,.453-1.359,3,3,0,0,1,1.281-.98,4.669,4.669,0,0,1,1.859-.355,3.689,3.689,0,0,1,2.48.785,2.747,2.747,0,0,1,.918,2.207v3.664a4.041,4.041,0,0,0,.336,1.82V24Zm-1.867-1.57a1.945,1.945,0,0,0,.922-.223,1.462,1.462,0,0,0,.625-.6V20.156h-.844q-1.7,0-1.8,1.172l-.008.133a.9.9,0,0,0,.3.7A1.153,1.153,0,0,0-60.715,22.43ZM-46.285,24a2.507,2.507,0,0,1-.227-.758,2.732,2.732,0,0,1-2.133.914,3,3,0,0,1-2.059-.719,2.312,2.312,0,0,1-.816-1.812,2.389,2.389,0,0,1,1-2.062,4.915,4.915,0,0,1,2.879-.727h1.039v-.484a1.393,1.393,0,0,0-.3-.937,1.183,1.183,0,0,0-.949-.352,1.345,1.345,0,0,0-.895.273.929.929,0,0,0-.324.75h-2.258a2.268,2.268,0,0,1,.453-1.359,3,3,0,0,1,1.281-.98,4.669,4.669,0,0,1,1.859-.355,3.689,3.689,0,0,1,2.48.785,2.747,2.747,0,0,1,.918,2.207v3.664A4.041,4.041,0,0,0-44,23.867V24Zm-1.867-1.57a1.945,1.945,0,0,0,.922-.223,1.462,1.462,0,0,0,.625-.6V20.156h-.844q-1.7,0-1.8,1.172l-.008.133a.9.9,0,0,0,.3.7A1.153,1.153,0,0,0-48.152,22.43ZM-35,19.852a5.07,5.07,0,0,1-.887,3.129,2.843,2.843,0,0,1-2.395,1.176,2.633,2.633,0,0,1-2.07-.891V27.25h-2.258v-11.7h2.094l.078.828a2.654,2.654,0,0,1,2.141-.984,2.862,2.862,0,0,1,2.43,1.156A5.207,5.207,0,0,1-35,19.734Zm-2.258-.172a3.345,3.345,0,0,0-.418-1.826,1.36,1.36,0,0,0-1.215-.643,1.478,1.478,0,0,0-1.461.815V21.5a1.5,1.5,0,0,0,1.477.839Q-37.254,22.336-37.254,19.679ZM-31.215,24H-33.48V12h2.266Zm4.242,0h-2.266V15.547h2.266Zm-2.4-10.641a1.112,1.112,0,0,1,.34-.836,1.277,1.277,0,0,1,.926-.328,1.28,1.28,0,0,1,.922.328,1.105,1.105,0,0,1,.344.836,1.108,1.108,0,0,1-.348.844,1.283,1.283,0,0,1-.918.328,1.283,1.283,0,0,1-.918-.328A1.108,1.108,0,0,1-29.371,13.359Zm7.773,8.977a1.481,1.481,0,0,0,1.016-.344,1.2,1.2,0,0,0,.406-.914h2.117a2.9,2.9,0,0,1-.469,1.574,3.093,3.093,0,0,1-1.262,1.109,3.949,3.949,0,0,1-1.77.395A3.67,3.67,0,0,1-24.418,23a4.56,4.56,0,0,1-1.047-3.184v-.148a4.508,4.508,0,0,1,1.039-3.117,3.627,3.627,0,0,1,2.852-1.164,3.555,3.555,0,0,1,2.543.9,3.2,3.2,0,0,1,.973,2.4h-2.117a1.551,1.551,0,0,0-.406-1.072,1.354,1.354,0,0,0-1.031-.412,1.36,1.36,0,0,0-1.191.575,3.333,3.333,0,0,0-.4,1.866v.235a3.375,3.375,0,0,0,.4,1.878A1.377,1.377,0,0,0-21.6,22.336ZM-11.871,24a2.507,2.507,0,0,1-.227-.758,2.732,2.732,0,0,1-2.133.914,3,3,0,0,1-2.059-.719,2.312,2.312,0,0,1-.816-1.812,2.389,2.389,0,0,1,1-2.062,4.915,4.915,0,0,1,2.879-.727h1.039v-.484a1.393,1.393,0,0,0-.3-.937,1.183,1.183,0,0,0-.949-.352,1.345,1.345,0,0,0-.895.273.929.929,0,0,0-.324.75h-2.258a2.268,2.268,0,0,1,.453-1.359,3,3,0,0,1,1.281-.98,4.669,4.669,0,0,1,1.859-.355,3.689,3.689,0,0,1,2.48.785,2.747,2.747,0,0,1,.918,2.207v3.664a4.041,4.041,0,0,0,.336,1.82V24Zm-1.867-1.57a1.945,1.945,0,0,0,.922-.223,1.462,1.462,0,0,0,.625-.6V20.156h-.844q-1.7,0-1.8,1.172l-.008.133a.9.9,0,0,0,.3.7A1.153,1.153,0,0,0-13.738,22.43Zm9.063-.094a1.481,1.481,0,0,0,1.016-.344,1.2,1.2,0,0,0,.406-.914h2.117a2.9,2.9,0,0,1-.469,1.574,3.093,3.093,0,0,1-1.262,1.109,3.949,3.949,0,0,1-1.77.395A3.67,3.67,0,0,1-7.5,23,4.56,4.56,0,0,1-8.543,19.82v-.148A4.508,4.508,0,0,1-7.5,16.555a3.627,3.627,0,0,1,2.852-1.164,3.555,3.555,0,0,1,2.543.9,3.2,3.2,0,0,1,.973,2.4H-3.254a1.551,1.551,0,0,0-.406-1.072,1.354,1.354,0,0,0-1.031-.412,1.36,1.36,0,0,0-1.191.575,3.333,3.333,0,0,0-.4,1.866v.235a3.375,3.375,0,0,0,.4,1.878A1.377,1.377,0,0,0-4.676,22.336ZM2.535,24H.27V15.547H2.535ZM.137,13.359a1.112,1.112,0,0,1,.34-.836A1.277,1.277,0,0,1,1.4,12.2a1.28,1.28,0,0,1,.922.328,1.193,1.193,0,0,1,0,1.68,1.283,1.283,0,0,1-.918.328A1.283,1.283,0,0,1,.484,14.2,1.108,1.108,0,0,1,.137,13.359ZM4.043,19.7a5.013,5.013,0,0,1,.484-2.242A3.546,3.546,0,0,1,5.922,15.93a4.069,4.069,0,0,1,2.113-.539,3.849,3.849,0,0,1,2.793,1.047,4.2,4.2,0,0,1,1.207,2.844l.016.578a4.418,4.418,0,0,1-1.086,3.121,3.775,3.775,0,0,1-2.914,1.176,3.793,3.793,0,0,1-2.918-1.172A4.5,4.5,0,0,1,4.043,19.8Zm2.258.16A3.16,3.16,0,0,0,6.754,21.7a1.5,1.5,0,0,0,1.3.638,1.5,1.5,0,0,0,1.281-.63,3.457,3.457,0,0,0,.461-2.015,3.128,3.128,0,0,0-.461-1.831,1.5,1.5,0,0,0-1.3-.649,1.474,1.474,0,0,0-1.281.646A3.516,3.516,0,0,0,6.3,19.856ZM8.48,12h2.461L8.777,14.422H6.941Zm7.039,3.547.07.977a2.951,2.951,0,0,1,2.43-1.133,2.453,2.453,0,0,1,2,.789,3.682,3.682,0,0,1,.672,2.359V24H18.434V18.581a1.47,1.47,0,0,0-.312-1.045,1.4,1.4,0,0,0-1.039-.325,1.553,1.553,0,0,0-1.43.814V24H13.395V15.547Zm12.984,0,.07.945a2.971,2.971,0,0,1,2.43-1.1,2.255,2.255,0,0,1,2.242,1.289,2.9,2.9,0,0,1,2.539-1.289,2.521,2.521,0,0,1,2.047.8A3.681,3.681,0,0,1,38.5,18.6V24H36.238V18.6a1.616,1.616,0,0,0-.281-1.053,1.245,1.245,0,0,0-.992-.333,1.409,1.409,0,0,0-1.406.971L33.566,24H31.309V18.6a1.6,1.6,0,0,0-.289-1.065,1.257,1.257,0,0,0-.984-.329,1.463,1.463,0,0,0-1.391.8V24H26.387V15.547ZM39.887,19.7a5.013,5.013,0,0,1,.484-2.242,3.546,3.546,0,0,1,1.395-1.523,4.069,4.069,0,0,1,2.113-.539,3.849,3.849,0,0,1,2.793,1.047,4.2,4.2,0,0,1,1.207,2.844l.016.578a4.418,4.418,0,0,1-1.086,3.121,4.209,4.209,0,0,1-5.832,0,4.5,4.5,0,0,1-1.09-3.187Zm2.258.16A3.16,3.16,0,0,0,42.6,21.7a1.628,1.628,0,0,0,2.578.008,3.457,3.457,0,0,0,.461-2.015,3.128,3.128,0,0,0-.461-1.831,1.5,1.5,0,0,0-1.3-.649,1.474,1.474,0,0,0-1.281.646A3.516,3.516,0,0,0,42.145,19.856ZM44.324,12h2.461l-2.164,2.422H42.785Zm8.008,9.242,1.57-5.7h2.359L53.41,24H51.254L48.4,15.547h2.359ZM59.637,24H57.371V15.547h2.266Zm-2.4-10.641a1.112,1.112,0,0,1,.34-.836,1.465,1.465,0,0,1,1.848,0,1.193,1.193,0,0,1,0,1.68,1.448,1.448,0,0,1-1.836,0A1.108,1.108,0,0,1,57.238,13.359ZM63.879,24H61.613V12h2.266Z" transform="translate(734.333 677.413)" fill="#12263f"/>
    <path id="Trazado_819828" data-name="Trazado 819828" d="M10,0H245a10,10,0,0,1,10,10V48a10,10,0,0,1-10,10H10A10,10,0,0,1,0,48V10A10,10,0,0,1,10,0Z" transform="translate(828.333 448.601)" fill="#99e5ef"/>
    <path id="Trazado_819834" data-name="Trazado 819834" d="M-51.93-2.344h-4.109L-56.82,0h-2.492l4.234-11.375h2.172L-48.648,0h-2.492Zm-3.477-1.9h2.844L-53.992-8.5Zm12.422-2.094A6.134,6.134,0,0,0-43.8-6.4a1.654,1.654,0,0,0-1.68.867V0h-2.258V-8.453H-45.6l.063,1.008a2.092,2.092,0,0,1,1.883-1.164,2.366,2.366,0,0,1,.7.1ZM-42.4-4.3a5.053,5.053,0,0,1,.887-3.148,2.9,2.9,0,0,1,2.434-1.156A2.6,2.6,0,0,1-36.914-7.57l.148-.883h1.984V3.25h-2.266V-.727a2.6,2.6,0,0,1-2.047.883A2.878,2.878,0,0,1-41.5-1.016,5.3,5.3,0,0,1-42.4-4.3Zm2.258.16A3.314,3.314,0,0,0-39.715-2.3a1.363,1.363,0,0,0,1.2.634,1.518,1.518,0,0,0,1.469-.829v-3.5a1.506,1.506,0,0,0-1.453-.8,1.38,1.38,0,0,0-1.211.634A3.661,3.661,0,0,0-40.141-4.144Zm12.2,3.285A2.831,2.831,0,0,1-30.258.156a2.67,2.67,0,0,1-2.074-.781,3.335,3.335,0,0,1-.73-2.289V-8.453H-30.8v5.467q0,1.322,1.2,1.322a1.63,1.63,0,0,0,1.578-.8V-8.453h2.266V0h-2.125ZM-21.672,0h-2.266V-8.453h2.266Zm-2.4-10.641a1.112,1.112,0,0,1,.34-.836A1.277,1.277,0,0,1-22.8-11.8a1.28,1.28,0,0,1,.922.328,1.105,1.105,0,0,1,.344.836,1.108,1.108,0,0,1-.348.844,1.283,1.283,0,0,1-.918.328,1.283,1.283,0,0,1-.918-.328A1.108,1.108,0,0,1-24.07-10.641Zm6.961.109v2.078h1.445V-6.8h-1.445v4.219a1.007,1.007,0,0,0,.18.672.9.9,0,0,0,.688.2,3.6,3.6,0,0,0,.664-.055V-.047a4.648,4.648,0,0,1-1.367.2,2.156,2.156,0,0,1-2.422-2.4V-6.8H-20.6V-8.453h1.234v-2.078ZM-10.516.156A4.15,4.15,0,0,1-13.543-.984a4.054,4.054,0,0,1-1.168-3.039v-.219a5.106,5.106,0,0,1,.492-2.277,3.612,3.612,0,0,1,1.395-1.547,3.914,3.914,0,0,1,2.059-.543,3.508,3.508,0,0,1,2.73,1.094,4.444,4.444,0,0,1,1,3.1v.922h-5.383a2.1,2.1,0,0,0,.66,1.328,2,2,0,0,0,1.395.5,2.437,2.437,0,0,0,2.039-.945l1.109,1.242A3.389,3.389,0,0,1-8.594-.246,4.511,4.511,0,0,1-10.516.156Zm-.258-6.945a1.411,1.411,0,0,0-1.09.455,2.357,2.357,0,0,0-.535,1.3h3.141v-.181a1.681,1.681,0,0,0-.406-1.165A1.456,1.456,0,0,0-10.773-6.789Zm8.531,5.125a1.481,1.481,0,0,0,1.016-.344A1.2,1.2,0,0,0-.82-2.922H1.3A2.9,2.9,0,0,1,.828-1.348,3.093,3.093,0,0,1-.434-.238,3.949,3.949,0,0,1-2.2.156,3.67,3.67,0,0,1-5.062-1,4.56,4.56,0,0,1-6.109-4.18v-.148A4.508,4.508,0,0,1-5.07-7.445,3.627,3.627,0,0,1-2.219-8.609a3.555,3.555,0,0,1,2.543.9A3.2,3.2,0,0,1,1.3-5.3H-.82a1.551,1.551,0,0,0-.406-1.072,1.354,1.354,0,0,0-1.031-.412,1.36,1.36,0,0,0-1.191.575,3.333,3.333,0,0,0-.4,1.866v.235a3.375,3.375,0,0,0,.4,1.878A1.377,1.377,0,0,0-2.242-1.664Zm7.531-8.867v2.078H6.734V-6.8H5.289v4.219a1.007,1.007,0,0,0,.18.672.9.9,0,0,0,.688.2,3.6,3.6,0,0,0,.664-.055V-.047a4.648,4.648,0,0,1-1.367.2,2.156,2.156,0,0,1-2.422-2.4V-6.8H1.8V-8.453H3.031v-2.078ZM13.055-.859A2.831,2.831,0,0,1,10.742.156,2.67,2.67,0,0,1,8.668-.625a3.335,3.335,0,0,1-.73-2.289V-8.453H10.2v5.467q0,1.322,1.2,1.322a1.63,1.63,0,0,0,1.578-.8V-8.453h2.266V0H13.117ZM21.7-6.336a6.134,6.134,0,0,0-.812-.062,1.654,1.654,0,0,0-1.68.867V0H16.945V-8.453h2.133l.063,1.008a2.092,2.092,0,0,1,1.883-1.164,2.366,2.366,0,0,1,.7.1ZM27.445,0a2.507,2.507,0,0,1-.227-.758,2.732,2.732,0,0,1-2.133.914,3,3,0,0,1-2.059-.719,2.312,2.312,0,0,1-.816-1.812,2.389,2.389,0,0,1,1-2.062,4.915,4.915,0,0,1,2.879-.727h1.039v-.484a1.393,1.393,0,0,0-.3-.937,1.183,1.183,0,0,0-.949-.352,1.345,1.345,0,0,0-.895.273.929.929,0,0,0-.324.75H22.4a2.268,2.268,0,0,1,.453-1.359,3,3,0,0,1,1.281-.98,4.669,4.669,0,0,1,1.859-.355,3.689,3.689,0,0,1,2.48.785,2.747,2.747,0,0,1,.918,2.207v3.664a4.041,4.041,0,0,0,.336,1.82V0ZM25.578-1.57a1.945,1.945,0,0,0,.922-.223,1.462,1.462,0,0,0,.625-.6V-3.844h-.844q-1.7,0-1.8,1.172l-.008.133a.9.9,0,0,0,.3.7A1.153,1.153,0,0,0,25.578-1.57ZM37.492,0H35.227V-8.453h2.266Zm-2.4-10.641a1.112,1.112,0,0,1,.34-.836,1.277,1.277,0,0,1,.926-.328,1.28,1.28,0,0,1,.922.328,1.105,1.105,0,0,1,.344.836,1.108,1.108,0,0,1-.348.844,1.283,1.283,0,0,1-.918.328,1.283,1.283,0,0,1-.918-.328A1.108,1.108,0,0,1,35.094-10.641ZM48.844-5.43a6.867,6.867,0,0,1-.594,2.945,4.472,4.472,0,0,1-1.7,1.953,4.7,4.7,0,0,1-2.535.688,4.732,4.732,0,0,1-2.523-.68,4.515,4.515,0,0,1-1.719-1.941,6.67,6.67,0,0,1-.617-2.9V-5.93a6.831,6.831,0,0,1,.605-2.957,4.508,4.508,0,0,1,1.711-1.961A4.706,4.706,0,0,1,44-11.531a4.706,4.706,0,0,1,2.527.684,4.508,4.508,0,0,1,1.711,1.961,6.811,6.811,0,0,1,.605,2.949Zm-2.375-.516a4.787,4.787,0,0,0-.641-2.719A2.088,2.088,0,0,0,44-9.594a2.088,2.088,0,0,0-1.82.918,4.732,4.732,0,0,0-.648,2.691v.555a4.847,4.847,0,0,0,.641,2.7,2.082,2.082,0,0,0,1.844.961,2.064,2.064,0,0,0,1.813-.926,4.819,4.819,0,0,0,.641-2.7Zm9.977,2.961A1.2,1.2,0,0,0,55.977-4a6.148,6.148,0,0,0-1.687-.75,11.962,11.962,0,0,1-1.93-.777,3.153,3.153,0,0,1-1.937-2.82A2.747,2.747,0,0,1,50.941-10a3.389,3.389,0,0,1,1.492-1.129,5.616,5.616,0,0,1,2.184-.406,5.112,5.112,0,0,1,2.172.441,3.458,3.458,0,0,1,1.48,1.246A3.261,3.261,0,0,1,58.8-8.016H56.453a1.534,1.534,0,0,0-.492-1.215,2.023,2.023,0,0,0-1.383-.434,2.162,2.162,0,0,0-1.336.363,1.146,1.146,0,0,0-.477.957,1.1,1.1,0,0,0,.559.93,6.311,6.311,0,0,0,1.645.7,7.106,7.106,0,0,1,2.914,1.492A2.972,2.972,0,0,1,58.8-3,2.737,2.737,0,0,1,57.68-.684a4.891,4.891,0,0,1-3.008.84,5.808,5.808,0,0,1-2.391-.48,3.783,3.783,0,0,1-1.645-1.316,3.371,3.371,0,0,1-.566-1.937h2.352q0,1.883,2.25,1.883a2.189,2.189,0,0,0,1.3-.34A1.106,1.106,0,0,0,56.445-2.984Z" transform="translate(955.333 484.601)" fill="#12263f"/>
    <path id="Trazado_819810" data-name="Trazado 819810" d="M10,0H245a10,10,0,0,1,10,10V48a10,10,0,0,1-10,10H10A10,10,0,0,1,0,48V10A10,10,0,0,1,10,0Z" transform="translate(838.333 904.201)" fill="#99e5ef"/>
    <path id="Trazado_819811" data-name="Trazado 819811" d="M-9.664-3.789A4.025,4.025,0,0,1-11.02-.9,4.76,4.76,0,0,1-14.242.156a4.28,4.28,0,0,1-3.441-1.473,6.038,6.038,0,0,1-1.254-4.043v-.7a6.819,6.819,0,0,1,.578-2.891,4.332,4.332,0,0,1,1.652-1.918,4.629,4.629,0,0,1,2.5-.668,4.637,4.637,0,0,1,3.172,1.055A4.326,4.326,0,0,1-9.648-7.516h-2.344a2.376,2.376,0,0,0-.613-1.6,2.271,2.271,0,0,0-1.605-.5,1.991,1.991,0,0,0-1.754.84,4.707,4.707,0,0,0-.6,2.605V-5.3A5.038,5.038,0,0,0-16-2.609a1.954,1.954,0,0,0,1.762.852,2.314,2.314,0,0,0,1.621-.5,2.241,2.241,0,0,0,.613-1.535Zm6.141-2.547A6.134,6.134,0,0,0-4.336-6.4a1.654,1.654,0,0,0-1.68.867V0H-8.273V-8.453h2.133l.063,1.008A2.092,2.092,0,0,1-4.2-8.609a2.366,2.366,0,0,1,.7.1ZM1.3.156A4.15,4.15,0,0,1-1.723-.984,4.054,4.054,0,0,1-2.891-4.023v-.219A5.106,5.106,0,0,1-2.4-6.52,3.612,3.612,0,0,1-1-8.066a3.914,3.914,0,0,1,2.059-.543,3.508,3.508,0,0,1,2.73,1.094,4.444,4.444,0,0,1,1,3.1v.922H-.6a2.1,2.1,0,0,0,.66,1.328,2,2,0,0,0,1.395.5,2.437,2.437,0,0,0,2.039-.945L4.6-1.367A3.389,3.389,0,0,1,3.227-.246,4.511,4.511,0,0,1,1.3.156ZM1.047-6.789a1.411,1.411,0,0,0-1.09.455,2.357,2.357,0,0,0-.535,1.3H2.563v-.181a1.681,1.681,0,0,0-.406-1.165A1.456,1.456,0,0,0,1.047-6.789ZM10.961,0a2.507,2.507,0,0,1-.227-.758A2.732,2.732,0,0,1,8.6.156,3,3,0,0,1,6.543-.562a2.312,2.312,0,0,1-.816-1.812,2.389,2.389,0,0,1,1-2.062A4.915,4.915,0,0,1,9.6-5.164h1.039v-.484a1.393,1.393,0,0,0-.3-.937,1.183,1.183,0,0,0-.949-.352,1.345,1.345,0,0,0-.895.273.929.929,0,0,0-.324.75H5.914a2.268,2.268,0,0,1,.453-1.359,3,3,0,0,1,1.281-.98,4.669,4.669,0,0,1,1.859-.355,3.689,3.689,0,0,1,2.48.785,2.747,2.747,0,0,1,.918,2.207v3.664a4.041,4.041,0,0,0,.336,1.82V0ZM9.094-1.57a1.945,1.945,0,0,0,.922-.223,1.462,1.462,0,0,0,.625-.6V-3.844H9.8q-1.7,0-1.8,1.172l-.008.133a.9.9,0,0,0,.3.7A1.153,1.153,0,0,0,9.094-1.57Zm10.3-4.766a6.134,6.134,0,0,0-.812-.062,1.654,1.654,0,0,0-1.68.867V0H14.641V-8.453h2.133l.063,1.008a2.092,2.092,0,0,1,1.883-1.164,2.366,2.366,0,0,1,.7.1Z" transform="translate(965.333 940.201)" fill="#12263f"/>
    <path id="Trazado_819794" data-name="Trazado 819794" d="M10,0H245a10,10,0,0,1,10,10V48a10,10,0,0,1-10,10H10A10,10,0,0,1,0,48V10A10,10,0,0,1,10,0Z" transform="translate(838.333 977.201)" fill="#99e5ef"/>
    <path id="Trazado_819812" data-name="Trazado 819812" d="M-12.023-2.984A1.2,1.2,0,0,0-12.492-4a6.148,6.148,0,0,0-1.687-.75,11.963,11.963,0,0,1-1.93-.777,3.153,3.153,0,0,1-1.937-2.82A2.747,2.747,0,0,1-17.527-10a3.389,3.389,0,0,1,1.492-1.129,5.616,5.616,0,0,1,2.184-.406,5.112,5.112,0,0,1,2.172.441A3.458,3.458,0,0,1-10.2-9.844a3.261,3.261,0,0,1,.527,1.828h-2.344a1.534,1.534,0,0,0-.492-1.215,2.023,2.023,0,0,0-1.383-.434,2.162,2.162,0,0,0-1.336.363,1.146,1.146,0,0,0-.477.957,1.1,1.1,0,0,0,.559.93,6.311,6.311,0,0,0,1.645.7,7.106,7.106,0,0,1,2.914,1.492A2.972,2.972,0,0,1-9.672-3,2.737,2.737,0,0,1-10.789-.684,4.891,4.891,0,0,1-13.8.156a5.808,5.808,0,0,1-2.391-.48,3.783,3.783,0,0,1-1.645-1.316A3.371,3.371,0,0,1-18.4-3.578h2.352q0,1.883,2.25,1.883a2.189,2.189,0,0,0,1.3-.34A1.106,1.106,0,0,0-12.023-2.984ZM-3.172-.859A2.831,2.831,0,0,1-5.484.156,2.67,2.67,0,0,1-7.559-.625a3.335,3.335,0,0,1-.73-2.289V-8.453h2.258v5.467q0,1.322,1.2,1.322a1.63,1.63,0,0,0,1.578-.8V-8.453H-.984V0H-3.109ZM8.336-4.148A5.119,5.119,0,0,1,7.469-.98,2.872,2.872,0,0,1,5.047.156,2.639,2.639,0,0,1,2.852-.9l-.1.9H.719V-12H2.977v4.3a2.571,2.571,0,0,1,2.055-.914A2.9,2.9,0,0,1,7.457-7.473a5.126,5.126,0,0,1,.879,3.2ZM6.078-4.321A3.381,3.381,0,0,0,5.672-6.2a1.372,1.372,0,0,0-1.211-.592A1.489,1.489,0,0,0,2.977-5.9v3.346a1.509,1.509,0,0,0,1.5.893A1.4,1.4,0,0,0,5.914-2.745,5.6,5.6,0,0,0,6.078-4.321ZM12.109,0H9.844V-8.453h2.266Zm-2.4-10.641a1.112,1.112,0,0,1,.34-.836,1.277,1.277,0,0,1,.926-.328,1.28,1.28,0,0,1,.922.328,1.105,1.105,0,0,1,.344.836,1.108,1.108,0,0,1-.348.844,1.283,1.283,0,0,1-.918.328,1.283,1.283,0,0,1-.918-.328A1.108,1.108,0,0,1,9.711-10.641Zm9.008,4.3a6.134,6.134,0,0,0-.812-.062,1.654,1.654,0,0,0-1.68.867V0H13.969V-8.453H16.1l.063,1.008a2.092,2.092,0,0,1,1.883-1.164,2.366,2.366,0,0,1,.7.1Z" transform="translate(965.333 1013.201)" fill="#12263f"/>
    <path id="Trazado_819795" data-name="Trazado 819795" d="M10,0H245a10,10,0,0,1,10,10V48a10,10,0,0,1-10,10H10A10,10,0,0,1,0,48V10A10,10,0,0,1,10,0Z" transform="translate(838.333 1050.201)" fill="#99e5ef"/>
    <path id="Trazado_819813" data-name="Trazado 819813" d="M-26.4-4.008V0h-2.344V-11.375h4.438a5.134,5.134,0,0,1,2.254.469,3.454,3.454,0,0,1,1.5,1.332,3.714,3.714,0,0,1,.523,1.965A3.266,3.266,0,0,1-21.18-4.973a4.767,4.767,0,0,1-3.168.965Zm0-1.9h2.094a2.059,2.059,0,0,0,1.418-.437,1.591,1.591,0,0,0,.488-1.25,1.876,1.876,0,0,0-.492-1.352,1.839,1.839,0,0,0-1.359-.531H-26.4ZM-13.512-.859A2.831,2.831,0,0,1-15.824.156,2.67,2.67,0,0,1-17.9-.625a3.335,3.335,0,0,1-.73-2.289V-8.453h2.258v5.467q0,1.322,1.2,1.322a1.63,1.63,0,0,0,1.578-.8V-8.453h2.266V0h-2.125ZM-2-4.148A5.119,5.119,0,0,1-2.871-.98,2.872,2.872,0,0,1-5.293.156,2.639,2.639,0,0,1-7.488-.9l-.1.9H-9.621V-12h2.258v4.3a2.571,2.571,0,0,1,2.055-.914A2.9,2.9,0,0,1-2.883-7.473,5.126,5.126,0,0,1-2-4.273Zm-2.258-.172A3.381,3.381,0,0,0-4.668-6.2a1.372,1.372,0,0,0-1.211-.592A1.489,1.489,0,0,0-7.363-5.9v3.346a1.509,1.509,0,0,0,1.5.893A1.4,1.4,0,0,0-4.426-2.745,5.6,5.6,0,0,0-4.262-4.321ZM1.77,0H-.5V-12H1.77ZM6.012,0H3.746V-8.453H6.012Zm-2.4-10.641a1.112,1.112,0,0,1,.34-.836,1.277,1.277,0,0,1,.926-.328,1.28,1.28,0,0,1,.922.328,1.105,1.105,0,0,1,.344.836A1.108,1.108,0,0,1,5.8-9.8a1.283,1.283,0,0,1-.918.328A1.283,1.283,0,0,1,3.961-9.8,1.108,1.108,0,0,1,3.613-10.641Zm7.773,8.977A1.481,1.481,0,0,0,12.4-2.008a1.2,1.2,0,0,0,.406-.914h2.117a2.9,2.9,0,0,1-.469,1.574A3.093,3.093,0,0,1,13.2-.238a3.949,3.949,0,0,1-1.77.395A3.67,3.67,0,0,1,8.566-1,4.56,4.56,0,0,1,7.52-4.18v-.148A4.508,4.508,0,0,1,8.559-7.445,3.627,3.627,0,0,1,11.41-8.609a3.555,3.555,0,0,1,2.543.9,3.2,3.2,0,0,1,.973,2.4H12.809A1.551,1.551,0,0,0,12.4-6.377a1.354,1.354,0,0,0-1.031-.412,1.36,1.36,0,0,0-1.191.575,3.333,3.333,0,0,0-.4,1.866v.235a3.375,3.375,0,0,0,.4,1.878A1.377,1.377,0,0,0,11.387-1.664ZM21.113,0a2.507,2.507,0,0,1-.227-.758,2.732,2.732,0,0,1-2.133.914A3,3,0,0,1,16.7-.562a2.312,2.312,0,0,1-.816-1.812,2.389,2.389,0,0,1,1-2.062,4.915,4.915,0,0,1,2.879-.727h1.039v-.484a1.393,1.393,0,0,0-.3-.937,1.183,1.183,0,0,0-.949-.352,1.345,1.345,0,0,0-.895.273.929.929,0,0,0-.324.75H16.066a2.268,2.268,0,0,1,.453-1.359,3,3,0,0,1,1.281-.98,4.669,4.669,0,0,1,1.859-.355,3.689,3.689,0,0,1,2.48.785,2.747,2.747,0,0,1,.918,2.207v3.664a4.041,4.041,0,0,0,.336,1.82V0ZM19.246-1.57a1.945,1.945,0,0,0,.922-.223,1.462,1.462,0,0,0,.625-.6V-3.844h-.844q-1.7,0-1.8,1.172l-.008.133a.9.9,0,0,0,.3.7A1.153,1.153,0,0,0,19.246-1.57Zm10.3-4.766A6.134,6.134,0,0,0,28.73-6.4a1.654,1.654,0,0,0-1.68.867V0H24.793V-8.453h2.133l.063,1.008a2.092,2.092,0,0,1,1.883-1.164,2.366,2.366,0,0,1,.7.1Z" transform="translate(965.333 1086.201)" fill="#12263f"/>
    <path id="Trazado_819796" data-name="Trazado 819796" d="M10,0H245a10,10,0,0,1,10,10V48a10,10,0,0,1-10,10H10A10,10,0,0,1,0,48V10A10,10,0,0,1,10,0Z" transform="translate(1210 983.562)" fill="#99e5ef"/>
    <path id="Trazado_819797" data-name="Trazado 819797" d="M-33.355-4.008V0H-35.7V-11.375h4.438a5.134,5.134,0,0,1,2.254.469,3.454,3.454,0,0,1,1.5,1.332,3.714,3.714,0,0,1,.523,1.965,3.266,3.266,0,0,1-1.145,2.637,4.767,4.767,0,0,1-3.168.965Zm0-1.9h2.094a2.059,2.059,0,0,0,1.418-.437,1.591,1.591,0,0,0,.488-1.25,1.876,1.876,0,0,0-.492-1.352,1.839,1.839,0,0,0-1.359-.531h-2.148ZM-23.145,0H-25.41V-12h2.266Zm6.758,0a2.507,2.507,0,0,1-.227-.758,2.732,2.732,0,0,1-2.133.914A3,3,0,0,1-20.8-.562a2.312,2.312,0,0,1-.816-1.812,2.389,2.389,0,0,1,1-2.062,4.915,4.915,0,0,1,2.879-.727h1.039v-.484a1.393,1.393,0,0,0-.3-.937,1.183,1.183,0,0,0-.949-.352,1.345,1.345,0,0,0-.895.273.929.929,0,0,0-.324.75h-2.258a2.268,2.268,0,0,1,.453-1.359,3,3,0,0,1,1.281-.98,4.669,4.669,0,0,1,1.859-.355,3.689,3.689,0,0,1,2.48.785,2.747,2.747,0,0,1,.918,2.207v3.664a4.041,4.041,0,0,0,.336,1.82V0Zm-1.867-1.57a1.945,1.945,0,0,0,.922-.223,1.462,1.462,0,0,0,.625-.6V-3.844h-.844q-1.7,0-1.8,1.172l-.008.133a.9.9,0,0,0,.3.7A1.153,1.153,0,0,0-18.254-1.57ZM-9.668-3.2l1.563-5.258h2.422l-3.4,9.766-.187.445a2.577,2.577,0,0,1-2.5,1.656,3.552,3.552,0,0,1-1-.148V1.555l.344.008a1.857,1.857,0,0,0,.957-.2,1.283,1.283,0,0,0,.5-.648l.266-.7-2.961-8.477h2.43Zm14.906.211A1.2,1.2,0,0,0,4.77-4a6.148,6.148,0,0,0-1.687-.75,11.963,11.963,0,0,1-1.93-.777A3.153,3.153,0,0,1-.785-8.352,2.747,2.747,0,0,1-.266-10a3.389,3.389,0,0,1,1.492-1.129,5.616,5.616,0,0,1,2.184-.406,5.112,5.112,0,0,1,2.172.441,3.458,3.458,0,0,1,1.48,1.246A3.261,3.261,0,0,1,7.59-8.016H5.246A1.534,1.534,0,0,0,4.754-9.23a2.023,2.023,0,0,0-1.383-.434A2.162,2.162,0,0,0,2.035-9.3a1.146,1.146,0,0,0-.477.957,1.1,1.1,0,0,0,.559.93,6.311,6.311,0,0,0,1.645.7A7.106,7.106,0,0,1,6.676-5.219,2.972,2.972,0,0,1,7.59-3,2.737,2.737,0,0,1,6.473-.684a4.891,4.891,0,0,1-3.008.84,5.808,5.808,0,0,1-2.391-.48A3.783,3.783,0,0,1-.57-1.641a3.371,3.371,0,0,1-.566-1.937H1.215q0,1.883,2.25,1.883a2.189,2.189,0,0,0,1.3-.34A1.106,1.106,0,0,0,5.238-2.984Zm6.492-7.547v2.078h1.445V-6.8H11.73v4.219a1.007,1.007,0,0,0,.18.672.9.9,0,0,0,.688.2,3.6,3.6,0,0,0,.664-.055V-.047a4.648,4.648,0,0,1-1.367.2,2.156,2.156,0,0,1-2.422-2.4V-6.8H8.238V-8.453H9.473v-2.078ZM13.848-4.3a5.013,5.013,0,0,1,.484-2.242A3.546,3.546,0,0,1,15.727-8.07a4.069,4.069,0,0,1,2.113-.539,3.849,3.849,0,0,1,2.793,1.047A4.2,4.2,0,0,1,21.84-4.719l.016.578A4.418,4.418,0,0,1,20.77-1.02,3.775,3.775,0,0,1,17.855.156a3.793,3.793,0,0,1-2.918-1.172A4.5,4.5,0,0,1,13.848-4.2Zm2.258.16A3.16,3.16,0,0,0,16.559-2.3a1.5,1.5,0,0,0,1.3.638,1.5,1.5,0,0,0,1.281-.63A3.457,3.457,0,0,0,19.6-4.309a3.128,3.128,0,0,0-.461-1.831,1.5,1.5,0,0,0-1.3-.649,1.474,1.474,0,0,0-1.281.646A3.516,3.516,0,0,0,16.105-4.144ZM28-6.336a6.134,6.134,0,0,0-.812-.062,1.654,1.654,0,0,0-1.68.867V0H23.246V-8.453h2.133l.063,1.008a2.092,2.092,0,0,1,1.883-1.164,2.366,2.366,0,0,1,.7.1ZM32.824.156A4.15,4.15,0,0,1,29.8-.984a4.054,4.054,0,0,1-1.168-3.039v-.219a5.106,5.106,0,0,1,.492-2.277,3.612,3.612,0,0,1,1.395-1.547,3.914,3.914,0,0,1,2.059-.543A3.508,3.508,0,0,1,35.3-7.516a4.444,4.444,0,0,1,1,3.1v.922H30.918a2.1,2.1,0,0,0,.66,1.328,2,2,0,0,0,1.395.5,2.437,2.437,0,0,0,2.039-.945l1.109,1.242A3.389,3.389,0,0,1,34.746-.246,4.511,4.511,0,0,1,32.824.156Zm-.258-6.945a1.411,1.411,0,0,0-1.09.455,2.357,2.357,0,0,0-.535,1.3h3.141v-.181a1.681,1.681,0,0,0-.406-1.165A1.456,1.456,0,0,0,32.566-6.789Z" transform="translate(1337 1019.562)" fill="#12263f"/>
    <path id="Trazado_819837" data-name="Trazado 819837" d="M10,0H245a10,10,0,0,1,10,10V48a10,10,0,0,1-10,10H10A10,10,0,0,1,0,48V10A10,10,0,0,1,10,0Z" transform="translate(1210 377.101)" fill="#99e5ef"/>
    <path id="Trazado_819839" data-name="Trazado 819839" d="M-11.574-2.984A1.2,1.2,0,0,0-12.043-4a6.148,6.148,0,0,0-1.687-.75,11.963,11.963,0,0,1-1.93-.777A3.153,3.153,0,0,1-17.6-8.352,2.747,2.747,0,0,1-17.078-10a3.389,3.389,0,0,1,1.492-1.129,5.616,5.616,0,0,1,2.184-.406,5.112,5.112,0,0,1,2.172.441A3.458,3.458,0,0,1-9.75-9.844a3.261,3.261,0,0,1,.527,1.828h-2.344a1.534,1.534,0,0,0-.492-1.215,2.023,2.023,0,0,0-1.383-.434,2.162,2.162,0,0,0-1.336.363,1.146,1.146,0,0,0-.477.957,1.1,1.1,0,0,0,.559.93,6.311,6.311,0,0,0,1.645.7,7.106,7.106,0,0,1,2.914,1.492A2.972,2.972,0,0,1-9.223-3,2.737,2.737,0,0,1-10.34-.684a4.891,4.891,0,0,1-3.008.84,5.808,5.808,0,0,1-2.391-.48,3.783,3.783,0,0,1-1.645-1.316,3.371,3.371,0,0,1-.566-1.937H-15.6q0,1.883,2.25,1.883a2.189,2.189,0,0,0,1.3-.34A1.106,1.106,0,0,0-11.574-2.984ZM-.434-3.07.676-8.453h2.18L.7,0H-1.191l-1.6-5.32L-4.395,0H-6.277L-8.434-8.453h2.18l1.1,5.375,1.547-5.375h1.633ZM6.355,0H4.09V-8.453H6.355Zm-2.4-10.641a1.112,1.112,0,0,1,.34-.836,1.277,1.277,0,0,1,.926-.328,1.28,1.28,0,0,1,.922.328,1.105,1.105,0,0,1,.344.836,1.108,1.108,0,0,1-.348.844,1.283,1.283,0,0,1-.918.328A1.283,1.283,0,0,1,4.3-9.8,1.108,1.108,0,0,1,3.957-10.641ZM8.832,0V-6.8H7.574V-8.453H8.832v-.719a2.918,2.918,0,0,1,.816-2.207,3.162,3.162,0,0,1,2.285-.785,5.321,5.321,0,0,1,1.148.155l-.023,1.736a2.878,2.878,0,0,0-.687-.07q-1.273,0-1.273,1.205v.685h1.68V-6.8H11.1V0Zm7.82-10.531v2.078H18.1V-6.8H16.652v4.219a1.007,1.007,0,0,0,.18.672.9.9,0,0,0,.688.2,3.6,3.6,0,0,0,.664-.055V-.047a4.648,4.648,0,0,1-1.367.2,2.156,2.156,0,0,1-2.422-2.4V-6.8H13.16V-8.453h1.234v-2.078Z" transform="translate(1337 413.101)" fill="#12263f"/>
    <path id="Trazado_819829" data-name="Trazado 819829" d="M10,0H245a10,10,0,0,1,10,10V48a10,10,0,0,1-10,10H10A10,10,0,0,1,0,48V10A10,10,0,0,1,10,0Z" transform="translate(1210 450.101)" fill="#99e5ef"/>
    <path id="Trazado_819835" data-name="Trazado 819835" d="M-17.422-7.453l2.133-3.922h2.7l-3.312,5.641L-12.508,0h-2.727l-2.187-3.984L-19.609,0h-2.727l3.4-5.734-3.312-5.641h2.7Zm9.258,5.789a1.481,1.481,0,0,0,1.016-.344,1.2,1.2,0,0,0,.406-.914h2.117a2.9,2.9,0,0,1-.469,1.574A3.093,3.093,0,0,1-6.355-.238a3.949,3.949,0,0,1-1.77.395A3.67,3.67,0,0,1-10.984-1,4.56,4.56,0,0,1-12.031-4.18v-.148a4.508,4.508,0,0,1,1.039-3.117A3.627,3.627,0,0,1-8.141-8.609a3.555,3.555,0,0,1,2.543.9,3.2,3.2,0,0,1,.973,2.4H-6.742a1.551,1.551,0,0,0-.406-1.072A1.354,1.354,0,0,0-8.18-6.789a1.36,1.36,0,0,0-1.191.575,3.333,3.333,0,0,0-.4,1.866v.235a3.375,3.375,0,0,0,.4,1.878A1.377,1.377,0,0,0-8.164-1.664ZM-3.687-4.3A5.013,5.013,0,0,1-3.2-6.547,3.546,3.546,0,0,1-1.809-8.07,4.069,4.069,0,0,1,.3-8.609,3.849,3.849,0,0,1,3.1-7.562,4.2,4.2,0,0,1,4.3-4.719l.016.578A4.418,4.418,0,0,1,3.234-1.02,3.775,3.775,0,0,1,.32.156,3.793,3.793,0,0,1-2.6-1.016,4.5,4.5,0,0,1-3.687-4.2Zm2.258.16A3.16,3.16,0,0,0-.977-2.3a1.5,1.5,0,0,0,1.3.638A1.5,1.5,0,0,0,1.6-2.294a3.457,3.457,0,0,0,.461-2.015A3.128,3.128,0,0,0,1.6-6.14,1.5,1.5,0,0,0,.3-6.789a1.474,1.474,0,0,0-1.281.646A3.516,3.516,0,0,0-1.43-4.144Zm6.789-.145a5.094,5.094,0,0,1,.887-3.148A2.877,2.877,0,0,1,8.672-8.609a2.589,2.589,0,0,1,2.039.922V-12h2.266V0H10.938l-.109-.9A2.657,2.657,0,0,1,8.656.156,2.869,2.869,0,0,1,6.262-1.02,5.258,5.258,0,0,1,5.359-4.289Zm2.258.161A3.355,3.355,0,0,0,8.031-2.3a1.348,1.348,0,0,0,1.2.636,1.51,1.51,0,0,0,1.477-.887V-5.9A1.489,1.489,0,0,0,9.25-6.789Q7.617-6.789,7.617-4.128Zm11,4.285A4.15,4.15,0,0,1,15.59-.984a4.054,4.054,0,0,1-1.168-3.039v-.219a5.106,5.106,0,0,1,.492-2.277,3.612,3.612,0,0,1,1.395-1.547,3.914,3.914,0,0,1,2.059-.543A3.508,3.508,0,0,1,21.1-7.516a4.444,4.444,0,0,1,1,3.1v.922H16.711a2.1,2.1,0,0,0,.66,1.328,2,2,0,0,0,1.395.5A2.437,2.437,0,0,0,20.8-2.609l1.109,1.242A3.389,3.389,0,0,1,20.539-.246,4.511,4.511,0,0,1,18.617.156Zm-.258-6.945a1.411,1.411,0,0,0-1.09.455,2.357,2.357,0,0,0-.535,1.3h3.141v-.181a1.681,1.681,0,0,0-.406-1.165A1.456,1.456,0,0,0,18.359-6.789Z" transform="translate(1337 486.101)" fill="#12263f"/>
    <path id="Trazado_819825" data-name="Trazado 819825" d="M10,0H245a10,10,0,0,1,10,10V48a10,10,0,0,1-10,10H10A10,10,0,0,1,0,48V10A10,10,0,0,1,10,0Z" transform="translate(1210 523.101)" fill="#99e5ef"/>
    <path id="Trazado_819826" data-name="Trazado 819826" d="M-53.766,0V-11.375h3.984a5.232,5.232,0,0,1,3.141.793,2.712,2.712,0,0,1,1.07,2.324A2.57,2.57,0,0,1-46-6.785a2.482,2.482,0,0,1-1.2.934,2.4,2.4,0,0,1,1.379.883,2.61,2.61,0,0,1,.5,1.625A3,3,0,0,1-46.359-.859,4.713,4.713,0,0,1-49.344,0Zm2.344-4.953v3.07h2.008a1.938,1.938,0,0,0,1.293-.395,1.353,1.353,0,0,0,.465-1.09,1.428,1.428,0,0,0-1.617-1.586Zm0-1.656h1.734q1.773-.031,1.773-1.414a1.307,1.307,0,0,0-.449-1.113,2.363,2.363,0,0,0-1.418-.34h-1.641ZM-38.8,0a2.507,2.507,0,0,1-.227-.758,2.732,2.732,0,0,1-2.133.914,3,3,0,0,1-2.059-.719,2.312,2.312,0,0,1-.816-1.812,2.389,2.389,0,0,1,1-2.062,4.915,4.915,0,0,1,2.879-.727h1.039v-.484a1.393,1.393,0,0,0-.3-.937,1.183,1.183,0,0,0-.949-.352,1.345,1.345,0,0,0-.895.273.929.929,0,0,0-.324.75h-2.258A2.268,2.268,0,0,1-43.4-7.273a3,3,0,0,1,1.281-.98,4.669,4.669,0,0,1,1.859-.355,3.689,3.689,0,0,1,2.48.785,2.747,2.747,0,0,1,.918,2.207v3.664a4.041,4.041,0,0,0,.336,1.82V0Zm-1.867-1.57a1.945,1.945,0,0,0,.922-.223,1.462,1.462,0,0,0,.625-.6V-3.844h-.844q-1.7,0-1.8,1.172l-.008.133a.9.9,0,0,0,.3.7A1.153,1.153,0,0,0-40.672-1.57Zm10.125-.766a.727.727,0,0,0-.41-.652,4.659,4.659,0,0,0-1.316-.426q-3.016-.633-3.016-2.562a2.323,2.323,0,0,1,.934-1.879,3.766,3.766,0,0,1,2.441-.754,4.053,4.053,0,0,1,2.574.758,2.388,2.388,0,0,1,.965,1.969h-2.258a1.092,1.092,0,0,0-.312-.8A1.322,1.322,0,0,0-31.922-7a1.351,1.351,0,0,0-.883.258.814.814,0,0,0-.312.656.7.7,0,0,0,.355.605,3.657,3.657,0,0,0,1.2.4,9.8,9.8,0,0,1,1.422.379A2.336,2.336,0,0,1-28.352-2.43a2.2,2.2,0,0,1-.992,1.871,4.28,4.28,0,0,1-2.562.715,4.47,4.47,0,0,1-1.887-.379,3.166,3.166,0,0,1-1.293-1.039,2.414,2.414,0,0,1-.469-1.426h2.141a1.179,1.179,0,0,0,.445.922,1.766,1.766,0,0,0,1.109.32,1.635,1.635,0,0,0,.98-.246A.766.766,0,0,0-30.547-2.336ZM-23.008.156A4.15,4.15,0,0,1-26.035-.984,4.054,4.054,0,0,1-27.2-4.023v-.219a5.106,5.106,0,0,1,.492-2.277,3.612,3.612,0,0,1,1.395-1.547,3.914,3.914,0,0,1,2.059-.543,3.508,3.508,0,0,1,2.73,1.094,4.444,4.444,0,0,1,1,3.1v.922h-5.383a2.1,2.1,0,0,0,.66,1.328,2,2,0,0,0,1.395.5,2.437,2.437,0,0,0,2.039-.945l1.109,1.242A3.389,3.389,0,0,1-21.086-.246,4.511,4.511,0,0,1-23.008.156Zm-.258-6.945a1.411,1.411,0,0,0-1.09.455,2.357,2.357,0,0,0-.535,1.3h3.141v-.181a1.681,1.681,0,0,0-.406-1.165A1.456,1.456,0,0,0-23.266-6.789Zm9.594,4.453a.727.727,0,0,0-.41-.652A4.659,4.659,0,0,0-15.4-3.414q-3.016-.633-3.016-2.562a2.323,2.323,0,0,1,.934-1.879,3.766,3.766,0,0,1,2.441-.754,4.053,4.053,0,0,1,2.574.758A2.388,2.388,0,0,1-11.5-5.883h-2.258a1.092,1.092,0,0,0-.312-.8A1.322,1.322,0,0,0-15.047-7a1.351,1.351,0,0,0-.883.258.814.814,0,0,0-.312.656.7.7,0,0,0,.355.605,3.657,3.657,0,0,0,1.2.4,9.8,9.8,0,0,1,1.422.379A2.336,2.336,0,0,1-11.477-2.43a2.2,2.2,0,0,1-.992,1.871,4.28,4.28,0,0,1-2.562.715,4.47,4.47,0,0,1-1.887-.379,3.166,3.166,0,0,1-1.293-1.039,2.414,2.414,0,0,1-.469-1.426h2.141a1.179,1.179,0,0,0,.445.922,1.766,1.766,0,0,0,1.109.32A1.635,1.635,0,0,0-14-1.691.766.766,0,0,0-13.672-2.336Zm7.281-1.953A5.094,5.094,0,0,1-5.5-7.437,2.877,2.877,0,0,1-3.078-8.609a2.589,2.589,0,0,1,2.039.922V-12H1.227V0H-.812L-.922-.9A2.657,2.657,0,0,1-3.094.156,2.869,2.869,0,0,1-5.488-1.02,5.258,5.258,0,0,1-6.391-4.289Zm2.258.161A3.355,3.355,0,0,0-3.719-2.3a1.348,1.348,0,0,0,1.2.636,1.51,1.51,0,0,0,1.477-.887V-5.9A1.489,1.489,0,0,0-2.5-6.789Q-4.133-6.789-4.133-4.128Zm11,4.285A4.15,4.15,0,0,1,3.84-.984,4.054,4.054,0,0,1,2.672-4.023v-.219A5.106,5.106,0,0,1,3.164-6.52,3.612,3.612,0,0,1,4.559-8.066a3.914,3.914,0,0,1,2.059-.543,3.508,3.508,0,0,1,2.73,1.094,4.444,4.444,0,0,1,1,3.1v.922H4.961a2.1,2.1,0,0,0,.66,1.328,2,2,0,0,0,1.395.5,2.437,2.437,0,0,0,2.039-.945l1.109,1.242A3.389,3.389,0,0,1,8.789-.246,4.511,4.511,0,0,1,6.867.156ZM6.609-6.789a1.411,1.411,0,0,0-1.09.455,2.357,2.357,0,0,0-.535,1.3H8.125v-.181a1.681,1.681,0,0,0-.406-1.165A1.456,1.456,0,0,0,6.609-6.789Zm8.648,2.5a5.094,5.094,0,0,1,.887-3.148A2.877,2.877,0,0,1,18.57-8.609a2.589,2.589,0,0,1,2.039.922V-12h2.266V0H20.836l-.109-.9A2.657,2.657,0,0,1,18.555.156,2.869,2.869,0,0,1,16.16-1.02,5.258,5.258,0,0,1,15.258-4.289Zm2.258.161A3.355,3.355,0,0,0,17.93-2.3a1.348,1.348,0,0,0,1.2.636,1.51,1.51,0,0,0,1.477-.887V-5.9a1.489,1.489,0,0,0-1.461-.887Q17.516-6.789,17.516-4.128ZM29.523,0A2.507,2.507,0,0,1,29.3-.758a2.732,2.732,0,0,1-2.133.914,3,3,0,0,1-2.059-.719,2.312,2.312,0,0,1-.816-1.812,2.389,2.389,0,0,1,1-2.062,4.915,4.915,0,0,1,2.879-.727H29.2v-.484a1.393,1.393,0,0,0-.3-.937,1.183,1.183,0,0,0-.949-.352,1.345,1.345,0,0,0-.895.273.929.929,0,0,0-.324.75H24.477a2.268,2.268,0,0,1,.453-1.359,3,3,0,0,1,1.281-.98,4.669,4.669,0,0,1,1.859-.355,3.689,3.689,0,0,1,2.48.785,2.747,2.747,0,0,1,.918,2.207v3.664A4.041,4.041,0,0,0,31.8-.133V0ZM27.656-1.57a1.945,1.945,0,0,0,.922-.223,1.462,1.462,0,0,0,.625-.6V-3.844h-.844q-1.7,0-1.8,1.172l-.008.133a.9.9,0,0,0,.3.7A1.153,1.153,0,0,0,27.656-1.57Zm8.25-8.961v2.078h1.445V-6.8H35.906v4.219a1.007,1.007,0,0,0,.18.672.9.9,0,0,0,.688.2,3.6,3.6,0,0,0,.664-.055V-.047a4.648,4.648,0,0,1-1.367.2,2.156,2.156,0,0,1-2.422-2.4V-6.8H32.414V-8.453h1.234v-2.078ZM38.023-4.3a5.013,5.013,0,0,1,.484-2.242A3.546,3.546,0,0,1,39.9-8.07a4.069,4.069,0,0,1,2.113-.539,3.849,3.849,0,0,1,2.793,1.047,4.2,4.2,0,0,1,1.207,2.844l.016.578A4.418,4.418,0,0,1,44.945-1.02,3.775,3.775,0,0,1,42.031.156a3.793,3.793,0,0,1-2.918-1.172A4.5,4.5,0,0,1,38.023-4.2Zm2.258.16A3.16,3.16,0,0,0,40.734-2.3a1.5,1.5,0,0,0,1.3.638,1.5,1.5,0,0,0,1.281-.63,3.457,3.457,0,0,0,.461-2.015,3.128,3.128,0,0,0-.461-1.831,1.5,1.5,0,0,0-1.3-.649,1.474,1.474,0,0,0-1.281.646A3.516,3.516,0,0,0,40.281-4.144ZM52-2.336a.727.727,0,0,0-.41-.652,4.659,4.659,0,0,0-1.316-.426q-3.016-.633-3.016-2.562a2.323,2.323,0,0,1,.934-1.879,3.766,3.766,0,0,1,2.441-.754,4.053,4.053,0,0,1,2.574.758,2.388,2.388,0,0,1,.965,1.969H51.914a1.092,1.092,0,0,0-.312-.8A1.322,1.322,0,0,0,50.625-7a1.351,1.351,0,0,0-.883.258.814.814,0,0,0-.312.656.7.7,0,0,0,.355.605,3.657,3.657,0,0,0,1.2.4,9.8,9.8,0,0,1,1.422.379A2.336,2.336,0,0,1,54.2-2.43,2.2,2.2,0,0,1,53.2-.559a4.28,4.28,0,0,1-2.562.715,4.47,4.47,0,0,1-1.887-.379,3.166,3.166,0,0,1-1.293-1.039,2.414,2.414,0,0,1-.469-1.426h2.141a1.179,1.179,0,0,0,.445.922,1.766,1.766,0,0,0,1.109.32,1.635,1.635,0,0,0,.98-.246A.766.766,0,0,0,52-2.336Z" transform="translate(1337 559.101)" fill="#12263f"/>
    <path id="Trazado_819782" data-name="Trazado 819782" d="M2300.333,408.86V361.51h434.526V623.536" transform="translate(-2015 13)" fill="none" stroke="#707070" stroke-width="1"/>
    <path id="Trazado_819783" data-name="Trazado 819783" d="M2428.333,434.86h69.656V844.745h-69.656" transform="translate(-2015 13)" fill="none" stroke="#707070" stroke-width="1"/>
    <path id="Trazado_819784" data-name="Trazado 819784" d="M2428.333,552.062h68.28" transform="translate(-2015 13)" fill="none" stroke="#707070" stroke-width="1"/>
    <path id="Trazado_819827" data-name="Trazado 819827" d="M7.5,0,15,13H0Z" transform="translate(413.333 572.062) rotate(-90)"/>
    <path id="Trazado_819785" data-name="Trazado 819785" d="M2428.333,552.062h68.28" transform="translate(-2015 84.975)" fill="none" stroke="#707070" stroke-width="1"/>
    <path id="Trazado_819814" data-name="Trazado 819814" d="M7.5,0,15,13H0Z" transform="translate(413.333 644.036) rotate(-90)"/>
    <path id="Trazado_819786" data-name="Trazado 819786" d="M2428.333,552.062h68.28" transform="translate(-2015 159.5)" fill="none" stroke="#707070" stroke-width="1"/>
    <path id="Trazado_819815" data-name="Trazado 819815" d="M7.5,0,15,13H0Z" transform="translate(413.333 718.562) rotate(-90)"/>
    <path id="Trazado_819787" data-name="Trazado 819787" d="M2428.333,552.062h68.28" transform="translate(-2015 232)" fill="none" stroke="#707070" stroke-width="1"/>
    <path id="Trazado_819816" data-name="Trazado 819816" d="M7.5,0,15,13H0Z" transform="translate(413.333 791.062) rotate(-90)"/>
    <path id="Trazado_819817" data-name="Trazado 819817" d="M7.5,0,15,13H0Z" transform="translate(413.333 864.562) rotate(-90)"/>
    <path id="Trazado_819788" data-name="Trazado 819788" d="M2877.333,673.007h65.5V492.063" transform="translate(-2015 13)" fill="none" stroke="#707070" stroke-width="1"/>
    <path id="Trazado_819830" data-name="Trazado 819830" d="M7.5,0,15,13H0Z" transform="translate(920.333 505.523)"/>
    <path id="Trazado_819789" data-name="Trazado 819789" d="M3015.922,673.007h409.925V970.562" transform="translate(-2088.089 13)" fill="none" stroke="#707070" stroke-width="1"/>
    <path id="Trazado_819818" data-name="Trazado 819818" d="M10,0H245a10,10,0,0,1,10,10V48a10,10,0,0,1-10,10H10A10,10,0,0,1,0,48V10A10,10,0,0,1,10,0Z" transform="translate(1210 865.062)" fill="#99e5ef"/>
    <path id="Trazado_819819" data-name="Trazado 819819" d="M-77.254-9.477h-3.484V0h-2.344V-9.477H-86.52v-1.9h9.266ZM-73.684,0h-2.266V-8.453h2.266Zm-2.4-10.641a1.112,1.112,0,0,1,.34-.836,1.277,1.277,0,0,1,.926-.328,1.28,1.28,0,0,1,.922.328,1.105,1.105,0,0,1,.344.836A1.108,1.108,0,0,1-73.9-9.8a1.283,1.283,0,0,1-.918.328,1.283,1.283,0,0,1-.918-.328A1.108,1.108,0,0,1-76.082-10.641Zm8.148,10.8A4.15,4.15,0,0,1-70.961-.984a4.054,4.054,0,0,1-1.168-3.039v-.219a5.106,5.106,0,0,1,.492-2.277,3.612,3.612,0,0,1,1.395-1.547,3.914,3.914,0,0,1,2.059-.543,3.508,3.508,0,0,1,2.73,1.094,4.444,4.444,0,0,1,1,3.1v.922H-69.84a2.1,2.1,0,0,0,.66,1.328,2,2,0,0,0,1.395.5,2.437,2.437,0,0,0,2.039-.945l1.109,1.242A3.389,3.389,0,0,1-66.012-.246,4.511,4.511,0,0,1-67.934.156Zm-.258-6.945a1.411,1.411,0,0,0-1.09.455,2.357,2.357,0,0,0-.535,1.3h3.141v-.181a1.681,1.681,0,0,0-.406-1.165A1.456,1.456,0,0,0-68.191-6.789ZM-61.1-8.453l.07.977A2.951,2.951,0,0,1-58.6-8.609a2.453,2.453,0,0,1,2,.789,3.682,3.682,0,0,1,.672,2.359V0h-2.258V-5.419A1.47,1.47,0,0,0-58.5-6.464a1.4,1.4,0,0,0-1.039-.325,1.553,1.553,0,0,0-1.43.814V0h-2.258V-8.453Zm6.531,4.164a5.094,5.094,0,0,1,.887-3.148,2.877,2.877,0,0,1,2.426-1.172,2.589,2.589,0,0,1,2.039.922V-12h2.266V0h-2.039L-49.1-.9A2.657,2.657,0,0,1-51.27.156,2.869,2.869,0,0,1-53.664-1.02,5.258,5.258,0,0,1-54.566-4.289Zm2.258.161A3.355,3.355,0,0,0-51.895-2.3a1.348,1.348,0,0,0,1.2.636,1.51,1.51,0,0,0,1.477-.887V-5.9a1.489,1.489,0,0,0-1.461-.887Q-52.309-6.789-52.309-4.128ZM-40.3,0a2.507,2.507,0,0,1-.227-.758A2.732,2.732,0,0,1-42.66.156a3,3,0,0,1-2.059-.719,2.312,2.312,0,0,1-.816-1.812,2.389,2.389,0,0,1,1-2.062,4.915,4.915,0,0,1,2.879-.727h1.039v-.484a1.393,1.393,0,0,0-.3-.937,1.183,1.183,0,0,0-.949-.352,1.345,1.345,0,0,0-.895.273.929.929,0,0,0-.324.75h-2.258a2.268,2.268,0,0,1,.453-1.359,3,3,0,0,1,1.281-.98,4.669,4.669,0,0,1,1.859-.355,3.689,3.689,0,0,1,2.48.785,2.747,2.747,0,0,1,.918,2.207v3.664a4.041,4.041,0,0,0,.336,1.82V0Zm-1.867-1.57a1.945,1.945,0,0,0,.922-.223,1.462,1.462,0,0,0,.625-.6V-3.844h-.844q-1.7,0-1.8,1.172l-.008.133a.9.9,0,0,0,.3.7A1.153,1.153,0,0,0-42.168-1.57Zm10.125-.766a.727.727,0,0,0-.41-.652,4.659,4.659,0,0,0-1.316-.426q-3.016-.633-3.016-2.562a2.323,2.323,0,0,1,.934-1.879,3.766,3.766,0,0,1,2.441-.754,4.053,4.053,0,0,1,2.574.758,2.388,2.388,0,0,1,.965,1.969h-2.258a1.092,1.092,0,0,0-.312-.8A1.322,1.322,0,0,0-33.418-7a1.351,1.351,0,0,0-.883.258.814.814,0,0,0-.312.656.7.7,0,0,0,.355.605,3.657,3.657,0,0,0,1.2.4,9.8,9.8,0,0,1,1.422.379A2.336,2.336,0,0,1-29.848-2.43,2.2,2.2,0,0,1-30.84-.559,4.28,4.28,0,0,1-33.4.156a4.47,4.47,0,0,1-1.887-.379,3.166,3.166,0,0,1-1.293-1.039,2.414,2.414,0,0,1-.469-1.426h2.141a1.179,1.179,0,0,0,.445.922,1.766,1.766,0,0,0,1.109.32,1.635,1.635,0,0,0,.98-.246A.766.766,0,0,0-32.043-2.336Zm7.281-1.953a5.094,5.094,0,0,1,.887-3.148,2.877,2.877,0,0,1,2.426-1.172,2.589,2.589,0,0,1,2.039.922V-12h2.266V0h-2.039l-.109-.9A2.657,2.657,0,0,1-21.465.156,2.869,2.869,0,0,1-23.859-1.02,5.258,5.258,0,0,1-24.762-4.289Zm2.258.161A3.355,3.355,0,0,0-22.09-2.3a1.348,1.348,0,0,0,1.2.636,1.51,1.51,0,0,0,1.477-.887V-5.9a1.489,1.489,0,0,0-1.461-.887Q-22.5-6.789-22.5-4.128Zm11,4.285A4.15,4.15,0,0,1-14.531-.984,4.054,4.054,0,0,1-15.7-4.023v-.219a5.106,5.106,0,0,1,.492-2.277,3.612,3.612,0,0,1,1.395-1.547,3.914,3.914,0,0,1,2.059-.543,3.508,3.508,0,0,1,2.73,1.094,4.444,4.444,0,0,1,1,3.1v.922H-13.41a2.1,2.1,0,0,0,.66,1.328,2,2,0,0,0,1.395.5,2.437,2.437,0,0,0,2.039-.945l1.109,1.242A3.389,3.389,0,0,1-9.582-.246,4.511,4.511,0,0,1-11.5.156Zm-.258-6.945a1.411,1.411,0,0,0-1.09.455,2.357,2.357,0,0,0-.535,1.3h3.141v-.181a1.681,1.681,0,0,0-.406-1.165A1.456,1.456,0,0,0-11.762-6.789ZM2.137,0A2.507,2.507,0,0,1,1.91-.758,2.732,2.732,0,0,1-.223.156,3,3,0,0,1-2.281-.562,2.312,2.312,0,0,1-3.1-2.375a2.389,2.389,0,0,1,1-2.062A4.915,4.915,0,0,1,.777-5.164H1.816v-.484a1.393,1.393,0,0,0-.3-.937,1.183,1.183,0,0,0-.949-.352,1.345,1.345,0,0,0-.895.273.929.929,0,0,0-.324.75H-2.91a2.268,2.268,0,0,1,.453-1.359,3,3,0,0,1,1.281-.98A4.669,4.669,0,0,1,.684-8.609a3.689,3.689,0,0,1,2.48.785,2.747,2.747,0,0,1,.918,2.207v3.664a4.041,4.041,0,0,0,.336,1.82V0ZM.27-1.57a1.945,1.945,0,0,0,.922-.223,1.462,1.462,0,0,0,.625-.6V-3.844H.973q-1.7,0-1.8,1.172l-.008.133a.9.9,0,0,0,.3.7A1.153,1.153,0,0,0,.27-1.57ZM13.426-4.148a5.07,5.07,0,0,1-.887,3.129A2.843,2.843,0,0,1,10.145.156a2.633,2.633,0,0,1-2.07-.891V3.25H5.816v-11.7H7.91l.078.828a2.654,2.654,0,0,1,2.141-.984,2.862,2.862,0,0,1,2.43,1.156,5.207,5.207,0,0,1,.867,3.188Zm-2.258-.172a3.345,3.345,0,0,0-.418-1.826,1.36,1.36,0,0,0-1.215-.643,1.478,1.478,0,0,0-1.461.815V-2.5a1.5,1.5,0,0,0,1.477.839Q11.168-1.664,11.168-4.321ZM17.207,0H14.941V-12h2.266Zm4.242,0H19.184V-8.453h2.266Zm-2.4-10.641a1.112,1.112,0,0,1,.34-.836,1.277,1.277,0,0,1,.926-.328,1.28,1.28,0,0,1,.922.328,1.105,1.105,0,0,1,.344.836,1.108,1.108,0,0,1-.348.844,1.283,1.283,0,0,1-.918.328A1.283,1.283,0,0,1,19.4-9.8,1.108,1.108,0,0,1,19.051-10.641Zm7.773,8.977a1.481,1.481,0,0,0,1.016-.344,1.2,1.2,0,0,0,.406-.914h2.117a2.9,2.9,0,0,1-.469,1.574A3.093,3.093,0,0,1,28.633-.238a3.949,3.949,0,0,1-1.77.395A3.67,3.67,0,0,1,24-1,4.56,4.56,0,0,1,22.957-4.18v-.148A4.508,4.508,0,0,1,24-7.445a3.627,3.627,0,0,1,2.852-1.164,3.555,3.555,0,0,1,2.543.9,3.2,3.2,0,0,1,.973,2.4H28.246a1.551,1.551,0,0,0-.406-1.072,1.354,1.354,0,0,0-1.031-.412,1.36,1.36,0,0,0-1.191.575,3.333,3.333,0,0,0-.4,1.866v.235a3.375,3.375,0,0,0,.4,1.878A1.377,1.377,0,0,0,26.824-1.664ZM36.551,0a2.507,2.507,0,0,1-.227-.758,2.732,2.732,0,0,1-2.133.914,3,3,0,0,1-2.059-.719,2.312,2.312,0,0,1-.816-1.812,2.389,2.389,0,0,1,1-2.062,4.915,4.915,0,0,1,2.879-.727H36.23v-.484a1.393,1.393,0,0,0-.3-.937,1.183,1.183,0,0,0-.949-.352,1.345,1.345,0,0,0-.895.273.929.929,0,0,0-.324.75H31.5a2.268,2.268,0,0,1,.453-1.359,3,3,0,0,1,1.281-.98A4.669,4.669,0,0,1,35.1-8.609a3.689,3.689,0,0,1,2.48.785A2.747,2.747,0,0,1,38.5-5.617v3.664a4.041,4.041,0,0,0,.336,1.82V0ZM34.684-1.57a1.945,1.945,0,0,0,.922-.223,1.462,1.462,0,0,0,.625-.6V-3.844h-.844q-1.7,0-1.8,1.172l-.008.133a.9.9,0,0,0,.3.7A1.153,1.153,0,0,0,34.684-1.57Zm9.063-.094a1.481,1.481,0,0,0,1.016-.344,1.2,1.2,0,0,0,.406-.914h2.117a2.9,2.9,0,0,1-.469,1.574A3.093,3.093,0,0,1,45.555-.238a3.949,3.949,0,0,1-1.77.395A3.67,3.67,0,0,1,40.926-1,4.56,4.56,0,0,1,39.879-4.18v-.148a4.508,4.508,0,0,1,1.039-3.117A3.627,3.627,0,0,1,43.77-8.609a3.555,3.555,0,0,1,2.543.9,3.2,3.2,0,0,1,.973,2.4H45.168a1.551,1.551,0,0,0-.406-1.072,1.354,1.354,0,0,0-1.031-.412,1.36,1.36,0,0,0-1.191.575,3.333,3.333,0,0,0-.4,1.866v.235a3.375,3.375,0,0,0,.4,1.878A1.377,1.377,0,0,0,43.746-1.664ZM50.957,0H48.691V-8.453h2.266Zm-2.4-10.641a1.112,1.112,0,0,1,.34-.836,1.277,1.277,0,0,1,.926-.328,1.28,1.28,0,0,1,.922.328,1.105,1.105,0,0,1,.344.836,1.108,1.108,0,0,1-.348.844,1.283,1.283,0,0,1-.918.328,1.283,1.283,0,0,1-.918-.328A1.108,1.108,0,0,1,48.559-10.641ZM52.465-4.3a5.013,5.013,0,0,1,.484-2.242A3.546,3.546,0,0,1,54.344-8.07a4.069,4.069,0,0,1,2.113-.539A3.849,3.849,0,0,1,59.25-7.562a4.2,4.2,0,0,1,1.207,2.844l.016.578A4.418,4.418,0,0,1,59.387-1.02,3.775,3.775,0,0,1,56.473.156a3.793,3.793,0,0,1-2.918-1.172A4.5,4.5,0,0,1,52.465-4.2Zm2.258.16A3.16,3.16,0,0,0,55.176-2.3a1.5,1.5,0,0,0,1.3.638,1.5,1.5,0,0,0,1.281-.63,3.457,3.457,0,0,0,.461-2.015,3.128,3.128,0,0,0-.461-1.831,1.5,1.5,0,0,0-1.3-.649,1.474,1.474,0,0,0-1.281.646A3.516,3.516,0,0,0,54.723-4.144Zm9.219-4.309.07.977a2.951,2.951,0,0,1,2.43-1.133,2.453,2.453,0,0,1,2,.789,3.682,3.682,0,0,1,.672,2.359V0H66.855V-5.419a1.47,1.47,0,0,0-.312-1.045A1.4,1.4,0,0,0,65.5-6.789a1.553,1.553,0,0,0-1.43.814V0H61.816V-8.453ZM74.715.156A4.15,4.15,0,0,1,71.688-.984,4.054,4.054,0,0,1,70.52-4.023v-.219a5.106,5.106,0,0,1,.492-2.277,3.612,3.612,0,0,1,1.395-1.547,3.914,3.914,0,0,1,2.059-.543A3.508,3.508,0,0,1,77.2-7.516a4.444,4.444,0,0,1,1,3.1v.922H72.809a2.1,2.1,0,0,0,.66,1.328,2,2,0,0,0,1.395.5A2.437,2.437,0,0,0,76.9-2.609l1.109,1.242A3.389,3.389,0,0,1,76.637-.246,4.511,4.511,0,0,1,74.715.156Zm-.258-6.945a1.411,1.411,0,0,0-1.09.455,2.357,2.357,0,0,0-.535,1.3h3.141v-.181a1.681,1.681,0,0,0-.406-1.165A1.456,1.456,0,0,0,74.457-6.789Zm9.594,4.453a.727.727,0,0,0-.41-.652,4.659,4.659,0,0,0-1.316-.426q-3.016-.633-3.016-2.562a2.323,2.323,0,0,1,.934-1.879,3.766,3.766,0,0,1,2.441-.754,4.053,4.053,0,0,1,2.574.758,2.388,2.388,0,0,1,.965,1.969H83.965a1.092,1.092,0,0,0-.312-.8A1.322,1.322,0,0,0,82.676-7a1.351,1.351,0,0,0-.883.258.814.814,0,0,0-.312.656.7.7,0,0,0,.355.605,3.657,3.657,0,0,0,1.2.4,9.8,9.8,0,0,1,1.422.379A2.336,2.336,0,0,1,86.246-2.43a2.2,2.2,0,0,1-.992,1.871,4.28,4.28,0,0,1-2.562.715A4.47,4.47,0,0,1,80.8-.223a3.166,3.166,0,0,1-1.293-1.039,2.414,2.414,0,0,1-.469-1.426h2.141a1.179,1.179,0,0,0,.445.922,1.766,1.766,0,0,0,1.109.32,1.635,1.635,0,0,0,.98-.246A.766.766,0,0,0,84.051-2.336Z" transform="translate(1337 901.062)" fill="#12263f"/>
    <path id="Trazado_819820" data-name="Trazado 819820" d="M7.5,0,15,13H0Z" transform="translate(1341.212 848) rotate(60)"/>
    <path id="Trazado_819821" data-name="Trazado 819821" d="M7.5,0,15,13H0Z" transform="translate(1341.212 967.062) rotate(60)"/>
    <path id="Trazado_819790" data-name="Trazado 819790" d="M3108.333,920.2h51.292v147.5h-51.292" transform="translate(-2015 13)" fill="none" stroke="#707070" stroke-width="1"/>
    <path id="Trazado_819822" data-name="Trazado 819822" d="M7.5,0,15,13H0Z" transform="translate(1112.823 936.701) rotate(150)"/>
    <path id="Trazado_819798" data-name="Trazado 819798" d="M7.5,0,15,13H0Z" transform="translate(1112.823 1084.701) rotate(150)"/>
    <path id="Trazado_819791" data-name="Trazado 819791" d="M2428.333,552.062H2545" transform="translate(-1335 455.64)" fill="none" stroke="#707070" stroke-width="1"/>
    <path id="Trazado_819799" data-name="Trazado 819799" d="M7.5,0,15,13H0Z" transform="translate(1112.823 1011.58) rotate(150)"/>
    <path id="Trazado_819792" data-name="Trazado 819792" d="M3225,385.1h-55.008V530.328H3225" transform="translate(-2015 22.5)" fill="none" stroke="#707070" stroke-width="1"/>
    <path id="Trazado_819793" data-name="Trazado 819793" d="M2428.333,552.062H2555" transform="translate(-1345 -71.461)" fill="none" stroke="#707070" stroke-width="1"/>
    <path id="Trazado_819840" data-name="Trazado 819840" d="M7.5,0,15,13H0Z" transform="translate(1210 400.101) rotate(90)"/>
    <path id="Trazado_819836" data-name="Trazado 819836" d="M7.5,0,15,13H0Z" transform="translate(1210 473.101) rotate(90)"/>
    <path id="Trazado_819831" data-name="Trazado 819831" d="M7.5,0,15,13H0Z" transform="translate(1210 545.328) rotate(90)"/>
  </g>
</svg>
