<svg xmlns="http://www.w3.org/2000/svg" width="751" height="432" viewBox="0 0 751 432">
  <g id="Grupo_100267" data-name="Grupo 100267" transform="translate(1614 12395)">
    <path id="Trazado_107307" data-name="Trazado 107307" d="M0,0H168V128H0Z" transform="translate(-1317 -12167)" fill="#ffca28"/>
    <path id="Trazado_107312" data-name="Trazado 107312" d="M-22.668-2.344h-4.109L-27.559,0h-2.492l4.234-11.375h2.172L-19.387,0h-2.492Zm-3.477-1.9H-23.3L-24.73-8.5Zm9.375-4.211.07.977a2.951,2.951,0,0,1,2.43-1.133,2.453,2.453,0,0,1,2,.789A3.682,3.682,0,0,1-11.6-5.461V0h-2.258V-5.406a1.465,1.465,0,0,0-.312-1.043,1.4,1.4,0,0,0-1.039-.324,1.553,1.553,0,0,0-1.43.813V0h-2.258V-8.453Zm6.531,4.164a5.094,5.094,0,0,1,.887-3.148A2.877,2.877,0,0,1-6.926-8.609a2.589,2.589,0,0,1,2.039.922V-12h2.266V0H-4.66L-4.77-.9A2.657,2.657,0,0,1-6.941.156,2.869,2.869,0,0,1-9.336-1.02,5.258,5.258,0,0,1-10.238-4.289Zm2.258.164A3.328,3.328,0,0,0-7.566-2.3a1.349,1.349,0,0,0,1.2.633,1.511,1.511,0,0,0,1.477-.883V-5.891a1.489,1.489,0,0,0-1.461-.883Q-7.98-6.773-7.98-4.125ZM3.879-6.336A6.134,6.134,0,0,0,3.066-6.4a1.654,1.654,0,0,0-1.68.867V0H-.871V-8.453H1.262l.063,1.008A2.092,2.092,0,0,1,3.207-8.609a2.366,2.366,0,0,1,.7.1ZM4.332-4.3a5.013,5.013,0,0,1,.484-2.242A3.546,3.546,0,0,1,6.211-8.07a4.069,4.069,0,0,1,2.113-.539,3.849,3.849,0,0,1,2.793,1.047,4.2,4.2,0,0,1,1.207,2.844l.016.578A4.418,4.418,0,0,1,11.254-1.02,3.775,3.775,0,0,1,8.34.156,3.793,3.793,0,0,1,5.422-1.016,4.5,4.5,0,0,1,4.332-4.2Zm2.258.164A3.151,3.151,0,0,0,7.043-2.3a1.5,1.5,0,0,0,1.3.637,1.5,1.5,0,0,0,1.281-.629A3.448,3.448,0,0,0,10.082-4.3a3.12,3.12,0,0,0-.461-1.828,1.5,1.5,0,0,0-1.3-.648,1.475,1.475,0,0,0-1.281.645A3.506,3.506,0,0,0,6.59-4.141ZM16.113,0H13.848V-8.453h2.266Zm-2.4-10.641a1.112,1.112,0,0,1,.34-.836,1.277,1.277,0,0,1,.926-.328,1.28,1.28,0,0,1,.922.328,1.105,1.105,0,0,1,.344.836A1.108,1.108,0,0,1,15.9-9.8a1.283,1.283,0,0,1-.918.328,1.283,1.283,0,0,1-.918-.328A1.108,1.108,0,0,1,13.715-10.641Zm3.906,6.352a5.094,5.094,0,0,1,.887-3.148,2.877,2.877,0,0,1,2.426-1.172,2.589,2.589,0,0,1,2.039.922V-12h2.266V0H23.2L23.09-.9A2.657,2.657,0,0,1,20.918.156,2.869,2.869,0,0,1,18.523-1.02,5.258,5.258,0,0,1,17.621-4.289Zm2.258.164a3.328,3.328,0,0,0,.414,1.82,1.349,1.349,0,0,0,1.2.633,1.511,1.511,0,0,0,1.477-.883V-5.891a1.489,1.489,0,0,0-1.461-.883Q19.879-6.773,19.879-4.125ZM-20,20.961q.164-.93-.914-1.422l-1.508-.6q-2.625-1.172-2.492-3.227a2.964,2.964,0,0,1,.625-1.687,3.758,3.758,0,0,1,1.6-1.152,5.67,5.67,0,0,1,2.227-.4,3.857,3.857,0,0,1,2.664.98,3.267,3.267,0,0,1,1,2.543h-2.281a1.628,1.628,0,0,0-.34-1.2,1.531,1.531,0,0,0-1.176-.445,2.37,2.37,0,0,0-1.359.355,1.458,1.458,0,0,0-.687,1.02q-.148.852,1.141,1.352l1.031.391.594.273q2.3,1.141,2.156,3.2a3.09,3.09,0,0,1-.645,1.738A3.633,3.633,0,0,1-19.926,23.8a5.565,5.565,0,0,1-2.176.367,4.873,4.873,0,0,1-2.156-.508A3.349,3.349,0,0,1-25.7,22.289a3.54,3.54,0,0,1-.43-1.875l2.289.008q-.109,1.852,1.82,1.883a2.392,2.392,0,0,0,1.375-.367A1.43,1.43,0,0,0-20,20.961Zm6.8-.18,2.414-5.234h2.453l-4.945,9.727a4.231,4.231,0,0,1-1.246,1.641,2.723,2.723,0,0,1-1.652.523,5.035,5.035,0,0,1-1.062-.164l.164-1.719.3.016a1.651,1.651,0,0,0,1.578-.789l.484-.9-1.383-8.336H-13.8Zm9.18.836q.125-.625-.867-.906l-.711-.18q-2.523-.7-2.453-2.453a2.428,2.428,0,0,1,1.059-1.949,3.942,3.942,0,0,1,2.457-.738,3.536,3.536,0,0,1,2.313.758,2.5,2.5,0,0,1,.9,1.977l-2.187-.008a.963.963,0,0,0-1.078-1.1,1.551,1.551,0,0,0-.895.258,1.061,1.061,0,0,0-.465.7q-.117.625.945.883l.313.07a6.285,6.285,0,0,1,1.648.59,2.488,2.488,0,0,1,.879.824,2.04,2.04,0,0,1,.285,1.18,2.251,2.251,0,0,1-.52,1.406,3.18,3.18,0,0,1-1.359.93,4.736,4.736,0,0,1-1.816.3,3.568,3.568,0,0,1-2.344-.809A2.607,2.607,0,0,1-8.867,21.3l2.078.016a1.142,1.142,0,0,0,1.3,1.227,1.845,1.845,0,0,0,1-.25A.987.987,0,0,0-4.016,21.617Zm7.625-8.148-.367,2.078H4.648L4.359,17.2H2.953l-.719,4.234a1.077,1.077,0,0,0,.063.609q.109.211.531.227.125.008.672-.039l-.156,1.727a3.706,3.706,0,0,1-1.266.18,1.985,1.985,0,0,1-1.617-.68,2.456,2.456,0,0,1-.437-1.8L.75,17.2h-1.2l.289-1.656h1.2L1.4,13.469ZM8.477,24.156a3.677,3.677,0,0,1-1.965-.543,3.292,3.292,0,0,1-1.277-1.469,4.093,4.093,0,0,1-.328-2.059l.023-.312a5.465,5.465,0,0,1,.719-2.266A4.341,4.341,0,0,1,7.2,15.918a3.827,3.827,0,0,1,2.094-.527,2.926,2.926,0,0,1,2.473,1.2,4.105,4.105,0,0,1,.637,2.957l-.125.961H7.094a1.814,1.814,0,0,0,.4,1.313,1.521,1.521,0,0,0,1.172.508,2.712,2.712,0,0,0,2.109-.93l1.008,1.25a3.135,3.135,0,0,1-1.375,1.121A4.5,4.5,0,0,1,8.477,24.156Zm.7-6.945a1.565,1.565,0,0,0-1.082.383,3.363,3.363,0,0,0-.848,1.383h3.031l.047-.2a2.071,2.071,0,0,0,.008-.594,1.134,1.134,0,0,0-.383-.707A1.2,1.2,0,0,0,9.18,17.211Zm7.266-1.672-.18.961a3.112,3.112,0,0,1,2.477-1.109,2.379,2.379,0,0,1,1.3.359,1.679,1.679,0,0,1,.7.93,3.255,3.255,0,0,1,2.625-1.289,2.126,2.126,0,0,1,1.754.8,3.271,3.271,0,0,1,.5,2.234l-.016.2L24.7,24H22.484l.9-5.4a3.9,3.9,0,0,0,.023-.539.837.837,0,0,0-.937-.844,1.86,1.86,0,0,0-1.555.969l-.023.18L19.906,24H17.7l.9-5.383a3.9,3.9,0,0,0,.023-.539.836.836,0,0,0-.93-.852,1.867,1.867,0,0,0-1.508.789L15.133,24h-2.2l1.461-8.453Z" transform="translate(-1233 -12109)" fill="#12263f"/>
    <path id="Trazado_107315" data-name="Trazado 107315" d="M0,0H168V73H0Z" transform="translate(-1031 -12151)" fill="#26a1b1"/>
    <path id="Trazado_107319" data-name="Trazado 107319" d="M6.852-2.344H2.883L1.711,0H-.812L5.266-11.375H7.383L9.547,0H7.211ZM3.82-4.242H6.563L5.922-8.477ZM14.25-1.656a1.447,1.447,0,0,0,1.016-.332,1.632,1.632,0,0,0,.531-.926l2.07-.008a3.037,3.037,0,0,1-.559,1.6A3.394,3.394,0,0,1,15.965-.211,3.847,3.847,0,0,1,14.2.164,3.123,3.123,0,0,1,11.758-.9a3.965,3.965,0,0,1-.867-2.766l.023-.43.008-.086a5.284,5.284,0,0,1,1.391-3.27,3.761,3.761,0,0,1,2.914-1.16,3.047,3.047,0,0,1,2.27.934A3.3,3.3,0,0,1,18.32-5.3H16.266a1.73,1.73,0,0,0-.3-1.07,1.128,1.128,0,0,0-.891-.422q-1.578-.047-1.914,2.3a7.782,7.782,0,0,0-.086,1.438Q13.156-1.68,14.25-1.656Zm8.938-8.875L22.82-8.453h1.406L23.938-6.8H22.531l-.719,4.234a1.077,1.077,0,0,0,.063.609q.109.211.531.227.125.008.672-.039L22.922-.039a3.706,3.706,0,0,1-1.266.18,1.985,1.985,0,0,1-1.617-.68,2.456,2.456,0,0,1-.437-1.8L20.328-6.8h-1.2l.289-1.656h1.2l.359-2.078ZM26.367,0H24.148l1.469-8.453h2.219Zm-.492-10.6a1.1,1.1,0,0,1,.344-.867,1.209,1.209,0,0,1,.867-.344,1.215,1.215,0,0,1,.867.3,1.1,1.1,0,0,1,.383.828,1.132,1.132,0,0,1-.324.844,1.215,1.215,0,0,1-.887.375,1.235,1.235,0,0,1-.863-.3A1.091,1.091,0,0,1,25.875-10.6Zm5.914,7.813L34.2-8.453H36.57L32.484,0H30.375L28.93-8.453h2.234ZM38.484,0H36.266l1.469-8.453h2.219Zm-.492-10.6a1.1,1.1,0,0,1,.344-.867,1.209,1.209,0,0,1,.867-.344,1.215,1.215,0,0,1,.867.3,1.1,1.1,0,0,1,.383.828,1.132,1.132,0,0,1-.324.844,1.215,1.215,0,0,1-.887.375,1.235,1.235,0,0,1-.863-.3A1.091,1.091,0,0,1,37.992-10.6Zm6.828.07-.367,2.078h1.406L45.57-6.8H44.164l-.719,4.234a1.077,1.077,0,0,0,.063.609q.109.211.531.227.125.008.672-.039L44.555-.039a3.706,3.706,0,0,1-1.266.18,1.985,1.985,0,0,1-1.617-.68,2.456,2.456,0,0,1-.437-1.8L41.961-6.8h-1.2l.289-1.656h1.2l.359-2.078Zm4.438,7.313,2.414-5.234h2.453L49.18,1.273a4.231,4.231,0,0,1-1.246,1.641,2.723,2.723,0,0,1-1.652.523,5.035,5.035,0,0,1-1.062-.164l.164-1.719.3.016A1.651,1.651,0,0,0,47.266.781l.484-.9L46.367-8.453h2.281ZM57.625,0,59.6-11.375l3.547.008a4.705,4.705,0,0,1,2.969.8,2.488,2.488,0,0,1,.9,2.242A2.865,2.865,0,0,1,65.023-5.8a1.911,1.911,0,0,1,1.055.879A2.63,2.63,0,0,1,66.4-3.4a3.291,3.291,0,0,1-1.262,2.5A5,5,0,0,1,61.992,0Zm3.156-4.953-.539,3.07,1.8.008a2.327,2.327,0,0,0,1.414-.418,1.658,1.658,0,0,0,.68-1.129,1.4,1.4,0,0,0-.191-1.1,1.269,1.269,0,0,0-1.012-.426Zm.281-1.656,1.555.016A2.475,2.475,0,0,0,64.035-7a1.575,1.575,0,0,0,.66-1.086q.2-1.375-1.445-1.383l-1.687-.008Z" transform="translate(-981 -12109)" fill="#fff"/>
    <path id="Trazado_107018" data-name="Trazado 107018" d="M-3891.738-10451s53.031-463.125,250.859-38.066" transform="translate(2354 -1700)" fill="none" stroke="#000" stroke-width="1" stroke-dasharray="6"/>
    <path id="Trazado_107305" data-name="Trazado 107305" d="M0,0H168V73H0Z" transform="translate(-1614 -12266)" fill="#a9ebf4"/>
    <path id="Trazado_107308" data-name="Trazado 107308" d="M6.422-3.039q.164-.93-.914-1.422L4-5.062Q1.375-6.234,1.508-8.289a2.964,2.964,0,0,1,.625-1.687,3.758,3.758,0,0,1,1.6-1.152,5.67,5.67,0,0,1,2.227-.4,3.857,3.857,0,0,1,2.664.98,3.267,3.267,0,0,1,1,2.543H7.344A1.628,1.628,0,0,0,7-9.211a1.531,1.531,0,0,0-1.176-.445A2.37,2.37,0,0,0,4.469-9.3a1.458,1.458,0,0,0-.687,1.02Q3.633-7.43,4.922-6.93l1.031.391.594.273q2.3,1.141,2.156,3.2a3.09,3.09,0,0,1-.645,1.738A3.633,3.633,0,0,1,6.5-.2,5.565,5.565,0,0,1,4.32.164,4.873,4.873,0,0,1,2.164-.344,3.349,3.349,0,0,1,.727-1.711,3.54,3.54,0,0,1,.3-3.586l2.289.008Q2.477-1.727,4.406-1.7a2.392,2.392,0,0,0,1.375-.367A1.43,1.43,0,0,0,6.422-3.039Zm7.688-7.492-.367,2.078h1.406L14.859-6.8H13.453l-.719,4.234a1.077,1.077,0,0,0,.063.609q.109.211.531.227.125.008.672-.039L13.844-.039a3.706,3.706,0,0,1-1.266.18,1.985,1.985,0,0,1-1.617-.68,2.456,2.456,0,0,1-.437-1.8L11.25-6.8h-1.2l.289-1.656h1.2l.359-2.078ZM19.852,0a2.281,2.281,0,0,1-.086-.766,2.863,2.863,0,0,1-2.156.922,2.594,2.594,0,0,1-1.84-.723,2.186,2.186,0,0,1-.684-1.746,2.527,2.527,0,0,1,1.16-2.121,5.266,5.266,0,0,1,2.965-.738l1.031.016.109-.508a1.764,1.764,0,0,0,.023-.492A.846.846,0,0,0,20.1-6.73a.955.955,0,0,0-.629-.215,1.345,1.345,0,0,0-.875.254,1.231,1.231,0,0,0-.461.777l-2.211.008a2.457,2.457,0,0,1,1.113-1.965,4.312,4.312,0,0,1,2.613-.738,3.117,3.117,0,0,1,2.25.855,2.5,2.5,0,0,1,.68,2.121L21.93-1.586l-.039.5a2.412,2.412,0,0,0,.133.938L22.016,0Zm-1.7-1.555a2.017,2.017,0,0,0,1.664-.828l.273-1.461-.766-.008a2.139,2.139,0,0,0-1.758.742,1.292,1.292,0,0,0-.242.633.75.75,0,0,0,.176.668A.891.891,0,0,0,18.156-1.555ZM29.148-6.336a4.548,4.548,0,0,0-.742-.078,2.136,2.136,0,0,0-1.867.883L25.563,0h-2.2l1.469-8.453,2.07-.008L26.7-7.43a2.325,2.325,0,0,1,1.969-1.2,3.214,3.214,0,0,1,.766.109Zm4.813-4.2-.367,2.078H35L34.711-6.8H33.3l-.719,4.234a1.077,1.077,0,0,0,.063.609q.109.211.531.227.125.008.672-.039L33.7-.039a3.706,3.706,0,0,1-1.266.18,1.985,1.985,0,0,1-1.617-.68,2.456,2.456,0,0,1-.437-1.8L31.1-6.8h-1.2L30.2-8.453h1.2l.359-2.078Zm7.68,8.188H37.672L36.5,0H33.977l6.078-11.375h2.117L44.336,0H42Zm-3.031-1.9h2.742l-.641-4.234Zm10.43,2.586a1.447,1.447,0,0,0,1.016-.332,1.632,1.632,0,0,0,.531-.926l2.07-.008a3.037,3.037,0,0,1-.559,1.6A3.394,3.394,0,0,1,50.754-.211a3.847,3.847,0,0,1-1.77.375A3.123,3.123,0,0,1,46.547-.9a3.965,3.965,0,0,1-.867-2.766l.023-.43.008-.086A5.284,5.284,0,0,1,47.1-7.449a3.761,3.761,0,0,1,2.914-1.16,3.047,3.047,0,0,1,2.27.934A3.3,3.3,0,0,1,53.109-5.3H51.055a1.73,1.73,0,0,0-.3-1.07,1.128,1.128,0,0,0-.891-.422q-1.578-.047-1.914,2.3a7.782,7.782,0,0,0-.086,1.438Q47.945-1.68,49.039-1.656Zm8.938-8.875-.367,2.078h1.406L58.727-6.8H57.32L56.6-2.562a1.077,1.077,0,0,0,.063.609q.109.211.531.227.125.008.672-.039L57.711-.039a3.706,3.706,0,0,1-1.266.18,1.985,1.985,0,0,1-1.617-.68,2.456,2.456,0,0,1-.437-1.8L55.117-6.8h-1.2l.289-1.656h1.2l.359-2.078ZM61.156,0H58.938l1.469-8.453h2.219Zm-.492-10.6a1.1,1.1,0,0,1,.344-.867,1.209,1.209,0,0,1,.867-.344,1.215,1.215,0,0,1,.867.3,1.1,1.1,0,0,1,.383.828,1.132,1.132,0,0,1-.324.844,1.215,1.215,0,0,1-.887.375,1.235,1.235,0,0,1-.863-.3A1.091,1.091,0,0,1,60.664-10.6Zm5.914,7.813,2.406-5.664h2.375L67.273,0H65.164L63.719-8.453h2.234ZM73.273,0H71.055l1.469-8.453h2.219Zm-.492-10.6a1.1,1.1,0,0,1,.344-.867,1.209,1.209,0,0,1,.867-.344,1.215,1.215,0,0,1,.867.3,1.1,1.1,0,0,1,.383.828,1.132,1.132,0,0,1-.324.844,1.215,1.215,0,0,1-.887.375,1.235,1.235,0,0,1-.863-.3A1.091,1.091,0,0,1,72.781-10.6Zm6.828.07-.367,2.078h1.406L80.359-6.8H78.953l-.719,4.234a1.077,1.077,0,0,0,.063.609q.109.211.531.227.125.008.672-.039L79.344-.039a3.706,3.706,0,0,1-1.266.18,1.985,1.985,0,0,1-1.617-.68,2.456,2.456,0,0,1-.437-1.8L76.75-6.8h-1.2l.289-1.656h1.2l.359-2.078Zm4.438,7.313,2.414-5.234h2.453L83.969,1.273a4.231,4.231,0,0,1-1.246,1.641,2.723,2.723,0,0,1-1.652.523,5.035,5.035,0,0,1-1.062-.164l.164-1.719.3.016A1.651,1.651,0,0,0,82.055.781l.484-.9L81.156-8.453h2.281Zm5.211-1.375a13.2,13.2,0,0,1,1.668-4.988,7.175,7.175,0,0,1,3.246-3.066l.375,1.258q-2.672,2.039-3.383,6.555a19.375,19.375,0,0,0-.258,2.75q-.039,3.211,1.469,4.461l-.492,1.18A5.13,5.13,0,0,1,89.523.313,10.87,10.87,0,0,1,89.125-3a13.121,13.121,0,0,1,.1-1.406Zm4.133,8.172-.375-1.234Q95.7.273,96.4-4.281a19.275,19.275,0,0,0,.242-2.7q.039-3.211-1.453-4.469l.492-1.18a4.565,4.565,0,0,1,1.582,1.457,6.725,6.725,0,0,1,.977,2.309,11.6,11.6,0,0,1,.3,2.781,13.865,13.865,0,0,1-.75,4.223,11.039,11.039,0,0,1-1.84,3.441A6.68,6.68,0,0,1,93.391,3.578Z" transform="translate(-1579 -12224)" fill="#12263f"/>
    <path id="Trazado_107309" data-name="Trazado 107309" d="M0,0H168V73H0Z" transform="translate(-1614 -12151)" fill="#26a1b1"/>
    <path id="Trazado_107313" data-name="Trazado 107313" d="M6.852-2.344H2.883L1.711,0H-.812L5.266-11.375H7.383L9.547,0H7.211ZM3.82-4.242H6.563L5.922-8.477ZM14.25-1.656a1.447,1.447,0,0,0,1.016-.332,1.632,1.632,0,0,0,.531-.926l2.07-.008a3.037,3.037,0,0,1-.559,1.6A3.394,3.394,0,0,1,15.965-.211,3.847,3.847,0,0,1,14.2.164,3.123,3.123,0,0,1,11.758-.9a3.965,3.965,0,0,1-.867-2.766l.023-.43.008-.086a5.284,5.284,0,0,1,1.391-3.27,3.761,3.761,0,0,1,2.914-1.16,3.047,3.047,0,0,1,2.27.934A3.3,3.3,0,0,1,18.32-5.3H16.266a1.73,1.73,0,0,0-.3-1.07,1.128,1.128,0,0,0-.891-.422q-1.578-.047-1.914,2.3a7.782,7.782,0,0,0-.086,1.438Q13.156-1.68,14.25-1.656Zm8.938-8.875L22.82-8.453h1.406L23.938-6.8H22.531l-.719,4.234a1.077,1.077,0,0,0,.063.609q.109.211.531.227.125.008.672-.039L22.922-.039a3.706,3.706,0,0,1-1.266.18,1.985,1.985,0,0,1-1.617-.68,2.456,2.456,0,0,1-.437-1.8L20.328-6.8h-1.2l.289-1.656h1.2l.359-2.078ZM26.367,0H24.148l1.469-8.453h2.219Zm-.492-10.6a1.1,1.1,0,0,1,.344-.867,1.209,1.209,0,0,1,.867-.344,1.215,1.215,0,0,1,.867.3,1.1,1.1,0,0,1,.383.828,1.132,1.132,0,0,1-.324.844,1.215,1.215,0,0,1-.887.375,1.235,1.235,0,0,1-.863-.3A1.091,1.091,0,0,1,25.875-10.6Zm5.914,7.813L34.2-8.453H36.57L32.484,0H30.375L28.93-8.453h2.234ZM38.484,0H36.266l1.469-8.453h2.219Zm-.492-10.6a1.1,1.1,0,0,1,.344-.867,1.209,1.209,0,0,1,.867-.344,1.215,1.215,0,0,1,.867.3,1.1,1.1,0,0,1,.383.828,1.132,1.132,0,0,1-.324.844,1.215,1.215,0,0,1-.887.375,1.235,1.235,0,0,1-.863-.3A1.091,1.091,0,0,1,37.992-10.6Zm6.828.07-.367,2.078h1.406L45.57-6.8H44.164l-.719,4.234a1.077,1.077,0,0,0,.063.609q.109.211.531.227.125.008.672-.039L44.555-.039a3.706,3.706,0,0,1-1.266.18,1.985,1.985,0,0,1-1.617-.68,2.456,2.456,0,0,1-.437-1.8L41.961-6.8h-1.2l.289-1.656h1.2l.359-2.078Zm4.438,7.313,2.414-5.234h2.453L49.18,1.273a4.231,4.231,0,0,1-1.246,1.641,2.723,2.723,0,0,1-1.652.523,5.035,5.035,0,0,1-1.062-.164l.164-1.719.3.016A1.651,1.651,0,0,0,47.266.781l.484-.9L46.367-8.453h2.281Zm15.055.875H60.344L59.172,0H56.648l6.078-11.375h2.117L67.008,0H64.672Zm-3.031-1.9h2.742l-.641-4.234Z" transform="translate(-1564 -12109)" fill="#fff"/>
    <path id="Trazado_107304" data-name="Trazado 107304" d="M0,0H168V73H0Z" transform="translate(-1446 -12395)" fill="#a9ebf4"/>
    <path id="Trazado_107306" data-name="Trazado 107306" d="M2.6,0H.313L2.281-11.375H4.57ZM8.109-8.461l-.187,1a3.042,3.042,0,0,1,2.461-1.148,2.028,2.028,0,0,1,1.766.875,3.526,3.526,0,0,1,.414,2.359L11.672,0h-2.2l.906-5.4a2.528,2.528,0,0,0,.016-.555.9.9,0,0,0-1-.82,1.9,1.9,0,0,0-1.555.8L6.781,0h-2.2L6.047-8.453Zm9.758-2.07L17.5-8.453h1.406L18.617-6.8H17.211l-.719,4.234a1.077,1.077,0,0,0,.063.609q.109.211.531.227.125.008.672-.039L17.6-.039a3.706,3.706,0,0,1-1.266.18,1.985,1.985,0,0,1-1.617-.68,2.456,2.456,0,0,1-.437-1.8L15.008-6.8h-1.2L14.1-8.453h1.2l.359-2.078ZM22.734.156A3.677,3.677,0,0,1,20.77-.387a3.292,3.292,0,0,1-1.277-1.469,4.093,4.093,0,0,1-.328-2.059l.023-.312a5.465,5.465,0,0,1,.719-2.266,4.341,4.341,0,0,1,1.547-1.59,3.827,3.827,0,0,1,2.094-.527,2.926,2.926,0,0,1,2.473,1.2,4.105,4.105,0,0,1,.637,2.957l-.125.961h-5.18a1.814,1.814,0,0,0,.4,1.313,1.521,1.521,0,0,0,1.172.508,2.712,2.712,0,0,0,2.109-.93l1.008,1.25A3.135,3.135,0,0,1,24.664-.23,4.5,4.5,0,0,1,22.734.156Zm.7-6.945a1.565,1.565,0,0,0-1.082.383,3.363,3.363,0,0,0-.848,1.383h3.031l.047-.2a2.071,2.071,0,0,0,.008-.594,1.134,1.134,0,0,0-.383-.707A1.2,1.2,0,0,0,23.438-6.789Zm7.234-1.672-.187,1a3.042,3.042,0,0,1,2.461-1.148,2.028,2.028,0,0,1,1.766.875,3.526,3.526,0,0,1,.414,2.359L34.234,0h-2.2l.906-5.4a2.528,2.528,0,0,0,.016-.555.9.9,0,0,0-1-.82,1.9,1.9,0,0,0-1.555.8L29.344,0h-2.2l1.469-8.453Zm9.758-2.07-.367,2.078h1.406L41.18-6.8H39.773l-.719,4.234a1.077,1.077,0,0,0,.063.609q.109.211.531.227.125.008.672-.039L40.164-.039A3.706,3.706,0,0,1,38.9.141a1.985,1.985,0,0,1-1.617-.68,2.456,2.456,0,0,1-.437-1.8L37.57-6.8h-1.2l.289-1.656h1.2l.359-2.078Z" transform="translate(-1382 -12353)" fill="#12263f"/>
    <path id="Trazado_107019" data-name="Trazado 107019" d="M-3644.412-10475.379s-49.5-438.746-247.326-13.687" transform="translate(2700 -1700)" fill="none" stroke="#000" stroke-width="1" stroke-dasharray="6"/>
    <path id="Trazado_107310" data-name="Trazado 107310" d="M8,0l8,14H0Z" transform="matrix(-0.966, 0.259, -0.259, -0.966, -1274.461, -12176.309)"/>
    <path id="Trazado_107324" data-name="Trazado 107324" d="M8,0l8,14H0Z" transform="translate(-936.412 -12165.168) rotate(180)"/>
    <path id="Trazado_107311" data-name="Trazado 107311" d="M0,0H168V73H0Z" transform="translate(-1199 -12395)" fill="#a9ebf4"/>
    <path id="Trazado_107314" data-name="Trazado 107314" d="M2.6,0H.313L2.281-11.375H4.57ZM8.109-8.461l-.187,1a3.042,3.042,0,0,1,2.461-1.148,2.028,2.028,0,0,1,1.766.875,3.526,3.526,0,0,1,.414,2.359L11.672,0h-2.2l.906-5.4a2.528,2.528,0,0,0,.016-.555.9.9,0,0,0-1-.82,1.9,1.9,0,0,0-1.555.8L6.781,0h-2.2L6.047-8.453Zm9.758-2.07L17.5-8.453h1.406L18.617-6.8H17.211l-.719,4.234a1.077,1.077,0,0,0,.063.609q.109.211.531.227.125.008.672-.039L17.6-.039a3.706,3.706,0,0,1-1.266.18,1.985,1.985,0,0,1-1.617-.68,2.456,2.456,0,0,1-.437-1.8L15.008-6.8h-1.2L14.1-8.453h1.2l.359-2.078ZM22.734.156A3.677,3.677,0,0,1,20.77-.387a3.292,3.292,0,0,1-1.277-1.469,4.093,4.093,0,0,1-.328-2.059l.023-.312a5.465,5.465,0,0,1,.719-2.266,4.341,4.341,0,0,1,1.547-1.59,3.827,3.827,0,0,1,2.094-.527,2.926,2.926,0,0,1,2.473,1.2,4.105,4.105,0,0,1,.637,2.957l-.125.961h-5.18a1.814,1.814,0,0,0,.4,1.313,1.521,1.521,0,0,0,1.172.508,2.712,2.712,0,0,0,2.109-.93l1.008,1.25A3.135,3.135,0,0,1,24.664-.23,4.5,4.5,0,0,1,22.734.156Zm.7-6.945a1.565,1.565,0,0,0-1.082.383,3.363,3.363,0,0,0-.848,1.383h3.031l.047-.2a2.071,2.071,0,0,0,.008-.594,1.134,1.134,0,0,0-.383-.707A1.2,1.2,0,0,0,23.438-6.789Zm7.234-1.672-.187,1a3.042,3.042,0,0,1,2.461-1.148,2.028,2.028,0,0,1,1.766.875,3.526,3.526,0,0,1,.414,2.359L34.234,0h-2.2l.906-5.4a2.528,2.528,0,0,0,.016-.555.9.9,0,0,0-1-.82,1.9,1.9,0,0,0-1.555.8L29.344,0h-2.2l1.469-8.453Zm9.758-2.07-.367,2.078h1.406L41.18-6.8H39.773l-.719,4.234a1.077,1.077,0,0,0,.063.609q.109.211.531.227.125.008.672-.039L40.164-.039A3.706,3.706,0,0,1,38.9.141a1.985,1.985,0,0,1-1.617-.68,2.456,2.456,0,0,1-.437-1.8L37.57-6.8h-1.2l.289-1.656h1.2l.359-2.078Z" transform="translate(-1135 -12353)" fill="#12263f"/>
    <path id="Trazado_107316" data-name="Trazado 107316" d="M0,0H168V73H0Z" transform="translate(-1031 -12266)" fill="#a9ebf4"/>
    <path id="Trazado_107320" data-name="Trazado 107320" d="M4.734.156a4.008,4.008,0,0,1-2-.535A3.612,3.612,0,0,1,1.371-1.855,5.468,5.468,0,0,1,.789-4.07,8.9,8.9,0,0,1,1.063-6.8,7.3,7.3,0,0,1,2.219-9.359,5.256,5.256,0,0,1,4.09-11.008a4.844,4.844,0,0,1,2.324-.523,3.966,3.966,0,0,1,2.008.543A3.587,3.587,0,0,1,9.773-9.5a5.532,5.532,0,0,1,.563,2.207,9.188,9.188,0,0,1-.3,2.828A7.177,7.177,0,0,1,8.875-1.945,5.216,5.216,0,0,1,7.027-.352,4.83,4.83,0,0,1,4.734.156ZM7.977-6l.063-.742a3.626,3.626,0,0,0-.371-2.109A1.567,1.567,0,0,0,6.3-9.6a2.473,2.473,0,0,0-2.27,1.266,7.455,7.455,0,0,0-.949,3.672,3.762,3.762,0,0,0,.367,2.129,1.563,1.563,0,0,0,1.383.777,2.345,2.345,0,0,0,2.031-.957A5.79,5.79,0,0,0,7.922-5.578ZM14.3-8.461l-.187,1a3.042,3.042,0,0,1,2.461-1.148,2.028,2.028,0,0,1,1.766.875,3.526,3.526,0,0,1,.414,2.359L17.867,0h-2.2l.906-5.4a2.528,2.528,0,0,0,.016-.555.9.9,0,0,0-1-.82,1.9,1.9,0,0,0-1.555.8L12.977,0h-2.2l1.469-8.453ZM29.008-3.8a4.254,4.254,0,0,1-.8,2.09,4.375,4.375,0,0,1-1.75,1.4,5.329,5.329,0,0,1-2.328.465,3.936,3.936,0,0,1-1.961-.52A3.443,3.443,0,0,1,20.848-1.8,5.312,5.312,0,0,1,20.3-3.969a10.634,10.634,0,0,1,.2-2.391A7.578,7.578,0,0,1,21.41-8.9a5.666,5.666,0,0,1,1.551-1.758,4.679,4.679,0,0,1,2.891-.875,3.839,3.839,0,0,1,2.8,1.09A4.384,4.384,0,0,1,29.789-7.5l-2.281-.008a2.391,2.391,0,0,0-.43-1.578,1.752,1.752,0,0,0-1.336-.531,2.319,2.319,0,0,0-1.926.836A5.027,5.027,0,0,0,22.8-6.227a14.155,14.155,0,0,0-.219,2.445,2.434,2.434,0,0,0,.461,1.52,1.543,1.543,0,0,0,1.18.512,2.356,2.356,0,0,0,1.676-.5,2.625,2.625,0,0,0,.832-1.535Zm6.609-2.539a4.548,4.548,0,0,0-.742-.078,2.136,2.136,0,0,0-1.867.883L32.031,0h-2.2L31.3-8.453l2.07-.008-.2,1.031a2.325,2.325,0,0,1,1.969-1.2,3.214,3.214,0,0,1,.766.109ZM39.438.156a3.677,3.677,0,0,1-1.965-.543A3.292,3.292,0,0,1,36.2-1.855a4.093,4.093,0,0,1-.328-2.059l.023-.312a5.465,5.465,0,0,1,.719-2.266,4.341,4.341,0,0,1,1.547-1.59,3.827,3.827,0,0,1,2.094-.527,2.926,2.926,0,0,1,2.473,1.2,4.105,4.105,0,0,1,.637,2.957l-.125.961h-5.18a1.814,1.814,0,0,0,.4,1.313,1.521,1.521,0,0,0,1.172.508,2.712,2.712,0,0,0,2.109-.93l1.008,1.25A3.135,3.135,0,0,1,41.367-.23,4.5,4.5,0,0,1,39.438.156Zm.7-6.945a1.565,1.565,0,0,0-1.082.383,3.363,3.363,0,0,0-.848,1.383h3.031l.047-.2A2.071,2.071,0,0,0,41.3-5.82a1.134,1.134,0,0,0-.383-.707A1.2,1.2,0,0,0,40.141-6.789ZM48.781,0A2.281,2.281,0,0,1,48.7-.766a2.863,2.863,0,0,1-2.156.922A2.594,2.594,0,0,1,44.7-.566a2.186,2.186,0,0,1-.684-1.746,2.527,2.527,0,0,1,1.16-2.121,5.266,5.266,0,0,1,2.965-.738l1.031.016.109-.508a1.764,1.764,0,0,0,.023-.492.846.846,0,0,0-.277-.574.955.955,0,0,0-.629-.215,1.345,1.345,0,0,0-.875.254,1.231,1.231,0,0,0-.461.777l-2.211.008a2.457,2.457,0,0,1,1.113-1.965,4.312,4.312,0,0,1,2.613-.738,3.117,3.117,0,0,1,2.25.855,2.5,2.5,0,0,1,.68,2.121l-.648,4.047-.039.5a2.412,2.412,0,0,0,.133.938L50.945,0Zm-1.7-1.555a2.017,2.017,0,0,0,1.664-.828l.273-1.461-.766-.008a2.139,2.139,0,0,0-1.758.742,1.292,1.292,0,0,0-.242.633.75.75,0,0,0,.176.668A.891.891,0,0,0,47.086-1.555Zm9.672-8.977-.367,2.078H57.8L57.508-6.8H56.1l-.719,4.234a1.077,1.077,0,0,0,.063.609q.109.211.531.227.125.008.672-.039L56.492-.039a3.706,3.706,0,0,1-1.266.18,1.985,1.985,0,0,1-1.617-.68,2.456,2.456,0,0,1-.437-1.8L53.9-6.8H52.7l.289-1.656h1.2l.359-2.078ZM61.625.156A3.677,3.677,0,0,1,59.66-.387a3.292,3.292,0,0,1-1.277-1.469,4.093,4.093,0,0,1-.328-2.059l.023-.312A5.465,5.465,0,0,1,58.8-6.492a4.341,4.341,0,0,1,1.547-1.59,3.827,3.827,0,0,1,2.094-.527,2.926,2.926,0,0,1,2.473,1.2,4.105,4.105,0,0,1,.637,2.957l-.125.961h-5.18a1.814,1.814,0,0,0,.4,1.313,1.521,1.521,0,0,0,1.172.508,2.712,2.712,0,0,0,2.109-.93l1.008,1.25A3.135,3.135,0,0,1,63.555-.23,4.5,4.5,0,0,1,61.625.156Zm.7-6.945a1.565,1.565,0,0,0-1.082.383A3.363,3.363,0,0,0,60.4-5.023H63.43l.047-.2a2.071,2.071,0,0,0,.008-.594,1.134,1.134,0,0,0-.383-.707A1.2,1.2,0,0,0,62.328-6.789Zm4.68,2.2a13.2,13.2,0,0,1,1.668-4.988,7.175,7.175,0,0,1,3.246-3.066l.375,1.258q-2.672,2.039-3.383,6.555a19.375,19.375,0,0,0-.258,2.75q-.039,3.211,1.469,4.461l-.492,1.18A5.13,5.13,0,0,1,67.273.313,10.87,10.87,0,0,1,66.875-3a13.121,13.121,0,0,1,.1-1.406Zm4.133,8.172-.375-1.234q2.68-2.07,3.383-6.625a19.275,19.275,0,0,0,.242-2.7q.039-3.211-1.453-4.469l.492-1.18a4.565,4.565,0,0,1,1.582,1.457,6.725,6.725,0,0,1,.977,2.309,11.6,11.6,0,0,1,.3,2.781,13.865,13.865,0,0,1-.75,4.223A11.039,11.039,0,0,1,73.7,1.586,6.68,6.68,0,0,1,71.141,3.578Z" transform="translate(-985 -12224)" fill="#12263f"/>
    <path id="Trazado_107317" data-name="Trazado 107317" d="M4393,11761.5a6,6,0,0,1-6-6v-36a6,6,0,0,1,6-6h39.9l14.391-15.538-4.808,15.538H4449a6,6,0,0,1,6,6v36a6,6,0,0,1-6,6Z" transform="translate(-5951 -23724.496)" fill="#4dd0e1"/>
    <path id="Trazado_107321" data-name="Trazado 107321" d="M1.668,0H-.59V-8.7l-2.7.836V-9.7l4.711-1.687h.242Z" transform="translate(-1529 -11981)" fill="#12263f"/>
    <path id="Trazado_107318" data-name="Trazado 107318" d="M4393,11761.5a6,6,0,0,1-6-6v-36a6,6,0,0,1,6-6h39.9l14.391-15.538-4.808,15.538H4449a6,6,0,0,1,6,6v36a6,6,0,0,1-6,6Z" transform="translate(-5660 -23724.496)" fill="#4dd0e1"/>
    <path id="Trazado_107322" data-name="Trazado 107322" d="M3.98,0h-7.8V-1.547l3.68-3.922A9.078,9.078,0,0,0,.984-6.914a2.322,2.322,0,0,0,.363-1.172A1.738,1.738,0,0,0,.965-9.277,1.382,1.382,0,0,0-.129-9.711a1.49,1.49,0,0,0-1.207.527A2.089,2.089,0,0,0-1.777-7.8H-4.043a3.729,3.729,0,0,1,.5-1.9,3.5,3.5,0,0,1,1.4-1.348A4.262,4.262,0,0,1-.09-11.531a4.036,4.036,0,0,1,2.73.844A2.985,2.985,0,0,1,3.613-8.3a3.825,3.825,0,0,1-.437,1.719,9.551,9.551,0,0,1-1.5,2.039L-.91-1.82H3.98Z" transform="translate(-1238 -11981)" fill="#12263f"/>
    <path id="Trazado_107323" data-name="Trazado 107323" d="M4393,11761.5a6,6,0,0,1-6-6v-36a6,6,0,0,1,6-6h39.9l14.391-15.538-4.808,15.538H4449a6,6,0,0,1,6,6v36a6,6,0,0,1-6,6Z" transform="translate(-5369 -23724.496)" fill="#4dd0e1"/>
    <path id="Trazado_107325" data-name="Trazado 107325" d="M-1.52-6.687h1.2a1.7,1.7,0,0,0,1.273-.43,1.574,1.574,0,0,0,.414-1.141,1.392,1.392,0,0,0-.41-1.07A1.59,1.59,0,0,0-.168-9.711a1.666,1.666,0,0,0-1.086.355,1.137,1.137,0,0,0-.437.926H-3.949a2.777,2.777,0,0,1,.48-1.6,3.2,3.2,0,0,1,1.344-1.105,4.485,4.485,0,0,1,1.9-.4,4.253,4.253,0,0,1,2.828.863A2.945,2.945,0,0,1,3.629-8.289a2.394,2.394,0,0,1-.477,1.438A3.1,3.1,0,0,1,1.9-5.844,2.826,2.826,0,0,1,3.336-4.812a2.8,2.8,0,0,1,.473,1.625A2.994,2.994,0,0,1,2.7-.758,4.445,4.445,0,0,1-.223.156a4.214,4.214,0,0,1-2.785-.9A2.934,2.934,0,0,1-4.09-3.117h2.258a1.308,1.308,0,0,0,.48,1.047,1.771,1.771,0,0,0,1.184.406A1.779,1.779,0,0,0,1.094-2.09a1.47,1.47,0,0,0,.457-1.129q0-1.7-1.875-1.7h-1.2Z" transform="translate(-947 -11981)" fill="#12263f"/>
  </g>
</svg>
